<?xml version="1.0" encoding="UTF-8"?>
<svg version="1.1" xmlns="http://www.w3.org/2000/svg" width="512" height="512">
<path d="M0 0 C1.01790619 0.00215515 2.03581238 0.0043103 3.08456421 0.00653076 C17.69363523 0.05620146 32.02575853 0.30709809 46.375 3.3125 C47.34985352 3.51117676 48.32470703 3.70985352 49.32910156 3.91455078 C96.48330175 13.7783642 139.60404351 34.80004583 174.75390625 67.90234375 C177.32342207 70.32395548 177.32342207 70.32395548 180.015625 72.40625 C182.13784837 74.12089404 183.81400162 75.79388239 185.5625 77.875 C188.31391441 81.10672598 191.1583 84.21747916 194.0625 87.3125 C224.25528824 120.56567676 243.7294231 162.98610674 252.6875 206.75 C252.83485596 207.46889404 252.98221191 208.18778809 253.1340332 208.9284668 C256.10789088 224.57475609 256.74800362 240.04818046 256.6875 255.9375 C256.68534485 256.95540619 256.6831897 257.97331238 256.68096924 259.02206421 C256.63129854 273.63113523 256.38040191 287.96325853 253.375 302.3125 C253.07698486 303.77478027 253.07698486 303.77478027 252.77294922 305.26660156 C242.65232806 353.6484774 220.7358123 397.63678269 186.375 433.3125 C185.74287598 433.97185547 185.11075195 434.63121094 184.45947266 435.31054688 C175.31502521 444.79880305 166.01765991 453.5387044 155.375 461.3125 C154.22394983 462.17056152 153.07290823 463.02863451 151.921875 463.88671875 C143.73224019 469.92427396 135.22961724 475.30707302 126.375 480.3125 C125.66778809 480.7146875 124.96057617 481.116875 124.23193359 481.53125 C101.09654164 494.5566741 75.92537591 503.30551461 49.9375 508.625 C49.21860596 508.77235596 48.49971191 508.91971191 47.7590332 509.0715332 C33.08339502 511.86090125 18.55831162 512.66142619 3.64770508 512.62817383 C0.70811513 512.6250221 -2.2304558 512.64854926 -5.16992188 512.67382812 C-18.54306192 512.71848737 -31.43916711 511.51301542 -44.625 509.3125 C-46.33055054 509.03031616 -46.33055054 509.03031616 -48.07055664 508.74243164 C-50.6662622 508.27617402 -53.23774939 507.7574418 -55.8125 507.1875 C-57.20142456 506.88054199 -57.20142456 506.88054199 -58.6184082 506.56738281 C-103.06909585 496.23155661 -143.80440564 473.92342102 -176.625 442.3125 C-177.28435547 441.68037598 -177.94371094 441.04825195 -178.62304688 440.39697266 C-188.11130305 431.25252521 -196.8512044 421.95515991 -204.625 411.3125 C-205.48306152 410.16144983 -206.34113451 409.01040823 -207.19921875 407.859375 C-213.23677396 399.66974019 -218.61957302 391.16711724 -223.625 382.3125 C-224.0271875 381.60528809 -224.429375 380.89807617 -224.84375 380.16943359 C-237.8691741 357.03404164 -246.61801461 331.86287591 -251.9375 305.875 C-252.08485596 305.15610596 -252.23221191 304.43721191 -252.3840332 303.6965332 C-255.35789088 288.05024391 -255.99800362 272.57681954 -255.9375 256.6875 C-255.93534485 255.66959381 -255.9331897 254.65168762 -255.93096924 253.60293579 C-255.88129854 238.99386477 -255.63040191 224.66174147 -252.625 210.3125 C-252.42632324 209.33764648 -252.22764648 208.36279297 -252.02294922 207.35839844 C-242.1591358 160.20419825 -221.13745417 117.08345649 -188.03515625 81.93359375 C-185.61354452 79.36407793 -185.61354452 79.36407793 -183.53125 76.671875 C-181.81660596 74.54965163 -180.14361761 72.87349838 -178.0625 71.125 C-174.83077402 68.37358559 -171.72002084 65.5292 -168.625 62.625 C-135.37182324 32.43221176 -92.95139326 12.9580769 -49.1875 4 C-48.46860596 3.85264404 -47.74971191 3.70528809 -47.0090332 3.5534668 C-31.36274391 0.57960912 -15.88931954 -0.06050362 0 0 Z M-7.625 110.3125 C-10.75633032 114.52309754 -12.88729133 118.89199667 -14.8125 123.7421875 C-15.10711121 124.46769302 -15.40172241 125.19319855 -15.70526123 125.94068909 C-16.34603006 127.5203314 -16.9838409 129.10117613 -17.61901855 130.68307495 C-19.38292923 135.07439063 -21.17013123 139.45625034 -22.953125 143.83984375 C-23.33067932 144.76988724 -23.70823364 145.69993073 -24.097229 146.65815735 C-28.45556805 157.38359109 -32.91400998 168.06695421 -37.375 178.75 C-38.22272044 180.7817115 -39.07037624 182.81344997 -39.91796875 184.84521484 C-41.63171713 188.95282232 -43.34597715 193.06021578 -45.06054688 197.16748047 C-48.83804092 206.21765192 -52.60873343 215.27065705 -56.37985229 224.32348633 C-58.45744192 229.31080131 -60.53534081 234.29798743 -62.61328125 239.28515625 C-63.02518204 240.27375641 -63.43708282 241.26235657 -63.86146545 242.28091431 C-66.39093133 248.35159537 -68.92116806 254.42195456 -71.45196533 260.49208069 C-73.57238798 265.57795191 -75.6925217 270.66394354 -77.8125 275.75 C-78.22916931 276.74961761 -78.64583862 277.74923523 -79.07513428 278.77914429 C-83.40127401 289.15904248 -87.7232215 299.54063746 -92.02734375 309.9296875 C-92.38034546 310.78173767 -92.73334717 311.63378784 -93.0970459 312.51165771 C-94.49028988 315.87514976 -95.88330016 319.23873777 -97.27520752 322.6027832 C-101.38327267 332.53095549 -105.51637427 342.44805897 -109.68359375 352.3515625 C-110.10326416 353.34989609 -110.52293457 354.34822968 -110.95532227 355.3768158 C-112.99603849 360.23130753 -115.04006024 365.0843506 -117.09033203 369.93481445 C-117.82209751 371.67392466 -118.55371372 373.41309769 -119.28515625 375.15234375 C-119.62485947 375.95229767 -119.96456268 376.75225159 -120.31455994 377.57644653 C-122.01585102 381.31466467 -122.01585102 381.31466467 -122.625 385.3125 C-110.415 385.3125 -98.205 385.3125 -85.625 385.3125 C-76.35111668 363.07551432 -67.36830839 340.73512557 -58.4888916 318.33825684 C-57.06444668 314.74696211 -55.63777753 311.15655273 -54.2110796 307.56615257 C-52.83009798 304.09041947 -51.45001493 300.61433021 -50.07025719 297.13811111 C-49.4153567 295.48819644 -48.76027995 293.83835172 -48.10502052 292.18857956 C-47.20042633 289.91039961 -46.29693928 287.63178392 -45.39379883 285.35302734 C-45.12637375 284.68001587 -44.85894867 284.00700439 -44.5834198 283.31359863 C-43.5335182 280.66166334 -42.52720957 278.01912871 -41.625 275.3125 C-36.42471685 276.87763376 -32.87187277 280.17640713 -28.8125 283.625 C-27.2894783 284.89893476 -25.76603076 286.17236058 -24.2421875 287.4453125 C-23.08734863 288.41452637 -23.08734863 288.41452637 -21.90917969 289.40332031 C-18.4437059 292.29985783 -14.9441697 295.15357113 -11.4375 298 C-10.44580811 298.80606689 -10.44580811 298.80606689 -9.43408203 299.62841797 C-4.66179311 303.49730095 0.16367803 307.29371024 5.00756836 311.07226562 C10.52873884 315.39719554 15.93293508 319.86025882 21.33740234 324.32958984 C25.76690062 327.99207543 30.22324354 331.61494999 34.72265625 335.19140625 C38.29028658 338.04445967 41.83195613 340.92900674 45.375 343.8125 C49.69590365 347.32830965 54.01934055 350.8397445 58.375 354.3125 C62.73066577 357.78526055 67.05372869 361.29713457 71.375 364.8125 C72.7616625 365.93887134 74.14838006 367.06517489 75.53515625 368.19140625 C77.79666792 370.02815858 80.05450965 371.86895597 82.30859375 373.71484375 C95.2652445 384.4743805 95.2652445 384.4743805 111.375 386.3125 C116.26686906 383.95715564 119.18578942 380.5951542 122.375 376.3125 C125.19861782 367.84164654 122.18282908 361.18815827 118.9375 353.3125 C118.4530542 352.10827393 117.9686084 350.90404785 117.46948242 349.66333008 C112.4814823 337.31783088 107.21789058 325.0835549 101.98193359 312.84179688 C97.07828963 301.37068843 92.2768188 289.86264045 87.5625 278.3125 C81.58053516 263.66230477 75.53184366 249.04131874 69.4375 234.4375 C67.73432776 230.35548846 66.03120108 226.27345791 64.328125 222.19140625 C63.91043854 221.19034348 63.49275208 220.1892807 63.06240845 219.15788269 C58.9236914 209.23594898 54.80326756 199.30647116 50.6875 189.375 C49.99829754 187.71248102 49.30908859 186.04996473 48.61987305 184.38745117 C45.39150601 176.59876423 42.1661504 168.80884141 38.94529724 161.01704407 C37.41566815 157.31723321 35.88482393 153.61792573 34.35385132 149.91867065 C33.633371 148.17683763 32.91347518 146.43476268 32.19424438 144.69241333 C30.24591519 139.97260629 28.28350442 135.25912101 26.30603027 130.55145264 C25.3666712 128.2924708 24.45243198 126.02438267 23.54003906 123.75439453 C22.94659565 122.31647073 22.35254792 120.87879615 21.7578125 119.44140625 C21.37784622 118.46868019 21.37784622 118.46868019 20.99020386 117.4763031 C18.94843606 112.62454141 16.56906359 110.29582448 12.375 107.3125 C5.00547321 104.85599107 -1.47791354 105.64071429 -7.625 110.3125 Z " fill="#000000" transform="translate(255.625,-0.3125)"/>
<path d="M0 0 C0.66 0 1.32 0 2 0 C9.584268 17.75245941 16.93078765 35.58594694 24.125 53.5 C25.13226313 56.003802 26.14030193 58.50729136 27.1484375 61.01074219 C28.66677872 64.7814688 30.18502217 68.55223421 31.70220947 72.32342529 C35.77796057 82.45349153 39.86776756 92.57780728 43.96676636 102.69848633 C44.98890158 105.22259306 46.01028158 107.74700423 47.03149414 110.27148438 C50.10456199 117.86602118 53.18425537 125.45775599 56.28042603 133.04290771 C57.70390933 136.53068897 59.12506214 140.01941786 60.54614258 143.50817871 C61.53926455 145.94303324 62.53617474 148.37631338 63.53320312 150.80957031 C64.12780126 152.26879991 64.72221338 153.72810533 65.31640625 155.1875 C65.72748375 156.18568756 65.72748375 156.18568756 66.14686584 157.20404053 C68 161.77237804 68 161.77237804 68 164 C64.08024351 162.30781244 60.92771162 159.71200866 57.625 157.0625 C56.3672621 156.06370814 55.10944747 155.06501289 53.8515625 154.06640625 C53.2112207 153.55609863 52.57087891 153.04579102 51.91113281 152.52001953 C48.95161184 150.16616445 45.97546979 147.83363586 43 145.5 C41.8319579 144.58212458 40.66398934 143.66415558 39.49609375 142.74609375 C37.17719876 140.92396622 34.85677485 139.10381206 32.53515625 137.28515625 C27.18304902 133.08999658 21.84357675 128.8817142 16.54492188 124.61914062 C9.91712043 119.28762842 3.205409 114.08492667 -3.57104492 108.94384766 C-9.33580897 104.55158372 -14.97392537 100.01730666 -20.56030273 95.40063477 C-24.59247908 92.08217435 -28.71973595 88.99288386 -33 86 C-32.27938566 81.19052667 -30.51244287 76.92511505 -28.7109375 72.44140625 C-28.3752626 71.59600281 -28.03958771 70.75059937 -27.69374084 69.87957764 C-26.59137093 67.10565809 -25.48317301 64.33410571 -24.375 61.5625 C-23.61161183 59.64430286 -22.84867717 57.72592519 -22.08618164 55.80737305 C-20.51336313 51.85074278 -18.93866645 47.89486755 -17.36279297 43.93945312 C-14.03388278 35.57827853 -10.73251689 27.20625002 -7.43170166 18.83395386 C-5.84999826 14.82250195 -4.26669107 10.8116832 -2.68359375 6.80078125 C-1.78901789 4.53387177 -0.89450616 2.26693699 0 0 Z " fill="#000000" transform="translate(259,160)"/>
</svg>
