<?xml version="1.0" encoding="UTF-8"?>
<svg version="1.1" xmlns="http://www.w3.org/2000/svg" width="1280" height="767">
<path d="M0 0 C1.01180328 -0.00960754 2.02360657 -0.01921509 3.06607056 -0.02911377 C4.15978973 -0.03336365 5.25350891 -0.03761353 6.38037109 -0.04199219 C7.50897552 -0.04769226 8.63757996 -0.05339233 9.80038452 -0.05926514 C12.19275983 -0.06871896 14.58514818 -0.07525063 16.97753906 -0.07910156 C20.61856211 -0.08877356 24.25901261 -0.11978024 27.89990234 -0.15136719 C30.22672192 -0.15790078 32.55354552 -0.16314985 34.88037109 -0.16699219 C35.96194489 -0.17933899 37.04351868 -0.19168579 38.15786743 -0.20440674 C44.96483995 -0.18458713 52.28141945 0.00095328 57.72842407 4.59442139 C68.01642492 16.64970731 70.14844734 37.93916627 73.84912109 52.80566406 C74.50640196 55.43027695 75.16553045 58.05442478 75.82466125 60.67857361 C77.21873886 66.23216319 78.60901105 71.78669264 79.99655151 77.34191895 C82.16780013 86.03420424 84.34733681 94.72439923 86.52905273 103.4140625 C86.70964993 104.1333903 86.89024712 104.85271809 87.07631695 105.5938437 C87.98433688 109.21040359 88.89248226 112.82693195 89.80071068 116.44343948 C90.52348203 119.32162025 91.24595737 122.19987507 91.96816444 125.07819748 C97.72980073 148.04090586 103.55254103 170.98710001 109.46630859 193.91113281 C109.83448928 195.33905356 110.20264333 196.76698117 110.57077026 198.19491577 C110.8411368 199.24362933 110.8411368 199.24362933 111.11696529 200.31352901 C111.83350231 203.09297468 112.55002283 205.8724246 113.26644707 208.65189934 C113.6159209 210.00766471 113.96545438 211.3634147 114.31505013 212.71914864 C118.82954997 230.22939965 123.27397654 247.75745942 127.71630859 265.28613281 C128.00003893 266.4055854 128.00003893 266.4055854 128.28950119 267.5476532 C130.5377412 276.41835656 132.78432534 285.28947808 135.02880859 294.16113281 C138.86577866 281.54460917 141.80806215 268.7277395 144.80615234 255.89160156 C145.37058397 253.48640372 145.9353296 251.08127955 146.50036621 248.67622375 C147.70145314 243.56112742 148.90058131 238.44557641 150.09786987 233.32958984 C151.98226395 225.27782967 153.87147617 217.22720403 155.76147461 209.17675781 C156.39936309 206.45944808 157.03722035 203.74213102 157.67506409 201.02481079 C157.91204483 200.01525422 157.91204483 200.01525422 158.15381306 198.98530257 C159.27392642 194.21325727 160.39339047 189.44105993 161.51255798 184.66879272 C165.36227232 168.25375317 169.21988112 151.84059852 173.09130859 135.43066406 C173.32265125 134.45001165 173.55399391 133.46935925 173.79234695 132.4589901 C176.2023761 122.24409606 178.61526681 112.02988042 181.03027344 101.81616211 C181.85020632 98.34784469 182.67000499 94.87949557 183.48974609 91.41113281 C183.7841263 90.16585029 183.7841263 90.16585029 184.08445358 88.89541054 C186.60844361 78.21587304 189.11117111 67.53164855 191.59064293 56.84169006 C192.64465417 52.30176428 193.70444777 47.76318394 194.76321411 43.22436523 C195.55741591 39.80697064 196.34207358 36.38748624 197.1262207 32.96777344 C197.59453438 30.95918912 198.063331 28.95071731 198.53271484 26.94238281 C198.8280864 25.63213135 198.8280864 25.63213135 199.12942505 24.29541016 C200.99398036 16.40583731 203.3356179 8.21821023 210.02880859 3.16113281 C216.62532063 0.13849133 222.9276039 -0.2819114 230.09130859 -0.23730469 C231.12263916 -0.24017487 232.15396973 -0.24304504 233.21655273 -0.2460022 C235.38477125 -0.24803259 237.55300852 -0.24257492 239.72119141 -0.22998047 C243.01946393 -0.21391271 246.31651119 -0.22986479 249.61474609 -0.24902344 C251.73193627 -0.24704082 253.84912569 -0.24319678 255.96630859 -0.23730469 C256.94156494 -0.24337738 257.91682129 -0.24945007 258.92163086 -0.25570679 C266.36251646 -0.18014887 273.18324843 0.56851133 278.84130859 5.72363281 C283.82154987 12.64813067 285.8089039 21.45671479 287.68481445 29.63549805 C287.92226442 30.64159717 288.15971439 31.64769629 288.40435982 32.68428326 C289.19151096 36.02774519 289.96754599 39.37368512 290.74365234 42.71972656 C291.30833734 45.12783937 291.87374006 47.53578398 292.43980408 49.943573 C293.65439894 55.11649711 294.86433105 60.29047705 296.07000732 65.46548462 C297.81950486 72.97435709 299.57779135 80.48114964 301.33863974 87.98736751 C302.1615752 91.49542609 302.98420628 95.00355602 303.8067627 98.51170349 C303.97146993 99.21416098 304.13617717 99.91661848 304.30587554 100.64036256 C305.48874935 105.68599863 306.66998659 110.73201624 307.85046387 115.7782135 C312.59632969 136.06438053 317.36463943 156.34516143 322.14990234 176.62207031 C322.48152461 178.02739245 322.81314579 179.43271484 323.14476585 180.83803749 C324.60817818 187.03940063 326.07186992 193.24069778 327.53580111 199.44193846 C332.01081149 218.39818382 336.48241704 237.35522945 340.94398022 256.31464481 C342.23910369 261.81602379 343.53880808 267.31627186 344.8458004 272.81484318 C345.53124447 275.70053229 346.21352886 278.58696145 346.89499283 281.47359276 C347.32995033 283.31063391 347.76946953 285.14659319 348.209198 286.98249817 C348.58034225 288.55821846 348.58034225 288.55821846 348.95898438 290.16577148 C349.1687088 291.04722336 349.37843323 291.92867523 349.59451294 292.83683777 C350.02880859 295.16113281 350.02880859 295.16113281 350.02880859 299.16113281 C350.68880859 299.16113281 351.34880859 299.16113281 352.02880859 299.16113281 C352.20358734 297.47901955 352.20358734 297.47901955 352.38189697 295.76292419 C352.99268798 290.90846683 354.14555676 286.26119422 355.37939453 281.5324707 C355.6193644 280.59651691 355.85933428 279.66056313 356.10657597 278.6962471 C356.90405542 275.59085763 357.70858947 272.48734207 358.51318359 269.38378906 C359.08226085 267.17395093 359.65091079 264.96400272 360.21916199 262.75395203 C361.7484373 256.81155193 363.28389755 250.87076609 364.8205986 244.93028259 C366.42803584 238.71222295 368.02991409 232.49273126 369.63256836 226.2734375 C373.13643757 212.68125309 376.648898 199.09129847 380.16449738 185.50214386 C380.97862219 182.35512928 381.79254532 179.20806263 382.60638428 176.06097412 C386.55306712 160.79990763 390.5012874 145.5392441 394.46923828 130.28369141 C395.30034884 127.08790515 396.13139855 123.89210308 396.96240234 120.69628906 C397.26833502 119.51993519 397.26833502 119.51993519 397.58044815 118.31981659 C400.52451243 106.99601179 403.44241292 95.66568759 406.34461975 84.33108521 C408.03397674 77.73335876 409.72910539 71.13711893 411.4254179 64.54117775 C412.80450877 59.17646278 414.17598688 53.80988006 415.54159451 48.4417181 C416.38448732 45.13628482 417.23489651 41.83281867 418.08732414 38.52983284 C418.47804671 37.00956628 418.8657068 35.48850847 419.24991035 33.96658134 C425.73458679 8.30024363 425.73458679 8.30024363 433.02880859 3.16113281 C439.82408626 0.07046239 446.29827228 -0.28069832 453.66943359 -0.23730469 C454.75464294 -0.24017487 455.83985229 -0.24304504 456.95794678 -0.2460022 C459.23710659 -0.24803273 461.51628423 -0.24257411 463.79541016 -0.22998047 C467.28245803 -0.21385031 470.76835788 -0.22989636 474.25537109 -0.24902344 C476.47672781 -0.24704205 478.69808382 -0.24320054 480.91943359 -0.23730469 C481.95908264 -0.24337738 482.99873169 -0.24945007 484.06988525 -0.25570679 C493.13995311 -0.16742973 493.13995311 -0.16742973 497.02880859 3.16113281 C499.87864394 8.04656484 499.43515018 13.20515073 498.31352234 18.60426331 C497.81813713 20.36986855 497.81813713 20.36986855 497.31274414 22.17114258 C497.13248279 22.81897737 496.95222143 23.46681215 496.76649761 24.1342783 C494.80028134 31.12806259 492.65695619 38.06856274 490.48583984 45.00097656 C490.0447258 46.41747163 489.6038773 47.83404942 489.16326904 49.2507019 C487.97498761 53.06854075 486.78290591 56.88518301 485.59007645 60.70160294 C484.31280448 64.79053258 483.03911048 68.88057682 481.76489258 72.97045898 C478.79356683 82.50482763 475.81656325 92.0374187 472.83840942 101.56965637 C471.78120326 104.95370041 470.72431868 108.33784484 469.66744423 111.72199249 C465.2613501 125.83034193 460.85340702 139.93811303 456.44238281 154.04492188 C449.77033344 175.38297827 443.10750931 196.72388345 436.45602417 218.06835938 C435.221145 222.03104613 433.98596591 225.99363933 432.75069332 229.95620346 C427.86896383 245.61637849 422.99127906 261.2777964 418.12367249 276.94236755 C416.21598899 283.08133172 414.30668889 289.21979277 412.39702129 295.35813999 C411.10161258 299.52246923 409.80709323 303.68707002 408.51486206 307.85238647 C405.57660869 317.32224815 402.62495471 326.78766671 399.63555908 336.24152374 C399.04260645 338.1174798 398.45145742 339.99400564 397.86035156 341.87054443 C396.80449687 345.20483151 395.73267229 348.53344888 394.65380859 351.86035156 C394.35627686 352.80336624 394.05874512 353.74638092 393.75219727 354.7179718 C391.49316229 361.58186232 388.93328886 368.74280201 382.46630859 372.59863281 C378.10611374 374.58053957 374.79146698 375.28494655 370.02001953 375.32226562 C369.02508484 375.33187317 368.03015015 375.34148071 367.00506592 375.35137939 C365.93524475 375.35562927 364.86542358 375.35987915 363.76318359 375.36425781 C362.65581848 375.36995789 361.54845337 375.37565796 360.40753174 375.38153076 C358.06401523 375.39097427 355.72048549 375.39751217 353.37695312 375.40136719 C349.80623967 375.41105836 346.23610541 375.44208276 342.66552734 375.47363281 C340.38558283 375.48016469 338.10563422 375.48541443 335.82568359 375.48925781 C334.76395935 375.50160461 333.70223511 375.51395142 332.6083374 375.52667236 C325.15963111 375.50448542 319.3444217 374.72319748 313.27880859 370.03613281 C308.45612769 363.87381832 306.37579419 356.5671371 304.64819336 349.0378418 C304.43998711 348.16361415 304.23178085 347.2893865 304.01726532 346.38866711 C303.32666138 343.4800706 302.64854912 340.56870682 301.97021484 337.65722656 C301.47320516 335.5544382 300.97533288 333.45185356 300.47666931 331.34945679 C299.40325738 326.81724063 298.33508297 322.28383467 297.27099609 317.74942017 C294.68885635 306.74805461 292.07949355 295.75312805 289.47341537 284.75741386 C288.70951478 281.53326003 287.94626737 278.30895257 287.18336523 275.08456236 C282.57650998 255.61614512 277.91394345 236.16158055 273.21240234 216.71582031 C272.97048656 215.71520077 272.97048656 215.71520077 272.7236836 214.69436669 C270.32813535 204.78679079 267.92885722 194.88011932 265.52880859 184.97363281 C263.16354789 175.20947384 260.79880448 165.44518986 258.43505859 155.68066406 C258.02084561 153.96990472 258.02084561 153.96990472 257.59826469 152.22458458 C252.35159046 130.55025508 247.17082576 108.86051214 242.02880859 87.16113281 C235.41938714 113.24015929 229.1110671 139.38622102 222.89215088 165.56082153 C221.23731786 172.52520794 219.57851652 179.48864565 217.91894531 186.4519043 C217.63371443 187.64875005 217.34848354 188.8455958 217.0546093 190.0787096 C216.46978965 192.53264025 215.88496279 194.98656918 215.30012894 197.44049644 C213.79686475 203.74864971 212.29419042 210.05694348 210.79150391 216.36523438 C210.48632402 217.64631419 210.18114414 218.92739401 209.86671638 220.24729443 C208.42951383 226.28041942 206.99245599 232.3135788 205.55582666 238.34684032 C201.72984438 254.41435816 197.90052044 270.48106853 194.0619278 286.54557896 C192.29396504 293.94508816 190.52928782 301.34536447 188.76900327 308.7467041 C187.41626373 314.43301328 186.0578388 320.11795474 184.69736099 325.80241776 C184.14001012 328.13508711 183.58448074 330.46819258 183.03094101 332.80176926 C175.12236952 366.12881329 175.12236952 366.12881329 168.02880859 372.16113281 C159.69789651 377.25224575 146.16008089 375.34734868 136.69824219 375.34643555 C134.16633275 375.348622 131.6348601 375.36683325 129.10302734 375.38574219 C104.50942082 375.47439279 104.50942082 375.47439279 97.52880859 369.18457031 C92.07167128 361.82311946 89.82744195 352.85346935 87.15380859 344.22363281 C86.64397672 342.59453359 86.13404358 340.96546607 85.62402344 339.33642578 C79.18624583 318.68864966 73.01077832 297.95877195 66.78662109 277.24584961 C60.52105054 256.39795619 54.20427092 235.56649704 47.83185959 214.75101471 C45.77309126 208.02596198 43.71534851 201.30059528 41.65771484 194.57519531 C41.42877092 193.82693859 41.199827 193.07868187 40.96394539 192.3077507 C32.04712617 163.16196067 23.20263256 133.99411259 14.35493565 104.82728195 C12.48705911 98.6702823 10.61758599 92.51376857 8.74755859 86.35742188 C6.30392315 78.31260299 3.86204169 70.26725416 1.4222784 62.22126007 C0.13601697 57.97947709 -1.15098287 53.73792179 -2.43991089 49.49694824 C-3.63623932 45.56048569 -4.83032769 41.62335072 -6.02267456 37.68568039 C-6.45970325 36.24380186 -6.89753947 34.80216781 -7.33624268 33.36079788 C-7.93541769 31.39174128 -8.53166741 29.42182175 -9.12719727 27.45166016 C-9.46118027 26.35091156 -9.79516327 25.25016296 -10.13926697 24.11605835 C-11.82152342 18.14082511 -12.72496699 12.36450212 -11.97119141 6.16113281 C-8.83955489 0.86974698 -5.89827315 0.04525273 0 0 Z " fill="#242E3D" transform="translate(414.97119140625,14.8388671875)"/>
<path d="M0 0 C2.70471778 1.45674604 5.32724409 3.00704293 7.94921875 4.60791016 C10.00386827 5.81202263 12.05990797 7.01376545 14.1171875 8.21337891 C15.1695459 8.8326123 16.2219043 9.4518457 17.30615234 10.08984375 C51.03106073 29.73170821 86.56160456 46.66624096 122.40460205 62.04199219 C124.38327167 62.89207766 126.35968588 63.7471886 128.33544922 64.60400391 C207.92519492 99.0718423 291.31728715 124.30079439 520.51171875 162.17041016 C521.38825104 162.24754242 522.26478333 162.32467468 523.1678772 162.40414429 C555.13515414 165.1763712 587.11447079 166.26419299 619.19262695 166.18115234 C623.62734134 166.16975022 628.06181566 166.17656499 632.49652195 166.18803024 C664.0386416 166.25707053 695.46549822 164.99324487 726.88671875 162.17041016 C727.81948639 162.08804108 728.75225403 162.005672 729.71328735 161.92080688 C796.4486891 155.97558894 862.50463565 144.30158384 927.44921875 127.92041016 C928.28352417 127.71027283 929.11782959 127.5001355 929.97741699 127.28363037 C986.61786053 112.97155598 1041.63588283 94.1156501 1095.73925781 72.18164062 C1096.42371979 71.90525253 1097.10818176 71.62886444 1097.81338501 71.34410095 C1099.67538402 70.59214476 1101.53622122 69.8373135 1103.39697266 69.08227539 C1110.7844051 66.27018205 1117.32622909 65.64108043 1124.69921875 68.92041016 C1129.57594925 71.63223693 1132.61450929 74.59233976 1134.44921875 79.92041016 C1135.3917084 85.89875137 1134.89106343 90.81698529 1131.44921875 95.92041016 C1123.81345981 104.71310227 1113.40005236 111.17986559 1103.76171875 117.54541016 C1103.17850861 117.93237061 1102.59529846 118.31933105 1101.99441528 118.71801758 C1078.23733708 134.4687448 1053.63328107 148.42474156 1028.29589844 161.453125 C1025.65662521 162.81350511 1023.02540586 164.18841729 1020.39453125 165.56494141 C969.40153581 191.94644153 913.85557682 211.22490379 858.44921875 225.92041016 C857.68750366 226.1236792 856.92578857 226.32694824 856.14099121 226.53637695 C802.21585446 240.90933773 747.05590818 250.97381152 691.44921875 255.92041016 C690.62981812 255.99453125 689.81041748 256.06865234 688.96618652 256.14501953 C639.56254551 260.56689933 588.90725258 260.92713695 539.44921875 256.92041016 C538.2500885 256.82566406 538.2500885 256.82566406 537.0267334 256.72900391 C443.19003685 249.28736492 350.29059607 228.91701874 139.26660156 133.58789062 C136.59856628 132.00880215 133.91522438 130.46110756 131.22265625 128.92431641 C105.28195619 114.03030965 80.09300062 96.93878378 56.07421875 79.10791016 C55.28805176 78.52589844 54.50188477 77.94388672 53.69189453 77.34423828 C31.54358402 60.87781617 9.99915739 43.49470409 -10.3671875 24.85791016 C-11.94293122 23.45975473 -13.56561943 22.11389653 -15.21484375 20.80322266 C-18.58970812 18.08301425 -20.25173776 15.91184264 -20.90625 11.55322266 C-21.16157126 6.90223545 -21.1121287 4.66381624 -18.23828125 0.85791016 C-12.56375813 -3.23302512 -6.28961203 -2.66200846 0 0 Z " fill="#FF9900" transform="translate(27.55078125,503.07958984375)"/>
<path d="M0 0 C0.78746613 -0.00067474 1.57493225 -0.00134949 2.38626099 -0.00204468 C42.68423421 0.05240448 83.41511863 7.39161953 113.62109375 35.8359375 C143.20444307 66.5730836 146.33704182 109.03221859 146.28231621 149.36198545 C146.2805013 153.64630554 146.29806584 157.93054437 146.31408691 162.21482849 C146.35161632 173.08070765 146.3646772 183.94656603 146.375 194.8125 C146.38614919 206.52918839 146.40200951 218.24577308 146.44571257 229.96239227 C146.46082397 234.1984688 146.47008994 238.43436955 146.46430969 242.6704731 C146.42087654 276.47938102 148.18485647 307.01982417 163.65625 337.79296875 C166.89938562 344.31748451 169.64422031 349.91772144 167.875 357.25 C163.39387824 364.87406764 155.12548127 369.57087241 147.9140625 374.28857422 C145.86941563 375.62866006 143.8406048 376.99051115 141.8125 378.35546875 C140.50087946 379.22528595 139.18840766 380.09382117 137.875 380.9609375 C137.276875 381.36299408 136.67875 381.76505066 136.0625 382.17929077 C131.04010887 385.43573477 126.40126626 387.34022379 120.375 387.125 C107.8207241 383.98643103 100.75055448 372.82481074 94.29296875 362.34375 C89.56782678 354.45855733 85.22453066 346.34642288 80.875 338.25 C80.09189453 339.06452637 80.09189453 339.06452637 79.29296875 339.89550781 C48.48444785 371.76964743 12.20645258 393.49461385 -33.3359375 394.453125 C-36.0578133 394.47924569 -38.77815063 394.49767208 -41.5 394.5 C-42.20987061 394.50067474 -42.91974121 394.50134949 -43.65112305 394.50204468 C-55.02309781 394.48491049 -66.03725246 393.9508275 -77.125 391.25 C-77.80868652 391.08371094 -78.49237305 390.91742188 -79.19677734 390.74609375 C-97.9842377 385.9481611 -114.07144453 376.48102296 -128.125 363.25 C-128.73085937 362.72019531 -129.33671875 362.19039063 -129.9609375 361.64453125 C-148.10838087 345.07327428 -156.87223648 317.72166455 -158.33178711 293.87084961 C-158.42734684 290.43194039 -158.45428134 287.0026754 -158.4375 283.5625 C-158.43186035 282.33934082 -158.4262207 281.11618164 -158.42041016 279.85595703 C-157.99620389 247.9984868 -146.73839756 221.38308283 -124.10766602 198.93383789 C-95.3042111 171.08925821 -54.79131517 162.54961517 -16 162.875 C-14.52614838 162.88148056 -14.52614838 162.88148056 -13.02252197 162.88809204 C2.46104596 162.96767446 17.58149559 163.66171708 32.875 166.25 C34.00550781 166.43755859 35.13601562 166.62511719 36.30078125 166.81835938 C49.6534353 169.07298785 62.7673269 171.87384482 75.875 175.25 C75.80700673 168.74330678 75.71684251 162.23716852 75.61254883 155.73095703 C75.57966456 153.5259464 75.5515243 151.32085895 75.52856445 149.11572266 C75.26904406 124.83123955 74.00472852 97.44010356 56.6875 78.4375 C47.99964696 70.52018825 37.11393852 66.14257359 25.875 63.25 C24.91352051 63.0022583 24.91352051 63.0022583 23.93261719 62.74951172 C1.2448086 57.31634904 -26.46636677 58.16252164 -49.125 63.25 C-50.01912598 63.44335938 -50.91325195 63.63671875 -51.83447266 63.8359375 C-70.21143488 67.8843045 -88.18004899 73.63182821 -105.73828125 80.3828125 C-106.59252686 80.70967041 -107.44677246 81.03652832 -108.3269043 81.37329102 C-109.87468756 81.97322272 -111.41722919 82.58698038 -112.95239258 83.21850586 C-117.96500036 85.18026706 -122.73962372 86.05390002 -128.125 85.25 C-130.62660818 83.37379387 -131.74445652 82.01108697 -133.125 79.25 C-133.24847091 76.47602018 -133.31342085 73.72816806 -133.328125 70.953125 C-133.33382507 70.12673523 -133.33952515 69.30034546 -133.34539795 68.44891357 C-133.35485351 66.69707521 -133.36138413 64.94521902 -133.36523438 63.19335938 C-133.37491146 60.52441918 -133.40591706 57.85625844 -133.4375 55.1875 C-133.44403304 53.48437957 -133.44928233 51.78125363 -133.453125 50.078125 C-133.4654718 49.28416321 -133.4778186 48.49020142 -133.49053955 47.67218018 C-133.46487587 41.22542909 -131.92947557 37.18036922 -127.4375 32.375 C-102.26725473 12.39449603 -60.50282662 4.33814032 -29.125 1.25 C-28.25439941 1.1586377 -27.38379883 1.06727539 -26.48681641 0.97314453 C-17.66488536 0.13103064 -8.8540765 0.0068713 0 0 Z M-69.87109375 236.53125 C-83.45709572 252.91921772 -84.66233103 271.80383374 -83.125 292.25 C-81.46443829 305.89987176 -74.83530009 318.56492029 -64.125 327.25 C-47.65375189 339.41947885 -25.66771526 340.2316271 -6.03637695 337.42895508 C3.21568524 335.90438099 12.03817766 333.35115108 20.875 330.25 C21.80957031 329.93160156 22.74414062 329.61320312 23.70703125 329.28515625 C34.31868553 325.39143114 43.37334228 318.57166175 51.875 311.25 C52.56335938 310.65832031 53.25171875 310.06664062 53.9609375 309.45703125 C69.22367881 295.3103402 75.54078837 275.54341985 76.875 255.25 C77.25730033 244.59178817 77.06869934 233.91041713 76.875 223.25 C66.6407664 220.60101688 56.46167755 218.60366202 46 217.0625 C44.87231201 216.89588867 43.74462402 216.72927734 42.58276367 216.55761719 C39.3496852 216.0951723 36.11492523 215.66158993 32.875 215.25 C31.60825439 215.08878662 31.60825439 215.08878662 30.31591797 214.92431641 C21.72685906 213.99119649 13.09173494 214.02847864 4.46191406 214.00976562 C1.77637327 214.00009497 -0.90838886 213.96899984 -3.59375 213.9375 C-27.71876947 213.78933288 -52.61010149 218.13430159 -69.87109375 236.53125 Z " fill="#242E3D" transform="translate(217.125,4.75)"/>
<path d="M0 0 C4.79458987 4.66140681 7.38052108 9.10070835 7.70800781 15.80029297 C7.74530702 19.24960179 7.7779656 22.69845993 7.78710938 26.14794922 C7.79681255 28.36463993 7.82785883 30.58040168 7.859375 32.796875 C7.86590634 34.21744245 7.8711563 35.63801649 7.875 37.05859375 C7.8843457 38.34233887 7.89369141 39.62608398 7.90332031 40.94873047 C7.42222545 45.74715749 5.95952038 49.09126087 2.546875 52.50390625 C-6.41910118 54.0960051 -13.8744031 50.80400887 -21.953125 47.31640625 C-58.94160693 31.97314438 -105.91203323 24.9461318 -144.453125 38.50390625 C-156.04470151 43.30091268 -165.06659803 49.75410068 -170.6640625 61.2890625 C-174.70232105 72.62417436 -175.56006688 85.94118392 -170.7109375 97.1484375 C-162.02645885 113.41160715 -145.51511024 121.48550879 -128.890625 127.65625 C-127.35063843 128.23032341 -127.35063843 128.23032341 -125.77954102 128.81599426 C-112.51446188 133.68063058 -99.01950508 137.84311426 -85.53338623 142.043396 C-40.30845943 156.13115376 -40.30845943 156.13115376 -28.203125 162.37890625 C-27.54530029 162.71494873 -26.88747559 163.05099121 -26.2097168 163.3972168 C-1.99479164 176.02073516 16.45953386 194.98411916 24.984375 221.31640625 C32.82995421 248.18846257 29.86198313 279.30568501 16.6640625 304.03125 C12.51949191 310.99575391 7.76614948 317.3176925 2.546875 323.50390625 C1.82951172 324.42236328 1.82951172 324.42236328 1.09765625 325.359375 C-3.34356104 330.92044077 -8.84088647 335.17490684 -14.453125 339.50390625 C-15.22398437 340.10203125 -15.99484375 340.70015625 -16.7890625 341.31640625 C-58.32218819 371.93468321 -115.25590768 374.85303124 -164.453125 367.50390625 C-227.10473605 357.10986358 -227.10473605 357.10986358 -245.890625 336.87890625 C-249.23936127 331.78882712 -249.7612385 327.3176707 -249.75390625 321.31640625 C-249.75819138 320.53628174 -249.7624765 319.75615723 -249.76689148 318.95239258 C-249.7726162 317.30844083 -249.77314877 315.66446377 -249.76879883 314.02050781 C-249.76563512 311.51192933 -249.7891328 309.00452696 -249.81445312 306.49609375 C-249.81672602 304.89453273 -249.81742966 303.29296856 -249.81640625 301.69140625 C-249.825616 300.94544189 -249.83482574 300.19947754 -249.84431458 299.4309082 C-249.80464336 294.94565601 -249.21598893 292.0744614 -246.453125 288.50390625 C-242.80063077 286.34561421 -238.89239481 286.25561117 -234.78125 286.96484375 C-226.37416655 289.38910855 -218.29847396 292.92084392 -210.17407227 296.14257812 C-168.66604376 312.45857406 -115.3188616 319.70120414 -72.953125 302.69140625 C-59.93277093 296.73243413 -50.53504208 287.61464037 -45.36328125 274.203125 C-41.84661464 263.77386908 -42.11996594 251.40504881 -46.1328125 241.1484375 C-54.30254469 224.78480231 -71.42769245 217.29068475 -87.77734375 211.28515625 C-88.58011246 210.99016235 -89.38288116 210.69516846 -90.2099762 210.39123535 C-101.95853892 206.15473788 -113.94281834 202.62798525 -125.890625 199.00390625 C-170.34508098 185.49959488 -170.34508098 185.49959488 -183.390625 179.12890625 C-184.16656006 178.75443359 -184.94249512 178.37996094 -185.74194336 177.99414062 C-196.94897283 172.43758757 -206.41182708 165.14372558 -215.453125 156.50390625 C-216.37158203 155.68019531 -216.37158203 155.68019531 -217.30859375 154.83984375 C-230.33803875 142.73468433 -239.28041509 124.59005526 -243.453125 107.50390625 C-243.67742188 106.62476563 -243.90171875 105.745625 -244.1328125 104.83984375 C-249.662305 78.55581777 -243.99539253 50.8178566 -229.453125 28.50390625 C-226.65824521 24.62966057 -223.66034357 21.0425544 -220.453125 17.50390625 C-219.57011719 16.52679688 -218.68710937 15.5496875 -217.77734375 14.54296875 C-210.25168852 6.49781141 -201.79129173 0.2991371 -192.453125 -5.49609375 C-191.86225098 -5.86718262 -191.27137695 -6.23827148 -190.66259766 -6.62060547 C-141.67322665 -36.76470354 -46.08993774 -37.42258219 0 0 Z " fill="#242E3D" transform="translate(1192.453125,30.49609375)"/>
<path d="M0 0 C6.53890902 7.48714961 6.10091485 18.47177426 5.95458984 27.79052734 C5.94871857 28.4897229 5.94284729 29.18891846 5.9367981 29.90930176 C5.33472045 91.52220506 -21.51438872 156.7980566 -63.54541016 201.66552734 C-64.04234375 202.20177734 -64.53927734 202.73802734 -65.05126953 203.29052734 C-78.22829111 217.41449688 -78.22829111 217.41449688 -86.54541016 219.66552734 C-90.22087415 219.66552734 -92.29707394 219.35009882 -95.48291016 217.60302734 C-97.46981673 213.97984477 -97.02679963 209.55215641 -96.02764893 205.63635254 C-95.28701901 203.50616228 -94.47121957 201.42410142 -93.61572266 199.33740234 C-93.30980698 198.55899994 -93.0038913 197.78059753 -92.68870544 196.97860718 C-92.03360092 195.31518067 -91.3725642 193.6540801 -90.70608521 191.99517822 C-88.94862705 187.61771592 -87.23742096 183.22212289 -85.51806641 178.82958984 C-85.17438522 177.95539398 -84.83070404 177.08119812 -84.47660828 176.18051147 C-79.87058147 164.44627545 -75.63508549 152.58946405 -71.54541016 140.66552734 C-71.18898438 139.63427734 -70.83255859 138.60302734 -70.46533203 137.54052734 C-62.90975496 115.49994892 -55.42867867 91.66662696 -55.29541016 68.22802734 C-55.27478516 67.32503906 -55.25416016 66.42205078 -55.23291016 65.49169922 C-55.19151619 58.34606637 -56.1836567 52.72191418 -60.67041016 46.91552734 C-72.26077665 37.84480574 -88.46018312 36.82298071 -102.67041016 36.10302734 C-103.42322266 36.05984375 -104.17603516 36.01666016 -104.95166016 35.97216797 C-117.54848754 35.31303165 -130.14262884 35.66503744 -142.73291016 36.29052734 C-143.50490753 36.32754761 -144.27690491 36.36456787 -145.07229614 36.40270996 C-156.7210228 36.9832244 -168.30587576 37.98803714 -179.90478516 39.20458984 C-180.56698374 39.27376743 -181.22918232 39.34294502 -181.91144753 39.4142189 C-187.93262417 40.04468196 -193.9528552 40.68278909 -199.96835327 41.36553955 C-203.74169206 41.79334157 -207.51644196 42.20638478 -211.29150391 42.61865234 C-212.99237152 42.82151352 -212.99237152 42.82151352 -214.7276001 43.0284729 C-220.56159204 43.65557573 -225.07353222 43.93118621 -230.54541016 41.66552734 C-232.71298603 39.22700449 -232.54502855 37.68537094 -232.60791016 34.41552734 C-230.17302778 25.82182485 -222.77034599 20.98705811 -215.35791016 16.72802734 C-214.48352295 16.21788086 -213.60913574 15.70773437 -212.70825195 15.18212891 C-165.50172913 -11.83169066 -47.87060417 -40.7615973 0 0 Z " fill="#FF9900" transform="translate(1267.54541015625,491.33447265625)"/>
</svg>
