<?xml version="1.0" encoding="UTF-8"?>
<svg version="1.1" xmlns="http://www.w3.org/2000/svg" width="400" height="400">
<path d="M0 0 C1.58383385 1.35037091 3.1459204 2.72658533 4.6875 4.125 C5.57824219 4.92292969 6.46898437 5.72085938 7.38671875 6.54296875 C25.99144025 24.10976994 36.47234222 48.29889676 37.890625 73.7734375 C38.25668184 102.87495624 28.20117901 128.76264051 8.02734375 149.9140625 C-12.45320916 169.39924244 -37.45971094 177.79758208 -65.39794922 177.60009766 C-85.69169262 177.08077523 -108.26087285 170.31653417 -123.3125 156.125 C-118.92807474 150.87325074 -114.30407907 145.99277527 -109.4375 141.1875 C-108.74914062 140.50365234 -108.06078125 139.81980469 -107.3515625 139.11523438 C-105.67416489 137.44948536 -103.99446209 135.7861378 -102.3125 134.125 C-98.61463882 135.53018725 -95.18136034 137.21197828 -91.6875 139.0625 C-75.6074314 147.18174646 -58.53652433 148.03207329 -41.3125 143.125 C-23.03037085 136.96324536 -8.98291081 125.48508919 -0.3125 108.125 C7.08590445 90.18230741 8.22011403 71.50522469 1.6875 53.125 C-5.88427863 35.5686739 -18.51471994 22.81981229 -36.125 15.34375 C-54.04233048 8.49300599 -72.24531936 9.41747798 -89.85546875 16.5625 C-101.07261465 21.65119432 -108.71490694 29.42122992 -117.14453125 38.09375 C-117.99635986 38.96290039 -118.84818848 39.83205078 -119.72583008 40.72753906 C-121.43535 42.47723552 -123.13212772 44.23948297 -124.81518555 46.01464844 C-125.59804932 46.8193457 -126.38091309 47.62404297 -127.1875 48.453125 C-127.88617188 49.1843457 -128.58484375 49.91556641 -129.3046875 50.66894531 C-131.3125 52.125 -131.3125 52.125 -133.28613281 52.12036133 C-136.00638054 50.78416253 -137.73782774 49.03564535 -139.859375 46.87109375 C-140.70371094 46.01708984 -141.54804688 45.16308594 -142.41796875 44.28320312 C-143.29066406 43.38537109 -144.16335937 42.48753906 -145.0625 41.5625 C-145.95066406 40.66080078 -146.83882812 39.75910156 -147.75390625 38.83007812 C-149.94698315 36.60162902 -152.13276044 34.36648407 -154.3125 32.125 C-151.94814922 26.37903861 -146.89314909 22.37242058 -142.56689453 18.0637207 C-140.96884315 16.4687821 -139.38446176 14.86114491 -137.80078125 13.25195312 C-128.87707761 4.27068506 -119.39045841 -3.78780612 -108.0625 -9.625 C-107.3499707 -9.99568604 -106.63744141 -10.36637207 -105.90332031 -10.74829102 C-71.74017014 -27.93902557 -30.14280352 -23.22712866 0 0 Z " fill="#00AAEA" transform="translate(332.3125,166.875)"/>
<path d="M0 0 C0.67289063 0.56847656 1.34578125 1.13695312 2.0390625 1.72265625 C-0.32480472 7.14735966 -4.67264725 10.88274315 -8.7734375 15.03515625 C-9.58103516 15.88400391 -10.38863281 16.73285156 -11.22070312 17.60742188 C-12.00767578 18.40470703 -12.79464844 19.20199219 -13.60546875 20.0234375 C-14.32065674 20.75731689 -15.03584473 21.49119629 -15.77270508 22.24731445 C-17.9609375 23.72265625 -17.9609375 23.72265625 -20.53979492 23.54907227 C-23.7139661 22.46562269 -26.51463565 20.94920106 -29.4609375 19.34765625 C-45.35826635 11.16897286 -63.49378293 10.23535641 -80.52734375 15.4609375 C-89.72101255 18.83927086 -97.59219691 23.26610018 -104.9609375 29.72265625 C-105.57582031 30.25503906 -106.19070312 30.78742188 -106.82421875 31.3359375 C-119.57625146 43.18316966 -125.80064786 60.06938505 -127.24609375 77.078125 C-127.74738232 94.97194734 -121.43532704 112.50770651 -109.8984375 126.1640625 C-97.38061331 139.37483768 -79.97870897 147.40165125 -61.80249023 148.12744141 C-43.18808519 148.41014913 -25.95719168 142.33806222 -12.46875 129.25390625 C-11.29876744 128.07753034 -10.129606 126.90033762 -8.9609375 125.72265625 C-7.22985643 124.00321154 -5.49802108 122.28452604 -3.765625 120.56640625 C1.19010505 115.63905703 6.12128375 110.68786165 11.0390625 105.72265625 C16.29081176 110.10708151 21.17128723 114.73107718 25.9765625 119.59765625 C26.66041016 120.28601563 27.34425781 120.974375 28.04882812 121.68359375 C29.71457714 123.36099136 31.3779247 125.04069416 33.0390625 126.72265625 C31.4509825 130.55543162 29.01212453 133.03736945 26.12109375 135.9765625 C25.63191467 136.47425644 25.1427356 136.97195038 24.63873291 137.48472595 C23.05065093 139.09268951 21.45296763 140.69046529 19.8515625 142.28515625 C19.03448318 143.09992432 19.03448318 143.09992432 18.20089722 143.93115234 C-4.80649603 166.78314459 -28.73852383 178.97971838 -61.71533203 179.04174805 C-76.06263724 178.88746524 -89.04215614 176.06748748 -101.9609375 169.72265625 C-103.57935547 168.93375 -103.57935547 168.93375 -105.23046875 168.12890625 C-127.65106099 156.64455167 -144.52047524 137.40357702 -152.9609375 113.72265625 C-161.45871467 87.3003073 -160.34674446 59.39199415 -147.87548828 34.47558594 C-135.39067396 10.54580302 -114.49415818 -6.93207032 -88.9609375 -15.27734375 C-58.76777241 -23.7234494 -25.24346412 -19.41548758 0 0 Z " fill="#FFB400" transform="translate(187.9609375,165.27734375)"/>
<path d="M0 0 C0.63647461 0.20898926 1.27294922 0.41797852 1.92871094 0.63330078 C16.32221313 5.47343313 28.12558272 13.44933946 39 24 C39.68449219 24.61101562 40.36898437 25.22203125 41.07421875 25.8515625 C53.4566144 37.28520878 62.17458686 54.79825024 66 71 C66 72.32 66 73.64 66 75 C55.44 75 44.88 75 34 75 C32.35 71.04 30.7 67.08 29 63 C20.31977102 47.00813107 7.44012542 35.8833185 -9.95703125 30 C-29.03990367 24.57012659 -47.11785804 26.52315789 -64.46484375 35.95703125 C-68.6151386 38.31230998 -72.43486453 40.81568582 -76 44 C-76.6496875 44.55816406 -77.299375 45.11632812 -77.96875 45.69140625 C-84.27055352 51.4963368 -90.04015343 59.1665458 -92.7890625 67.34863281 C-93.65537436 69.83530549 -94.47022555 71.85238941 -96 74 C-99.09110661 75.47035401 -102.11293969 75.65822564 -105.5 75.875 C-107.29735362 76.06185843 -109.09424094 76.25325847 -110.890625 76.44921875 C-111.76267578 76.53478027 -112.63472656 76.6203418 -113.53320312 76.70849609 C-118.4757972 77.29256748 -123.22216961 78.63074373 -128 80 C-127.5395827 62.21114975 -118.52118012 44.23710056 -107 31 C-106.31164062 30.18015625 -105.62328125 29.3603125 -104.9140625 28.515625 C-79.53619233 -0.8692773 -36.87628581 -12.35625026 0 0 Z " fill="#00AAEA" transform="translate(221,60)"/>
</svg>
