<?xml version="1.0" encoding="UTF-8"?>
<svg version="1.1" xmlns="http://www.w3.org/2000/svg" width="100" height="100">
<path d="M0 0 C2.42775774 2.04653958 4.21724806 3.87199612 5.640625 6.71875 C6.31158203 6.10386719 6.31158203 6.10386719 6.99609375 5.4765625 C7.90294922 4.66832031 7.90294922 4.66832031 8.828125 3.84375 C9.41980469 3.31007813 10.01148438 2.77640625 10.62109375 2.2265625 C16.11599806 -1.87601596 22.02075585 -2.06979324 28.640625 -1.28125 C33.10653522 0.91110593 35.86198053 3.62329489 38.640625 7.71875 C39.62559816 13.50546734 39.47371025 18.96001447 36.953125 24.28125 C32.77869645 28.68132334 28.8064536 32.32560789 22.65234375 33.08984375 C15.21324426 33.23845091 11.0967877 32.93241658 5.640625 27.71875 C4.980625 26.72875 4.320625 25.73875 3.640625 24.71875 C3.08632813 25.21246094 2.53203125 25.70617187 1.9609375 26.21484375 C1.23648438 26.85550781 0.51203125 27.49617188 -0.234375 28.15625 C-0.95367187 28.79433594 -1.67296875 29.43242188 -2.4140625 30.08984375 C-6.56639142 33.56679387 -10.7515129 33.22259227 -16.0078125 33.2109375 C-21.22234841 32.44516649 -24.12496466 29.73450666 -27.359375 25.71875 C-29.48838078 21.46073845 -28.9478384 16.33026603 -28.359375 11.71875 C-26.22994458 6.55488122 -22.69583001 1.78381197 -17.54296875 -0.68359375 C-11.86411336 -2.23791374 -5.29869052 -2.87743459 0 0 Z M-17.359375 11.71875 C-18.6903066 15.11844811 -18.6903066 15.11844811 -18.359375 18.71875 C-16.46287949 21.86533666 -16.46287949 21.86533666 -13.359375 23.71875 C-10.17492847 23.89672389 -10.17492847 23.89672389 -7.359375 22.71875 C-6.699375 21.72875 -6.039375 20.73875 -5.359375 19.71875 C-8.329375 19.71875 -11.299375 19.71875 -14.359375 19.71875 C-13.369375 17.40875 -12.379375 15.09875 -11.359375 12.71875 C-6.409375 12.38875 -1.459375 12.05875 3.640625 11.71875 C3.640625 10.72875 3.640625 9.73875 3.640625 8.71875 C1.7534375 9.028125 1.7534375 9.028125 -0.171875 9.34375 C-3.7608508 9.93210669 -4.11011378 9.88492415 -7.359375 7.71875 C-11.96658392 6.99129596 -14.23987385 8.33929042 -17.359375 11.71875 Z M15.640625 10.71875 C13.17118971 14.42290293 13.17149411 16.34019505 13.640625 20.71875 C15.08211475 22.90422684 15.08211475 22.90422684 17.640625 23.71875 C21.46416929 23.65047242 23.8485363 23.22649917 27.078125 21.15625 C29.46702503 17.42956595 29.19797512 15.1078822 28.640625 10.71875 C27.02514299 8.58980376 27.02514299 8.58980376 24.640625 7.71875 C20.31911937 7.71875 19.06424663 8.28617674 15.640625 10.71875 Z " fill="#00ACD7" transform="translate(55.359375,37.28125)"/>
<path d="M0 0 C7.26 0 14.52 0 22 0 C21.67 0.99 21.34 1.98 21 3 C13.74 3 6.48 3 -1 3 C-0.67 2.01 -0.34 1.02 0 0 Z " fill="#00ACD7" transform="translate(4,48)"/>
<path d="M0 0 C5.94 0 11.88 0 18 0 C17.67 0.99 17.34 1.98 17 3 C11.06 3 5.12 3 -1 3 C-0.67 2.01 -0.34 1.02 0 0 Z " fill="#00AED7" transform="translate(10,44)"/>
<path d="M0 0 C3.63 0 7.26 0 11 0 C11 0.99 11 1.98 11 3 C7.04 3 3.08 3 -1 3 C-0.67 2.01 -0.34 1.02 0 0 Z " fill="#00ADD7" transform="translate(14,52)"/>
</svg>
