<?xml version="1.0" encoding="UTF-8"?>
<svg version="1.1" xmlns="http://www.w3.org/2000/svg" width="791" height="769">
<path d="M0 0 C0.72793762 0.34326324 1.45587524 0.68652649 2.20587158 1.04019165 C14.36294872 6.77295346 26.45896717 12.62704152 38.53726196 18.52362061 C48.04179429 23.16201113 57.57721568 27.70883547 67.1875 32.125 C79.38095939 37.72877601 91.43561658 43.59642951 103.48669434 49.49847412 C113.7558844 54.52546601 124.04568726 59.48039273 134.4375 64.25 C145.68931685 69.41432973 156.81952733 74.80492132 167.9375 80.25 C179.09728939 85.71549289 190.27051973 91.12418009 201.5625 96.3125 C211.95876314 101.10526376 222.31893739 105.96969703 232.63592529 110.93087769 C234.27230491 111.71592339 235.91048608 112.49722683 237.55059814 113.27444458 C254.55538677 121.34078493 266.88637075 129.85196651 274.4375 147.75 C276.0820409 152.96261611 277.31389118 158.24508213 278.5234375 163.5703125 C278.90029331 165.17761613 279.2783809 166.78463134 279.65756226 168.39138794 C280.71025376 172.87242966 281.7424567 177.35797383 282.77043152 181.84474182 C283.68990509 185.84929037 284.61935222 189.85150421 285.54814816 193.853899 C288.78839407 207.8227919 291.98854054 221.80079537 295.18358994 235.7800827 C297.62236007 246.4488301 300.06484504 257.11672843 302.50706291 267.78468704 C303.1476607 270.58296747 303.78808554 273.3812874 304.42837715 276.17963791 C309.08835904 296.54464518 313.77822601 316.90259189 318.488976 337.25591362 C319.75677398 342.73402458 321.02305251 348.21248491 322.28826904 353.69119263 C322.4653016 354.45777085 322.64233417 355.22434907 322.82473135 356.01415694 C323.53502646 359.09002273 324.2452607 362.16590255 324.95530891 365.24182534 C327.03974845 374.27155149 329.12894702 383.3001424 331.22623378 392.32689357 C332.54394616 398.00041206 333.8555073 403.67533106 335.16242284 409.35134625 C335.91829247 412.63316646 336.6778461 415.914017 337.44305611 419.19367981 C338.27734747 422.7710933 339.10118137 426.3507663 339.92260742 429.93115234 C340.16495935 430.95896757 340.40731129 431.9867828 340.65700722 433.04574394 C344.25812054 448.89722513 344.82771829 464.97417236 335.890625 479.21484375 C330.67368542 486.62780277 324.74010776 493.51563594 318.953125 500.484375 C315.86495819 504.21354508 312.85043474 507.99306383 309.875 511.8125 C303.30145266 520.24244901 296.53099069 528.51002606 289.77148438 536.79101562 C283.64971276 544.29396251 277.56835694 551.82093881 271.60766602 559.45263672 C266.95840214 565.39134817 262.19105132 571.23242377 257.42578125 577.078125 C255.08028467 579.95612454 252.75148453 582.84655836 250.4375 585.75 C247.58527448 589.32879245 244.70397524 592.88262718 241.8125 596.4296875 C236.68022548 602.726228 231.60164533 609.05742843 226.60229492 615.45996094 C222.55885016 620.62540869 218.41928473 625.70967735 214.27124023 630.79125977 C210.79856518 635.05310909 207.37923694 639.35131101 204 643.6875 C199.32036684 649.68844134 194.49391321 655.55963637 189.64013672 661.42016602 C185.43488913 666.50887383 181.32612044 671.66349234 177.26513672 676.86767578 C173.86634489 681.21928273 170.39497619 685.50545534 166.88671875 689.76953125 C164.4437156 692.74243621 162.01158046 695.72383265 159.58447266 698.7097168 C158.44872794 700.10677038 157.31169164 701.50277499 156.17333984 702.89770508 C153.11182751 706.6559971 150.12990294 710.45977279 147.1875 714.3125 C137.62071664 726.24095791 125.20875105 731.32549223 110.4375 733.75 C106.0398666 734.11965444 101.68054336 734.15692894 97.26916504 734.13095093 C95.39781379 734.13797089 95.39781379 734.13797089 93.48865747 734.14513266 C90.06965855 734.15493876 86.65116308 734.1515319 83.23219609 734.14217401 C79.5279651 734.13533054 75.82377519 734.14589074 72.11955261 734.15411377 C64.88032398 734.1673973 57.64118909 734.1645975 50.40195692 734.15587585 C44.51424545 734.1490784 38.6265601 734.14819145 32.73884583 734.1514473 C31.89829963 734.151907 31.05775343 734.15236669 30.19173613 734.15284032 C28.48375284 734.15379958 26.77576955 734.15477222 25.06778628 734.1557581 C9.08230353 734.16429623 -6.90312746 734.15450268 -22.88860172 734.138357 C-36.58087106 734.12495525 -50.27306407 734.12728379 -63.96533203 734.14111328 C-79.8967656 734.15719703 -95.82815389 734.1634724 -111.75959444 734.15427649 C-113.46101156 734.15332092 -115.16242869 734.15237781 -116.86384583 734.1514473 C-118.11927658 734.15075306 -118.11927658 734.15075306 -119.40006956 734.15004479 C-125.27520297 734.14746328 -131.15030747 734.15180774 -137.0254364 734.15888596 C-144.19314474 734.16733229 -151.36075462 734.16495535 -158.5284518 734.14904372 C-162.179869 734.14120291 -165.83112253 734.13799706 -169.48253822 734.14799118 C-173.45317144 734.158694 -177.42354132 734.14584584 -181.39416504 734.13095093 C-183.0987797 734.14098918 -183.0987797 734.14098918 -184.83783102 734.15123022 C-201.26721085 734.03240448 -215.98850869 729.92319846 -228.0625 718.4296875 C-232.47722369 713.69765554 -236.36732886 708.58166636 -240.27490234 703.4296875 C-242.11065835 701.03492047 -244.01904117 698.7038056 -245.9375 696.375 C-254.18929928 686.34022267 -262.40175311 676.27989616 -270.39794922 666.03979492 C-274.44122509 660.87436033 -278.58078829 655.7902332 -282.72875977 650.70874023 C-286.20143482 646.44689091 -289.62076306 642.14868899 -293 637.8125 C-297.68315104 631.80704749 -302.51331655 625.93149691 -307.37084961 620.06665039 C-311.45501734 615.12465665 -315.44141521 610.11774396 -319.37890625 605.05859375 C-323.02735231 600.38900827 -326.78268942 595.81363521 -330.5625 591.25 C-335.27553848 585.55855537 -339.90703001 579.81675353 -344.44921875 573.98828125 C-347.93103869 569.52910835 -351.48492356 565.13260975 -355.0625 560.75 C-359.09460829 555.81057874 -363.08060853 550.84180764 -367 545.8125 C-371.68315104 539.80704749 -376.51331655 533.93149691 -381.37084961 528.06665039 C-385.45302889 523.12706275 -389.43944728 518.12403296 -393.37231445 513.06518555 C-397.07521416 508.32192478 -400.90529438 503.69113207 -404.75 499.0625 C-417.25531218 483.93920922 -427.56674269 470.22373264 -427.5625 449.75 C-425.81954566 435.76469484 -422.20111535 421.98109766 -419.015625 408.2734375 C-418.45388707 405.84105569 -417.89256389 403.40857807 -417.33161926 400.97601318 C-416.12714974 395.75639745 -414.92013614 390.53738063 -413.71072388 385.31890869 C-411.78791926 377.02199993 -409.87082103 368.72377839 -407.95483398 360.42529297 C-407.45982625 358.28145233 -406.96481233 356.13761312 -406.46979672 353.99377429 C-406.13596432 352.54798545 -405.80214063 351.1021946 -405.46832556 349.65640175 C-404.44874518 345.24068097 -403.42864292 340.8250811 -402.40815753 336.40956938 C-397.41408093 314.80033678 -392.44469151 293.18552876 -387.49148893 271.56689215 C-386.78211492 268.47099305 -386.07252164 265.37514423 -385.36291611 262.27929819 C-382.44388369 249.54421831 -379.5248993 236.80912793 -376.61071777 224.07293701 C-375.1646079 217.75283391 -373.71684352 211.43311236 -372.26714867 205.11383057 C-371.52852783 201.8938475 -370.79095548 198.67363421 -370.05506325 195.45302582 C-367.23297449 183.10343853 -364.36855904 170.76553996 -361.34155273 158.46435547 C-361.10335595 157.48262926 -360.86515917 156.50090305 -360.6197443 155.48942757 C-356.79559814 140.13805751 -349.46113456 129.08560466 -335.86157227 120.64868164 C-329.4551548 116.96166109 -322.79148522 113.80918417 -316.125 110.625 C-314.55873429 109.87066392 -312.99265643 109.11593768 -311.42675781 108.36083984 C-301.15903942 103.42069998 -290.83747777 98.60429431 -280.48461914 93.84521484 C-269.41159252 88.73216754 -258.46621338 83.36573905 -247.51330566 78.00152588 C-236.16049577 72.44407852 -224.76562905 67.01505091 -213.27734375 61.7421875 C-203.13092754 57.06284375 -193.09669001 52.16431324 -183.0625 47.25 C-170.86068282 41.27407652 -158.62596972 35.40992784 -146.27734375 29.7421875 C-136.13090453 25.06283314 -126.09703813 20.16364206 -116.0625 15.25 C-104.37650818 9.53032772 -92.67496093 3.85631373 -80.875 -1.625 C-79.79089844 -2.12966797 -78.70679688 -2.63433594 -77.58984375 -3.15429688 C-47.11869966 -17.21937787 -29.53776076 -13.97617046 0 0 Z " fill="#326CE5" transform="translate(437.5625,24.25)"/>
<path d="M0 0 C5.28073816 2.7606462 8.07619529 6.76764838 9.92578125 12.31640625 C10.56325227 20.52997515 9.72350735 28.29301677 8.42578125 36.37890625 C7.25368196 43.87238599 6.57334708 51.2289332 6.48828125 58.81640625 C6.45541016 60.13330444 6.45541016 60.13330444 6.421875 61.47680664 C6.4386884 66.84816154 7.16253304 69.25742144 10.92578125 73.31640625 C11.17578125 77.12890625 11.17578125 77.12890625 10.92578125 80.31640625 C11.65788818 80.36321533 12.38999512 80.41002441 13.14428711 80.45825195 C20.3967868 80.98327528 27.38006511 81.9871718 34.48828125 83.50390625 C35.52041748 83.72240234 36.55255371 83.94089844 37.6159668 84.16601562 C51.2761705 87.15461269 64.35033814 91.16725707 76.92578125 97.31640625 C78.18186374 97.87629327 79.43983505 98.4319536 80.69921875 98.984375 C104.38246038 109.50623415 124.7724441 124.95000176 142.92578125 143.31640625 C146.1756126 142.22855657 146.1756126 142.22855657 148.92578125 140.31640625 C150.25816107 140.23610657 151.59187011 140.17753843 152.92578125 140.12890625 C162.99041531 139.03667645 169.98279558 130.65504698 176.67578125 123.75390625 C177.49949219 122.91666016 178.32320312 122.07941406 179.171875 121.21679688 C180.74765013 119.6143782 182.3207265 118.00929952 183.890625 116.40112305 C198.25483136 101.68711656 198.25483136 101.68711656 206.86328125 101.00390625 C211.50985298 101.15238693 214.99939231 102.41084314 218.37109375 105.74609375 C221.43201879 109.2617848 222.78294405 111.8594668 223.23828125 116.50390625 C222.60017877 124.28875647 218.97975414 128.63508622 213.18652344 133.56787109 C209.60973662 136.33428008 205.76423489 138.47079963 201.80078125 140.62890625 C186.17330274 149.40893995 186.17330274 149.40893995 172.92578125 161.31640625 C172.5643617 163.64555448 172.228786 165.97894103 171.92578125 168.31640625 C169.86328125 170.25390625 169.86328125 170.25390625 167.92578125 171.31640625 C168.5372167 174.18944003 169.41896074 176.44200999 170.89453125 178.9765625 C171.29639648 179.6778125 171.69826172 180.3790625 172.11230469 181.1015625 C172.54575195 181.85308594 172.97919922 182.60460937 173.42578125 183.37890625 C183.86463654 201.88997383 191.64477426 220.40788051 196.67578125 241.06640625 C196.87461914 241.88093262 197.07345703 242.69545898 197.27832031 243.53466797 C197.87839392 246.12074847 198.41611145 248.71098906 198.92578125 251.31640625 C199.21159058 252.76551392 199.21159058 252.76551392 199.50317383 254.24389648 C201.28614312 264.71992631 201.19592684 275.15264874 201.1315918 285.7512207 C201.11313499 288.90388957 201.11108409 292.05626665 201.11132812 295.20898438 C201.10641859 297.22526295 201.10059275 299.24153956 201.09375 301.2578125 C201.09263718 302.19428116 201.09152435 303.13074982 201.09037781 304.09559631 C201.05979761 308.29155216 200.99541323 312.22726454 199.92578125 316.31640625 C200.79203125 316.52265625 201.65828125 316.72890625 202.55078125 316.94140625 C205.92578125 318.31640625 205.92578125 318.31640625 208.55078125 321.25390625 C216.73815582 329.92661488 235.1591294 329.17146172 246.54858398 329.60327148 C256.1974961 329.99163778 264.88923238 330.87028628 272.11328125 337.87890625 C275.36157929 342.03859727 275.71297262 345.65537519 275.35546875 350.83203125 C274.48095507 355.88831033 271.75411312 359.05106436 267.92578125 362.31640625 C262.63178367 365.34154773 256.90200716 365.00864821 251.12109375 363.6640625 C244.401705 361.67218263 237.86475392 359.19963578 231.30078125 356.75390625 C217.04006772 350.99278527 217.04006772 350.99278527 201.92578125 350.31640625 C200.93578125 350.97640625 199.94578125 351.63640625 198.92578125 352.31640625 C196.59378737 352.39545689 194.25745503 352.40439394 191.92578125 352.31640625 C191.72533203 352.83847656 191.52488281 353.36054688 191.31835938 353.8984375 C186.76077591 365.7006151 181.88377916 377.15256324 175.92578125 388.31640625 C175.3121875 389.48429687 174.69859375 390.6521875 174.06640625 391.85546875 C158.2882933 420.73854328 134.53727748 443.4979605 107.92578125 462.31640625 C107.28511719 462.77144531 106.64445312 463.22648437 105.984375 463.6953125 C102.1942917 466.31640625 102.1942917 466.31640625 99.92578125 466.31640625 C100.26351563 467.03183594 100.60125 467.74726562 100.94921875 468.484375 C102.02112894 471.59291454 101.88969119 473.39094236 101.55078125 476.62890625 C101.33024816 489.43557796 110.94996535 501.27123136 117.92578125 511.31640625 C128.83881024 527.72960185 128.83881024 527.72960185 127.92578125 537.31640625 C126.12560828 542.61103265 122.88745028 546.69650145 117.92578125 549.31640625 C112.64667788 550.32778745 108.39812691 550.02531342 103.55078125 547.69140625 C93.93391792 538.99043467 91.33275538 527.99502284 87.9609375 515.75 C85.9718378 509.15219381 83.25282994 502.82241172 80.11328125 496.69140625 C78.92578125 494.31640625 78.92578125 494.31640625 78.92578125 492.31640625 C78.18328125 492.02765625 77.44078125 491.73890625 76.67578125 491.44140625 C75.76828125 491.07015625 74.86078125 490.69890625 73.92578125 490.31640625 C73.20390625 490.06890625 72.48203125 489.82140625 71.73828125 489.56640625 C69.06402925 487.72209452 68.84448309 485.34367047 67.92578125 482.31640625 C66.76046875 482.76371094 65.59515625 483.21101563 64.39453125 483.671875 C46.0377622 490.5122707 26.65796615 495.38841629 6.98828125 495.5546875 C5.56444626 495.56944626 5.56444626 495.56944626 4.11184692 495.58450317 C-35.25946165 495.90876348 -35.25946165 495.90876348 -52.07421875 491.31640625 C-53.12303223 491.03249023 -54.1718457 490.74857422 -55.25244141 490.45605469 C-61.46278283 488.74589552 -67.63512121 486.93469125 -73.78198242 485.0090332 C-75.86809006 484.37869053 -77.95538974 483.82425499 -80.07421875 483.31640625 C-80.63109375 484.26515625 -81.18796875 485.21390625 -81.76171875 486.19140625 C-84.26168965 489.56974531 -85.31409236 489.90635885 -89.07421875 491.31640625 C-98.15276281 501.25786142 -102.08572434 517.90093865 -105.51171875 530.62890625 C-107.51677429 537.33856137 -110.55714098 544.26228012 -116.82421875 547.87890625 C-117.89671875 548.35328125 -118.96921875 548.82765625 -120.07421875 549.31640625 C-120.73421875 549.64640625 -121.39421875 549.97640625 -122.07421875 550.31640625 C-127.01830076 550.80112017 -130.38556564 550.30054645 -134.49609375 547.625 C-138.327397 544.448053 -139.77386921 541.32534797 -140.48828125 536.546875 C-141.01969416 525.65291043 -136.19364019 518.68108081 -130.0390625 510.15625 C-126.4212994 504.92739557 -123.21987117 499.44885142 -120.03417969 493.94921875 C-119.25668097 492.62675908 -118.44060976 491.32702751 -117.61328125 490.03515625 C-114.57830723 484.95534158 -114.80433888 480.29294487 -115.12890625 474.46484375 C-115.06951106 471.04537762 -114.30348887 468.48963841 -113.07421875 465.31640625 C-113.77160156 465.07148437 -114.46898437 464.8265625 -115.1875 464.57421875 C-129.47282821 458.3497591 -141.88915987 445.88785879 -153.07421875 435.31640625 C-154.36005859 434.11177734 -154.36005859 434.11177734 -155.671875 432.8828125 C-162.54879198 426.24566125 -168.36175594 418.95075433 -174.07421875 411.31640625 C-174.70070313 410.48496094 -175.3271875 409.65351562 -175.97265625 408.796875 C-186.2922904 394.57709742 -204.07421875 369.67175283 -204.07421875 351.31640625 C-204.66589844 351.41179687 -205.25757813 351.5071875 -205.8671875 351.60546875 C-210.78840374 352.29588408 -213.44820272 352.16681266 -218.07421875 350.31640625 C-225.07201972 350.72844556 -231.25193189 352.3767419 -237.88671875 354.56640625 C-238.85287109 354.87852051 -239.81902344 355.19063477 -240.81445312 355.51220703 C-246.90354611 357.50948686 -252.8126569 359.68989454 -258.63671875 362.37109375 C-264.73072895 364.73447591 -272.82888037 365.7261486 -279.1328125 363.6328125 C-283.48048858 361.37950081 -286.06711901 358.73202568 -288.07421875 354.31640625 C-288.82955149 349.09137254 -288.73028236 344.79254938 -286.57421875 339.94140625 C-278.07725249 331.01959167 -267.88689689 330.21052167 -256.13671875 329.37890625 C-248.71275339 328.77714148 -241.31810929 328.10087573 -233.94921875 327.00390625 C-232.85879272 326.86384155 -232.85879272 326.86384155 -231.74633789 326.72094727 C-226.69982862 325.90974054 -224.35001406 324.16112396 -221.07421875 320.31640625 C-217.93291954 317.55587058 -217.49332561 317.31640625 -213.07421875 317.31640625 C-213.2343042 316.36564209 -213.39438965 315.41487793 -213.55932617 314.43530273 C-214.22202661 309.76570215 -214.27251617 305.12416781 -214.3125 300.4140625 C-214.32732674 298.9944648 -214.32732674 298.9944648 -214.342453 297.54618835 C-214.67372723 257.59811383 -214.67372723 257.59811383 -210.07421875 240.31640625 C-209.79513672 239.26163086 -209.51605469 238.20685547 -209.22851562 237.12011719 C-202.83587157 213.67363606 -193.1695199 191.79244852 -180.07421875 171.31640625 C-181.03593994 170.88642334 -181.03593994 170.88642334 -182.01708984 170.44775391 C-184.07421875 169.31640625 -184.07421875 169.31640625 -184.98828125 167.21484375 C-185.22289062 166.38210938 -185.4575 165.549375 -185.69921875 164.69140625 C-190.54050178 151.87300913 -208.1618603 144.97181715 -219.43359375 138.33984375 C-226.45712883 134.09079905 -232.85343908 129.12117931 -236.07421875 121.31640625 C-236.79373126 116.71487274 -236.50759532 113.19982772 -234.44921875 109.00390625 C-231.04868956 105.15593901 -228.55580522 102.72705394 -223.3359375 101.86328125 C-215.51418532 101.42597871 -210.88797764 103.1779297 -205.07421875 108.31640625 C-200.67419053 112.35907178 -196.62010866 116.63234021 -192.76171875 121.19140625 C-189.70448626 124.74982439 -186.39146512 127.9500784 -182.94921875 131.12890625 C-182.44608154 131.59731934 -181.94294434 132.06573242 -181.42456055 132.54833984 C-177.09975562 136.48515816 -173.49056758 139.5668543 -167.51171875 139.81640625 C-163.85839273 140.10258345 -161.75450747 140.63611753 -159.07421875 143.31640625 C-155.64377744 141.85060247 -153.56046347 139.95509925 -151.01171875 137.25390625 C-146.0173687 132.16210547 -140.70282279 127.69022595 -135.07421875 123.31640625 C-134.51460449 122.88038086 -133.95499023 122.44435547 -133.37841797 121.99511719 C-124.68682569 115.27400131 -115.74683506 109.48228134 -106.02880859 104.35742188 C-104.18895533 103.37751501 -102.37578509 102.36001931 -100.5625 101.33203125 C-77.7804202 88.79485103 -50.01461578 81.17535979 -24.07421875 80.31640625 C-24.15671875 79.28515625 -24.23921875 78.25390625 -24.32421875 77.19140625 C-24.07421875 73.31640625 -24.07421875 73.31640625 -22.1015625 70.4453125 C-19.38451734 66.25195378 -19.50645895 63.13960669 -19.63671875 58.25390625 C-19.6521875 56.95138916 -19.6521875 56.95138916 -19.66796875 55.62255859 C-19.84788033 48.24221533 -20.84999117 41.0652555 -21.99072266 33.78222656 C-25.06876209 13.81067401 -25.06876209 13.81067401 -20.2890625 5.8671875 C-15.10601676 -0.74911204 -7.95906153 -2.62304288 0 0 Z " fill="#FDFDFE" transform="translate(402.07421875,109.68359375)"/>
<path d="M0 0 C7.7446252 1.36273712 15.46841264 2.67574674 23.26953125 3.6640625 C27.06662395 4.15217205 30.77542639 4.63614109 34.4765625 5.62109375 C39.82174347 7.01998531 45.23414623 7.82246258 50.6875 8.6875 C52.84162222 9.02956545 54.99529589 9.37447164 57.1484375 9.72265625 C58.09251465 9.87226807 59.0365918 10.02187988 60.00927734 10.17602539 C62.3125 10.625 62.3125 10.625 64.3125 11.625 C62.42868063 18.78198901 59.84879915 25.16053775 56.375 31.6875 C55.89482422 32.59363037 55.41464844 33.49976074 54.91992188 34.43334961 C47.41834146 48.27318321 38.29015695 60.37918655 27.3125 71.625 C26.62285156 72.37652344 25.93320312 73.12804687 25.22265625 73.90234375 C20.38624597 79.03580802 15.01687624 83.33681079 9.4375 87.625 C8.68710449 88.2017749 7.93670898 88.7785498 7.16357422 89.37280273 C1.70224684 93.49508439 1.70224684 93.49508439 -1.6875 94.625 C-6.88367964 82.27992483 -12.05764896 69.92574606 -17.21044922 57.5625 C-18.80600406 53.73484962 -20.40649241 49.9093364 -22.01220703 46.0859375 C-23.79599342 41.83653826 -25.56552368 37.58147978 -27.32418823 33.32162476 C-27.97882637 31.74242774 -28.6383753 30.16525677 -29.30300903 28.59024048 C-30.22837899 26.39485151 -31.13569289 24.19279675 -32.0390625 21.98828125 C-32.31005264 21.35668091 -32.58104279 20.72508057 -32.86024475 20.07434082 C-34.77075976 15.33138659 -35.04578405 11.65112917 -34.6875 6.625 C-32.9095648 3.00074748 -31.3386754 1.09012529 -28.0625 -1.25 C-19.00029029 -4.27073657 -9.1373744 -1.63874322 0 0 Z " fill="#326CE5" transform="translate(486.6875,442.375)"/>
<path d="M0 0 C5.88491756 4.18971437 11.12435298 8.79560061 16.3125 13.8125 C21.9197123 19.17119489 27.58566844 24.23944802 33.66015625 29.0625 C36.62152326 31.51465031 39.24225521 34.21751253 41.9140625 36.9765625 C44.28565555 39.27709658 46.79306409 41.31379066 49.375 43.375 C66.41771968 57.06622251 66.41771968 57.06622251 67.3359375 63.26953125 C67.42434609 69.0249306 67.08974503 72.5956592 63 77 C57.49761117 80.58012572 51.96421729 82.48331915 45.6875 84.3125 C44.69202148 84.60954834 43.69654297 84.90659668 42.67089844 85.21264648 C33.97301172 87.78026589 25.21617885 90.12058619 16.44775391 92.43359375 C8.96589422 94.42185888 1.60470402 96.66438374 -5.75219727 99.0690918 C-11.42743899 100.89536759 -17.07818554 102.228168 -23 103 C-27.23386311 83.05003701 -24.24426929 59.19534633 -18 40 C-17.71382812 38.97132813 -17.42765625 37.94265625 -17.1328125 36.8828125 C-13.47016809 23.88528674 -8.12340413 10.85541318 0 0 Z " fill="#336CE5" transform="translate(254,311)"/>
<path d="M0 0 C-0.64732259 17.41841946 -1.3163698 34.83612117 -2.13745117 52.24731445 C-2.25553306 54.82090668 -2.36670554 57.394824 -2.47143555 59.96899414 C-2.62682611 63.76285605 -2.80519151 67.55504259 -2.98828125 71.34765625 C-3.03012039 72.48832047 -3.07195953 73.62898468 -3.11506653 74.80421448 C-3.4809321 81.77175887 -4.14148598 89.48298166 -9.61235046 94.46965027 C-14.01012917 97.5208598 -18.81709269 97.74987899 -24 97 C-26.78420247 95.81118028 -29.04354312 94.14968645 -31.4375 92.3125 C-32.11578857 91.81991699 -32.79407715 91.32733398 -33.49291992 90.81982422 C-34.93710118 89.76828231 -36.37457765 88.7074785 -37.80566406 87.63818359 C-40.70713675 85.47208638 -43.64253659 83.35472371 -46.57910156 81.23657227 C-48.07780774 80.15513813 -49.57453192 79.07095234 -51.06933594 77.98413086 C-57.31883047 73.44943666 -63.68024537 69.09346043 -70.06958008 64.7590332 C-76.52148749 60.36631653 -82.82892212 55.79901178 -89.09375 51.14453125 C-91.02901561 49.71649252 -92.99882864 48.33411424 -95 47 C-87.9758849 30.474845 -59.11140965 17.17333537 -43.6953125 10.76953125 C-30.32729784 5.52849523 -14.49389563 -0.1250072 0 0 Z " fill="#336CE5" transform="translate(375,233)"/>
<path d="M0 0 C3.28488996 3.05087712 5.00316263 6.63842279 6.9375 10.625 C7.27201172 11.29917969 7.60652344 11.97335937 7.95117188 12.66796875 C8.98630089 14.77013827 9.99772666 16.88197933 11 19 C11.33652588 19.70592285 11.67305176 20.4118457 12.01977539 21.13916016 C24.06168838 47.19945267 25.60957523 74.76259954 25 103 C13.51067081 100.23736073 2.15269686 97.09948897 -9.19628906 93.81054688 C-16.76341008 91.62290827 -24.33765574 89.4608173 -31.92495728 87.34423828 C-34.60884921 86.59344691 -37.29020012 85.83383046 -39.97119141 85.07275391 C-41.33700126 84.68717149 -42.70389348 84.30540489 -44.07177734 83.92724609 C-46.09247705 83.36771917 -48.10889492 82.79458258 -50.125 82.21875 C-51.89230469 81.7227832 -51.89230469 81.7227832 -53.6953125 81.21679688 C-58.12367383 79.58625958 -61.69217318 77.4386095 -64.875 73.9375 C-66.67267878 69.24356097 -66.95880495 64.93992986 -66 60 C-64.14589885 56.76936921 -61.76986432 54.46386026 -59 52 C-58.37480469 51.42894531 -57.74960937 50.85789062 -57.10546875 50.26953125 C-55.80380407 49.11102318 -54.4880611 47.96817908 -53.16015625 46.83984375 C-50.77611341 44.80931178 -48.44921806 42.72370708 -46.125 40.625 C-45.28453125 39.86703125 -44.4440625 39.1090625 -43.578125 38.328125 C-42.72734375 37.55984375 -41.8765625 36.7915625 -41 36 C-31.5078125 27.42826705 -31.5078125 27.42826705 -27.125 23.625 C-23.69667378 20.6408294 -20.34393811 17.57796075 -17 14.5 C-4.48823529 2.99215686 -4.48823529 2.99215686 0 0 Z " fill="#336CE5" transform="translate(536,311)"/>
<path d="M0 0 C7.91376928 5.60558657 12.22839139 15.91511076 16.625 24.3125 C21.24801615 33.02130486 25.94181156 41.67703985 30.8125 50.25 C31.34528564 51.189646 31.87807129 52.12929199 32.42700195 53.09741211 C34.87543615 57.40867797 37.33675201 61.71217874 39.8125 66.0078125 C40.45094849 67.12325439 40.45094849 67.12325439 41.10229492 68.26123047 C41.88334884 69.62543559 42.66960496 70.98668158 43.4621582 72.34423828 C45.07491039 75.16760982 46 76.81396802 46 80.125 C43.62949304 80.85003575 41.25663675 81.56454174 38.87890625 82.265625 C37.1086531 82.79405878 35.34389648 83.34192888 33.58984375 83.921875 C4.3040741 93.01856415 -30.323413 89.32918841 -59 80.125 C-57.68601607 75.82225263 -56.02216512 72.07051425 -53.83203125 68.14453125 C-53.19330078 66.993479 -52.55457031 65.84242676 -51.89648438 64.65649414 C-51.20193019 63.41676932 -50.50726603 62.17710611 -49.8125 60.9375 C-49.09523977 59.64926504 -48.37844987 58.3607681 -47.66210938 57.07202148 C-46.1817874 54.41049427 -44.69867796 51.75054963 -43.21337891 49.09179688 C-41.09609483 45.30020618 -38.98971987 41.5026522 -36.88671875 37.703125 C-33.79270854 32.11355787 -30.68460496 26.53196054 -27.57128906 20.953125 C-26.18879896 18.46481465 -24.82128346 15.96920602 -23.4609375 13.46875 C-22.76581775 12.20822702 -22.07052669 10.94779848 -21.375 9.6875 C-20.82585937 8.67816406 -20.27671875 7.66882813 -19.7109375 6.62890625 C-14.80978506 -0.54378488 -8.25714577 -2.40833418 0 0 Z " fill="#336CE5" transform="translate(402,474.875)"/>
<path d="M0 0 C3.46236126 2.39067801 5.74528805 5.0530761 7.625 8.8125 C8.08760024 15.16042724 6.96121217 19.51832325 4.43359375 25.296875 C4.09650391 26.09901932 3.75941406 26.90116364 3.41210938 27.72761536 C2.30870003 30.34502576 1.18574241 32.95354738 0.0625 35.5625 C-0.70641881 37.3769208 -1.47389905 39.19195186 -2.23999023 41.00756836 C-3.81888938 44.74529861 -5.40483785 48.47991675 -6.99609375 52.21240234 C-10.36072922 60.11610532 -13.65081643 68.05071281 -16.94430542 75.98425293 C-18.52286852 79.7840573 -20.10706617 83.5815078 -21.69140625 87.37890625 C-22.21688157 88.63875187 -22.74235396 89.89859872 -23.26782227 91.15844727 C-23.63319092 92.03428467 -23.99855957 92.91012207 -24.375 93.8125 C-33.18802311 93.8125 -40.96971355 84.56131366 -47.1640625 78.8359375 C-48.92165377 77.22739991 -50.69375138 75.72324626 -52.5625 74.25 C-69.07988597 59.93493216 -86.57289878 34.31090688 -91.375 12.8125 C-74.97581804 9.28655756 -58.51964018 6.47305094 -41.94091797 3.95654297 C-33.42268671 2.65612222 -24.98153694 1.20434237 -16.5534668 -0.59570312 C-10.70320628 -1.68495971 -5.64093352 -1.98477291 0 0 Z " fill="#336CE5" transform="translate(331.375,441.1875)"/>
<path d="M0 0 C33.5826482 4.14892054 65.22777452 17.86143484 90.01171875 41.1875 C92.07099988 43.15610321 92.07099988 43.15610321 95 45 C95 45.66 95 46.32 95 47 C92.72093555 48.71159887 90.43642781 50.30399013 88.0625 51.875 C86.58263883 52.87266852 85.1034948 53.87140146 83.625 54.87109375 C82.85800781 55.38784668 82.09101563 55.90459961 81.30078125 56.43701172 C77.68852563 58.89092306 74.12466505 61.41165397 70.5625 63.9375 C69.85875244 64.43556152 69.15500488 64.93362305 68.42993164 65.44677734 C67.00009049 66.45881516 65.57048429 67.47118501 64.14111328 68.48388672 C59.89800302 71.48841519 55.64960731 74.48548123 51.39941406 77.47998047 C47.7115884 80.07958127 44.0319337 82.68980149 40.36328125 85.31640625 C39.60144531 85.85974609 38.83960938 86.40308594 38.0546875 86.96289062 C36.60302105 87.99853071 35.15364361 89.03738999 33.70703125 90.08007812 C22.99266685 97.70778481 22.99266685 97.70778481 16.0234375 97.4140625 C11.27191617 96.44174346 8.0978791 93.64411965 5.46069336 89.69482422 C3.3148899 84.26701383 3.31282487 78.99543741 3.0859375 73.203125 C2.99598007 71.31071075 2.99598007 71.31071075 2.90420532 69.38006592 C2.74694037 66.01691974 2.60145383 62.65368133 2.46160889 59.28979492 C2.32048885 55.96616455 2.16323064 52.64330034 2.0078125 49.3203125 C1.24987698 32.88387399 0.60852241 16.44257812 0 0 Z " fill="#336CE5" transform="translate(416,233)"/>
<path d="M0 0 C23.05688747 -2.22335145 23.05688747 -2.22335145 29.29394531 1.29345703 C32.73272921 4.42849097 35.00870442 8.15404245 37.0715332 12.29394531 C38.06761652 14.26781481 38.06761652 14.26781481 40.2890625 16.65234375 C42 19 42 19 42.05859375 21.3671875 C41.61226657 23.16933874 41.15969923 24.96994879 40.703125 26.76953125 C39.88048345 30.05167207 39.88048345 30.05167207 39.921875 33.69921875 C39.66612332 37.91485901 39.42723847 41.49012231 37 45 C30.4428017 50.22822356 20.92144194 55.07538314 12.4296875 54.9453125 C11.29789062 54.63335937 10.16609375 54.32140625 9 54 C8.26201172 53.81147461 7.52402344 53.62294922 6.76367188 53.42871094 C0.66543901 51.70423077 -5.39789531 49.47696171 -10 45 C-13.70979203 37.95034198 -15.84253888 27.88465069 -14.70214844 19.91967773 C-13.84970649 17.5890967 -12.68599154 16.0814246 -11.09375 14.1796875 C-10.51496094 13.47972656 -9.93617188 12.77976562 -9.33984375 12.05859375 C-8.73269531 11.33800781 -8.12554687 10.61742187 -7.5 9.875 C-6.30055165 8.4361713 -5.10256269 6.99612439 -3.90625 5.5546875 C-3.37322266 4.92030762 -2.84019531 4.28592773 -2.29101562 3.63232422 C-0.9239344 2.01793543 -0.9239344 2.01793543 0 0 Z " fill="#336CE5" transform="translate(382,371)"/>
</svg>
