<?xml version="1.0" encoding="UTF-8"?>
<svg version="1.1" xmlns="http://www.w3.org/2000/svg" width="512" height="512">
<path d="M0 0 C3.79826471 1.47191732 7.16114706 3.49521697 10.625 5.625 C11.61717529 6.21039551 12.60935059 6.79579102 13.6315918 7.39892578 C15.72006465 8.63280703 17.80326662 9.8756494 19.88134766 11.12695312 C23.85086542 13.51102548 27.853512 15.83543252 31.85839844 18.15942383 C34.85617511 19.90036405 37.84845298 21.65045691 40.83984375 23.40234375 C50.43942238 29.01678675 60.08135951 34.5580032 69.71777344 40.10888672 C75.14659942 43.23680148 80.57319281 46.36858448 86 49.5 C88.16665583 50.75001879 90.3333225 52.00001878 92.5 53.25 C125 72 125 72 157.5 90.75 C158.57354736 91.36931396 159.64709473 91.98862793 160.75317383 92.62670898 C162.90940213 93.87076792 165.06549049 95.11506942 167.22143555 96.35961914 C172.79665484 99.57756774 178.37451675 102.79081807 183.95703125 105.99609375 C189.40165634 109.12290039 194.83574475 112.26737623 200.26464844 115.42138672 C202.6377564 116.79094367 205.02199476 118.13664295 207.4140625 119.47265625 C208.58900012 120.1476401 209.76353374 120.82332812 210.9375 121.5 C211.87464844 122.0259375 212.81179688 122.551875 213.77734375 123.09375 C217.27296438 126.09175153 218.72872198 129.76629421 219.27510333 134.26520348 C219.38600558 136.91776596 219.39985581 139.55487739 219.38095093 142.2097168 C219.3856309 143.2234798 219.39031087 144.23724279 219.39513266 145.28172588 C219.4070771 148.67102414 219.39762733 152.05991765 219.38818359 155.44921875 C219.39224952 157.88221472 219.39759152 160.31520884 219.40411377 162.74819946 C219.41637066 168.66589582 219.41458019 174.58348746 219.40587585 180.50118089 C219.39909369 185.31169969 219.39818488 190.12218652 219.4014473 194.93270874 C219.401907 195.61802884 219.40236669 196.30334894 219.40284032 197.00943631 C219.40379952 198.40176146 219.40477216 199.7940866 219.4057581 201.18641174 C219.41430753 214.23447192 219.40448489 227.28246881 219.388357 240.3305186 C219.37495421 251.52018211 219.37728243 262.70975224 219.39111328 273.89941406 C219.40717701 286.90159167 219.4134836 299.90371385 219.40427649 312.9059 C219.40332087 314.29303041 219.40237776 315.68016083 219.4014473 317.06729126 C219.40098447 317.74974071 219.40052164 318.43219015 219.40004479 319.13531989 C219.39745728 323.93864601 219.40182075 328.7419369 219.40888596 333.54525757 C219.41819067 340.01313582 219.41154192 346.48087931 219.39420319 352.94874191 C219.39023589 355.32271405 219.39137651 357.69670103 219.39799118 360.07066727 C219.40618686 363.31073974 219.39590835 366.55024677 219.38095093 369.7902832 C219.38764309 370.73007365 219.39433526 371.6698641 219.40123022 372.63813305 C219.35152549 378.18790435 218.63525998 382.08520371 216 387 C214.10961914 388.78515625 214.10961914 388.78515625 211.97265625 390.0625 C211.17359863 390.54976563 210.37454102 391.03703125 209.55126953 391.5390625 C208.28839111 392.26222656 208.28839111 392.26222656 207 393 C206.17483887 393.48210937 205.34967773 393.96421875 204.49951172 394.4609375 C201.82581364 395.99952228 199.13448389 397.50263716 196.4375 399 C188.31054156 403.55256826 180.22572089 408.16747852 172.1875 412.875 C160.58061953 419.66892556 148.93606995 426.39589912 137.28222656 433.10888672 C131.85340058 436.23680148 126.42680719 439.36858448 121 442.5 C118.83334417 443.75001879 116.6666775 445.00001878 114.5 446.25 C113.4275 446.86875 112.355 447.4875 111.25 448.125 C101.50000001 453.75 101.50000001 453.75 98.24951172 455.62524414 C96.08442929 456.87435518 93.91939018 458.12354129 91.75439453 459.37280273 C86.31384294 462.51202309 80.87252784 465.64990563 75.4296875 468.78515625 C64.93767758 474.83055244 54.45530196 480.89130362 44 487 C35.87684469 491.74438968 27.74761507 496.47806522 19.60400391 501.18725586 C17.91892494 502.16208903 16.23483948 503.13863891 14.55078125 504.11523438 C13.00583984 505.00758789 13.00583984 505.00758789 11.4296875 505.91796875 C10.52460449 506.44156982 9.61952148 506.9651709 8.68701172 507.50463867 C2.14245439 511.14678056 -2.46439582 513.44162788 -10 512 C-14.58386726 510.0645067 -18.76697577 507.53170551 -23 504.9375 C-24.23290438 504.20425802 -25.46714414 503.47325725 -26.70263672 502.74438477 C-29.2397921 501.24444094 -31.77021164 499.7340152 -34.29589844 498.21484375 C-39.85952268 494.87616247 -45.49622258 491.66461991 -51.125 488.4375 C-53.27654585 487.19618598 -55.42758779 485.95399813 -57.578125 484.7109375 C-58.63837891 484.09831055 -59.69863281 483.48568359 -60.79101562 482.85449219 C-62.93033854 481.61816406 -65.06966146 480.38183594 -67.20898438 479.14550781 C-70.43068275 477.28397328 -73.65271079 475.42301161 -76.875 473.5625 C-77.94105469 472.94697266 -79.00710937 472.33144531 -80.10546875 471.69726562 C-88.68995597 466.74546958 -97.29580293 461.83175132 -105.90472412 456.92263794 C-114.94471708 451.76583392 -123.94525321 446.54456231 -132.92675781 441.28662109 C-140.54905778 436.83083656 -148.20531311 432.43602854 -155.875 428.0625 C-166.03447733 422.26900848 -176.1805156 416.45330472 -186.30493164 410.59863281 C-191.33194256 407.69168732 -196.36153262 404.78972735 -201.40429688 401.91020203 C-203.7986353 400.54268027 -206.19120533 399.17208058 -208.5836792 397.80130005 C-210.26714469 396.838441 -211.95311978 395.87997393 -213.63916016 394.92163086 C-214.66187012 394.33518799 -215.68458008 393.74874512 -216.73828125 393.14453125 C-217.63587158 392.63253174 -218.53346191 392.12053223 -219.45825195 391.59301758 C-224.79031859 388.25119308 -227.44414929 386.23378665 -229 380 C-229.27943378 376.63063396 -229.26993757 373.27648549 -229.25396729 369.89707947 C-229.25708727 368.88275976 -229.26020725 367.86844006 -229.26342177 366.82338339 C-229.27139569 363.42638584 -229.26508041 360.02956722 -229.25878906 356.63256836 C-229.26149917 354.19647619 -229.26506021 351.76038484 -229.26940918 349.32429504 C-229.27758514 343.39578943 -229.27638438 337.46733024 -229.2705839 331.53882592 C-229.26606509 326.72064354 -229.26545545 321.90247535 -229.26763153 317.08429146 C-229.267938 316.39825842 -229.26824446 315.71222539 -229.26856022 315.00540348 C-229.26919967 313.61170533 -229.2698481 312.21800719 -229.2705054 310.82430906 C-229.27620654 297.7601132 -229.26965397 284.69594542 -229.25890467 271.63175417 C-229.24996735 260.42270161 -229.2515231 249.21369048 -229.26074219 238.00463867 C-229.27144519 224.98528329 -229.27565934 211.96595251 -229.26951766 198.94659334 C-229.26888057 197.55835983 -229.26825182 196.1701263 -229.26763153 194.78189278 C-229.2671687 193.75735399 -229.2671687 193.75735399 -229.26669653 192.71211744 C-229.26496983 187.89935482 -229.26788411 183.08660779 -229.27259064 178.27384758 C-229.27878537 171.79698814 -229.27437509 165.32018858 -229.26280212 158.84333611 C-229.26015333 156.46368541 -229.26092435 154.08402813 -229.26532745 151.70438004 C-229.27077552 148.46147601 -229.26395756 145.21882472 -229.25396729 141.97593689 C-229.25842873 141.02963864 -229.26289017 140.08334039 -229.26748681 139.10836643 C-229.23211772 133.20749542 -229.00877099 129.03244337 -224.6796875 124.65234375 C-220.11379806 121.11288389 -214.98489907 118.40028093 -209.95501709 115.58639526 C-207.44444763 114.18173069 -204.94152163 112.76369254 -202.43814087 111.3462677 C-201.15397508 110.61922198 -199.86944782 109.89281435 -198.58456421 109.16703796 C-192.64926992 105.81186334 -186.75731412 102.38466257 -180.875 98.9375 C-169.3718525 92.20693498 -157.83075853 85.54343813 -146.28222656 78.89111328 C-140.85340058 75.76319852 -135.42680719 72.63141552 -130 69.5 C-127.83334417 68.24998121 -125.6666775 66.99998122 -123.5 65.75 C-122.4275 65.13125 -121.355 64.5125 -120.25 63.875 C-58.5 28.25 -58.5 28.25 -55.24438477 26.37182617 C-53.09635954 25.13253733 -50.94840925 23.89311859 -48.80053711 22.65356445 C-43.71344451 19.71797433 -38.62558153 16.78374328 -33.5350647 13.85409546 C-31.12456252 12.46671905 -28.71448624 11.07860376 -26.30444336 9.69042969 C-24.59856032 8.70826185 -22.89206014 7.72716615 -21.18554688 6.74609375 C-20.15623047 6.153125 -19.12691406 5.56015625 -18.06640625 4.94921875 C-17.15834229 4.42674561 -16.25027832 3.90427246 -15.31469727 3.3659668 C-9.66003595 0.02899495 -6.61939299 -0.98883727 0 0 Z " fill="#009438" transform="translate(261,0)"/>
<path d="M0 0 C7.94993196 5.43034426 13.78199129 12.31390426 19.77734375 19.76953125 C22.32981133 22.9259863 24.93500391 26.03107351 27.5625 29.125 C28.25218872 29.93819702 28.25218872 29.93819702 28.95581055 30.76782227 C30.36559808 32.42920869 31.77638044 34.08974485 33.1875 35.75 C39.1475827 42.76234558 45.06508795 49.79960805 50.875 56.9375 C53.44896392 60.06799666 56.06319086 63.16172461 58.6875 66.25 C62.80851634 71.09959381 66.85741354 76.00160806 70.875 80.9375 C73.44896392 84.06799666 76.06319086 87.16172461 78.6875 90.25 C82.80851634 95.09959381 86.85741354 100.00160806 90.875 104.9375 C93.44896392 108.06799666 96.06319086 111.16172461 98.6875 114.25 C102.80851634 119.09959381 106.85741354 124.00160806 110.875 128.9375 C113.90754003 132.62572436 116.99843999 136.26262854 120.09057617 139.90087891 C123.78987398 144.26102088 127.41949339 148.67458758 131.01953125 153.1171875 C132.76558286 155.23761774 134.53360605 157.33096828 136.32299805 159.41455078 C136.86031052 160.04048126 137.39762299 160.66641174 137.95121765 161.31130981 C138.35919083 161.78607758 138.767164 162.26084534 139.1875 162.75 C139.18896656 161.99554376 139.19043312 161.24108751 139.19194412 160.46376896 C139.22903729 142.08436553 139.28808527 123.70515178 139.37140274 105.32589817 C139.41116856 96.43772146 139.44357351 87.54963296 139.45849609 78.66137695 C139.47152538 70.91204132 139.49852253 63.1629 139.54211307 55.41367382 C139.5646993 51.31258101 139.58041239 47.21172762 139.57938385 43.11056709 C139.57863555 39.2452838 139.5966539 35.38052919 139.62866783 31.51538277 C139.63714139 30.10174981 139.6389341 28.68805738 139.63330269 27.27441025 C139.59462639 16.06716455 141.31477081 7.81339915 149.16796875 -0.453125 C156.35698006 -6.84953738 163.94567797 -8.24755746 173.34375 -7.72265625 C182.3017356 -6.62111534 187.62975283 -2.44987729 193.49609375 4.17578125 C197.61568071 10.44554524 198.6313673 16.25787378 198.57518005 23.57246399 C198.58325836 24.85126892 198.58325836 24.85126892 198.59149987 26.15590829 C198.60573188 28.99381835 198.59868748 31.83125883 198.59155273 34.66918945 C198.59725886 36.71161268 198.60422405 38.75403272 198.61235046 40.79644775 C198.63027203 46.33170614 198.6291151 51.86680591 198.62340808 57.40208459 C198.6203142 62.02914193 198.62641105 66.65616889 198.63244683 71.2832219 C198.64648773 82.20340743 198.6449349 93.12351473 198.63354492 104.04370117 C198.62206933 115.29428463 198.63613109 126.54462955 198.6629414 137.79518157 C198.68512466 147.46763862 198.69172969 157.14002094 198.68586498 166.81250161 C198.68249988 172.58357371 198.68488067 178.35449298 198.70211601 184.12554359 C198.71762439 189.55523798 198.71358625 194.98458019 198.69481087 200.41426086 C198.6911355 202.40115481 198.69420257 204.38807506 198.70469666 206.37494469 C198.81933526 229.88417232 198.81933526 229.88417232 190.9375 238.6875 C181.06552934 247.50477294 169.0323504 248.57763948 156.36132812 247.94091797 C141.80753095 246.6627206 130.13743053 236.98934251 121.08203125 226.25390625 C119.58057465 224.42292644 118.08871586 222.58404315 116.60546875 220.73828125 C114.01268108 217.53394754 111.35945536 214.38821504 108.6875 211.25 C104.56597102 206.40084922 100.51757593 201.49837899 96.5 196.5625 C93.4631723 192.8690609 90.36789045 189.22701514 87.27124023 185.58374023 C84.3920468 182.19045891 81.55545763 178.76732214 78.75 175.3125 C75.29475849 171.06607618 71.76052166 166.89703706 68.1875 162.75 C63.86821044 157.73680512 59.63652881 152.6646268 55.46484375 147.52734375 C52.90545946 144.40603633 50.30156209 141.3254997 47.6875 138.25 C43.56642208 133.40045949 39.51758517 128.49839036 35.5 123.5625 C32.92603608 120.43200334 30.31180914 117.33827539 27.6875 114.25 C24.31471426 110.28092065 20.97573483 106.28983137 17.6875 102.25 C13.44654934 97.04034298 9.11528392 91.91173527 4.765625 86.79296875 C2.22301484 83.79191828 -0.29613789 80.77304922 -2.8125 77.75 C-2.81396656 78.49930251 -2.81543312 79.24860502 -2.81694412 80.02061367 C-2.85403801 98.27483985 -2.91308693 116.52887506 -2.99640274 134.7829504 C-3.03616781 143.61059298 -3.06857314 152.43814673 -3.08349609 161.26586914 C-3.09652577 168.96246775 -3.1235239 176.65887072 -3.16711307 184.35535914 C-3.18969843 188.42850666 -3.20541245 192.50141314 -3.20438385 196.57462883 C-3.20363549 200.41364878 -3.2216559 204.25213651 -3.25366783 208.09101868 C-3.26214075 209.49497612 -3.26393455 210.89899345 -3.25830269 212.30296516 C-3.21831741 223.809403 -5.11146896 231.5459891 -13.01953125 240.02734375 C-19.9984215 246.73255202 -27.16349929 248.23351423 -36.55859375 248.0625 C-44.21322401 247.32736144 -50.74393165 243.48681243 -55.8125 237.75 C-60.61021014 230.60315199 -61.96241403 225.07593 -61.95294189 216.51571655 C-61.95591302 215.67814273 -61.95888414 214.8405689 -61.9619453 213.97761405 C-61.97062784 211.16654381 -61.97214018 208.35551618 -61.97363281 205.54443359 C-61.97826138 203.530537 -61.98328609 201.51664128 -61.98867798 199.50274658 C-62.00180209 194.02728035 -62.00824721 188.55182638 -62.01268864 183.07634687 C-62.01561993 179.65435719 -62.01972489 176.23237085 -62.02419281 172.81038284 C-62.03786906 162.10068826 -62.04753455 151.39100133 -62.0513947 140.68129861 C-62.05587299 128.32477973 -62.07340977 115.9683716 -62.1023953 103.61188638 C-62.12402814 94.05758608 -62.13409987 84.5033169 -62.13543582 74.94899237 C-62.13648289 69.24441815 -62.14236963 63.53994803 -62.16025543 57.83539963 C-62.17676328 52.46574475 -62.17887837 47.0962719 -62.17011642 41.72660065 C-62.16934745 39.76024767 -62.17367027 37.7938848 -62.18357468 35.82755661 C-62.29684287 11.93069746 -62.29684287 11.93069746 -54.6796875 2.5703125 C-39.94222483 -11.79717203 -16.54191477 -9.91607237 0 0 Z " fill="#FCFDFC" transform="translate(185.8125,135.25)"/>
</svg>
