<?xml version="1.0" encoding="UTF-8"?>
<svg version="1.1" xmlns="http://www.w3.org/2000/svg" width="2048" height="2048">
<path d="M0 0 C5.99834988 4.58378838 9.38330524 10.90295794 13.13330078 17.32275391 C13.86978875 18.56171486 14.60744748 19.79998052 15.34619141 21.03759766 C17.3058956 24.32732544 19.25055811 27.62569957 21.19213867 30.92614746 C23.15880829 34.26392318 25.1383739 37.59402121 27.11767578 40.92431641 C29.49930947 44.93214051 31.87993036 48.94052463 34.25268555 52.95361328 C38.24710533 59.70470183 42.27231131 66.43463951 46.36376953 73.12744141 C46.76318756 73.78141907 47.16260559 74.43539673 47.5741272 75.10919189 C49.4781431 78.22469422 51.38757579 81.33668852 53.30517578 84.44384766 C53.97419922 85.53568359 54.64322266 86.62751953 55.33251953 87.75244141 C55.92379639 88.71134277 56.51507324 89.67024414 57.12426758 90.65820312 C58.38330078 92.94775391 58.38330078 92.94775391 58.38330078 94.94775391 C74.10886474 97.82337046 74.10886474 97.82337046 89.16699219 94.45556641 C93.82387559 90.66846221 97.36324469 86.09580339 100.78027344 81.19238281 C105.07766236 75.17499113 110.34827776 69.84956668 115.38330078 64.44775391 C118.59576768 60.98573656 121.79436743 57.52122583 124.88330078 53.94775391 C127.93485158 50.41986347 131.08876014 46.99424375 134.25830078 43.57275391 C143.4158936 33.8723521 143.4158936 33.8723521 151.94580078 23.63525391 C157.89840472 17.07212649 165.31590923 14.00388819 174.13330078 13.57275391 C182.6596258 13.7930389 190.43857498 16.82799673 196.54663086 22.83004761 C202.1659093 29.30915483 204.77369983 38.27993398 207.57080078 46.25244141 C208.1407502 47.85155365 208.1407502 47.85155365 208.72221375 49.48297119 C209.94852048 52.92748642 211.16604736 56.37503015 212.38330078 59.82275391 C213.65177978 63.39550298 214.92216728 66.96757004 216.19255066 70.53964233 C217.04036327 72.92430778 217.88738008 75.3092563 218.7335968 77.69448853 C221.2985992 84.92041283 223.89164984 92.13527073 226.52001953 99.33837891 C226.82884064 100.18598785 227.13766174 101.0335968 227.45584106 101.90689087 C228.60490502 105.05949879 229.75426265 108.21196212 230.91235352 111.36126709 C231.68152286 113.45372424 232.44507146 115.54815288 233.20751953 117.64306641 C233.63121826 118.79822754 234.05491699 119.95338867 234.49145508 121.14355469 C235.38330078 123.94775391 235.38330078 123.94775391 235.38330078 126.94775391 C236.09873047 127.11791016 236.81416016 127.28806641 237.55126953 127.46337891 C244.3291061 129.11180488 250.89398336 131.05003958 257.47314453 133.37353516 C261.04703331 134.07871858 262.21923322 133.71520108 265.38330078 131.94775391 C267.83252441 130.29038169 270.17027018 128.50759831 272.50830078 126.69775391 C273.94125736 125.60577144 275.37487891 124.51466116 276.80908203 123.42431641 C277.55754395 122.85358398 278.30600586 122.28285156 279.07714844 121.69482422 C282.92168799 118.78231892 286.80879409 115.92819495 290.69580078 113.07275391 C291.49074951 112.48776123 292.28569824 111.90276855 293.10473633 111.30004883 C296.32060283 108.93368091 299.53769771 106.56898844 302.75537109 104.20507812 C305.11106365 102.47421568 307.46609556 100.74245927 309.82080078 99.01025391 C310.59375488 98.44201904 311.36670898 97.87378418 312.16308594 97.28833008 C316.37482828 94.18592669 320.56833189 91.06126908 324.74267578 87.90869141 C325.632854 87.23700928 326.52303223 86.56532715 327.44018555 85.87329102 C329.1408595 84.58803923 330.83941642 83.29997918 332.53540039 82.00854492 C342.47578897 74.49540074 351.37918686 68.27250574 364.38330078 69.94775391 C373.19122379 72.13420588 379.24665163 75.79381314 384.69580078 83.01025391 C388.00630857 88.77298968 389.03908902 94.14611798 389.98730469 100.64746094 C390.1339003 101.61872925 390.28049591 102.58999756 390.43153381 103.59069824 C390.91356973 106.79479792 391.38684037 110.00012476 391.85986328 113.20556641 C392.192838 115.43332843 392.52628987 117.66101919 392.86019897 119.88864136 C393.55815675 124.55346866 394.25209331 129.21886978 394.94287109 133.88476562 C395.82941334 139.87246562 396.72320742 145.8590534 397.6196537 151.84527779 C398.30784727 156.44310304 398.99359235 161.04129053 399.67844772 165.63961411 C400.00735129 167.84774161 400.33669853 170.05580306 400.66649246 172.26379776 C401.12597827 175.34447624 401.58249941 178.42557872 402.03808594 181.50683594 C402.17520493 182.42326874 402.31232391 183.33970154 402.45359802 184.28390503 C402.63858101 185.54137543 402.63858101 185.54137543 402.82730103 186.82424927 C402.93531855 187.55242418 403.04333607 188.2805991 403.15462685 189.03083992 C403.38330078 190.94775391 403.38330078 190.94775391 403.38330078 193.94775391 C404.03427734 194.18107422 404.68525391 194.41439453 405.35595703 194.65478516 C407.82254428 195.70825661 410.04970437 196.8357382 412.37939453 198.14697266 C413.10320312 198.55109375 413.82701172 198.95521484 414.57275391 199.37158203 C416.07352641 200.21519611 417.56837515 201.06943466 419.05712891 201.93408203 C419.78222656 202.33433594 420.50732422 202.73458984 421.25439453 203.14697266 C421.90335693 203.51653076 422.55231934 203.88608887 423.22094727 204.2668457 C428.10756019 205.80560188 432.52277369 203.62807106 436.89111328 201.46337891 C438.47279297 200.68897461 438.47279297 200.68897461 440.08642578 199.89892578 C441.21564453 199.33753906 442.34486328 198.77615234 443.50830078 198.19775391 C445.94645849 197.00105266 448.3875323 195.81035351 450.82861328 194.61962891 C451.76631561 194.16100464 451.76631561 194.16100464 452.72296143 193.69311523 C459.23253964 190.51644609 465.80401638 187.47704138 472.38330078 184.44775391 C479.52999633 181.15626177 486.6580266 177.83640482 493.72705078 174.38134766 C494.3304126 174.08720978 494.93377441 173.7930719 495.55541992 173.49002075 C498.42611254 172.08970061 501.29259475 170.68182942 504.15283203 169.26025391 C516.72874588 163.10541687 527.28622013 158.49137864 541.06298828 163.04150391 C548.8953615 166.10061264 554.22211236 171.95203057 557.75830078 179.44775391 C559.22583895 183.62309412 559.58140055 187.18373672 559.53955078 191.60083008 C559.53365936 192.24759547 559.52776794 192.89436087 559.521698 193.56072521 C559.4082922 202.04809509 558.94844731 210.52324376 558.50830078 218.99853516 C558.41822267 220.79158064 558.32854976 222.58464652 558.23925781 224.37773132 C558.00563004 229.05428894 557.7680128 233.73063351 557.52905273 238.40692139 C557.14600069 245.90579065 556.76678536 253.40484644 556.39202881 260.90413475 C556.26127277 263.50198787 556.12734925 266.09966399 555.99316406 268.69734192 C555.76744952 273.11333954 555.57103577 277.52998042 555.38330078 281.94775391 C555.32701004 283.01360214 555.2707193 284.07945038 555.21272278 285.17759705 C555.18240463 286.06435623 555.15208649 286.95111542 555.12084961 287.86474609 C555.07484367 288.94341949 555.07484367 288.94341949 555.02790833 290.04388428 C555.8159369 294.26542484 559.76279755 296.55036215 563.07080078 298.88525391 C563.79203125 299.43503906 564.51326172 299.98482422 565.25634766 300.55126953 C567.27037535 302.06868765 569.29358706 303.53648938 571.38330078 304.94775391 C572.06141815 305.50953339 572.73953552 306.07131287 573.4382019 306.65011597 C577.84944113 308.59374897 581.01639855 307.32603936 585.54125977 306.08520508 C586.45584457 305.85155746 587.37042938 305.61790985 588.31272888 305.37718201 C590.2984089 304.8671025 592.28172179 304.34773895 594.26284599 303.82024193 C597.40885576 302.98288108 600.56034787 302.17021554 603.71437073 301.36360168 C610.42239314 299.6431245 617.12179951 297.89047118 623.82080078 296.13525391 C631.55611735 294.11136993 639.29460969 292.10101018 647.04023933 290.11693764 C650.12693332 289.31999477 653.20770104 288.50259262 656.28868103 287.68388367 C682.80452407 280.77392886 682.80452407 280.77392886 695.82080078 288.18212891 C699.46764894 290.69489623 702.04108235 293.19399986 704.38330078 296.94775391 C704.79322266 297.59228516 705.20314453 298.23681641 705.62548828 298.90087891 C712.35288707 311.42775941 707.24230901 326.27630453 703.84690285 339.05395699 C703.01203928 342.19864687 702.19937345 345.34837297 701.39201355 348.50022888 C699.38648301 356.31266365 697.34710691 364.11615332 695.30279541 371.91851807 C693.56750569 378.54415893 691.84802364 385.17347517 690.15103722 391.80903435 C689.35066434 394.91160791 688.52700492 398.00739568 687.70259094 401.10365295 C687.21578801 402.99872 686.73014374 404.89408519 686.24584961 406.78979492 C685.89304428 408.07634476 685.89304428 408.07634476 685.53311157 409.3888855 C684.29894661 414.21648973 684.29894661 414.21648973 685.68447876 418.91304016 C686.24509003 419.5844957 686.80570129 420.25595123 687.38330078 420.94775391 C687.81843994 421.51316895 688.2535791 422.07858398 688.7019043 422.66113281 C689.1343042 423.1604834 689.5667041 423.65983398 690.01220703 424.17431641 C690.48980469 424.73119141 690.96740234 425.28806641 691.45947266 425.86181641 C691.94996094 426.42642578 692.44044922 426.99103516 692.94580078 427.57275391 C698.15044364 433.59846819 698.15044364 433.59846819 700.38330078 436.94775391 C702.5846307 437.32272668 702.5846307 437.32272668 705.21533203 437.12744141 C706.29435791 437.08804443 707.37338379 437.04864746 708.48510742 437.00805664 C710.32190063 436.91633179 710.32190063 436.91633179 712.19580078 436.82275391 C713.49573975 436.76998291 714.79567871 436.71721191 716.13500977 436.6628418 C721.21913894 436.45196629 726.30106144 436.19959394 731.38330078 435.94775391 C733.10601196 435.86306854 733.10601196 435.86306854 734.86352539 435.77667236 C738.7503541 435.5855782 742.637145 435.39372592 746.52392578 435.20166016 C747.19263388 435.16866318 747.86134197 435.1356662 748.55031395 435.10166931 C755.37823545 434.76458366 762.20600618 434.42554371 769.03293419 434.06882954 C771.01125498 433.96577091 772.98966665 433.86446167 774.96807861 433.76316833 C777.40853586 433.63817749 779.84885861 433.51051698 782.28900146 433.37953186 C811.33225242 431.90691522 811.33225242 431.90691522 821.38330078 439.94775391 C827.75264339 445.77434552 831.35057316 453.62140975 831.94580078 462.26025391 C831.20553356 473.15165958 825.11381134 484.05394955 820.33898926 493.65112305 C818.66576623 497.01552169 817.01828723 500.39253276 815.36767578 503.76806641 C815.03209656 504.45286072 814.69651733 505.13765503 814.35076904 505.84320068 C810.45817501 513.80437179 806.74541979 521.84600309 803.04882812 529.89990234 C800.47037768 535.50438939 797.84610144 541.07447905 795.09423828 546.59619141 C794.57442383 547.64742187 794.05460937 548.69865234 793.51904297 549.78173828 C792.54089258 551.75068484 791.55012342 553.71343358 790.54443359 555.66845703 C788.77823206 559.23773827 787.41622207 561.99425593 787.27783203 566.00244141 C788.90147013 570.32831817 791.1126992 574.21832342 793.44580078 578.19775391 C794.37785496 579.80500696 795.30642601 581.4142866 796.23095703 583.02587891 C796.6435376 583.73131836 797.05611816 584.43675781 797.48120117 585.16357422 C798.38330078 586.94775391 798.38330078 586.94775391 798.38330078 588.94775391 C799.60710449 589.10123291 800.8309082 589.25471191 802.09179688 589.4128418 C819.43173238 591.6169901 836.72791133 594.10930969 854.02050781 596.65405273 C857.3628138 597.14537057 860.70590634 597.63072532 864.04980469 598.11108398 C868.1625816 598.70193137 872.27375265 599.30296672 876.38401413 599.91105843 C877.9246026 600.13733777 879.46569257 600.36023438 881.00731277 600.57937431 C908.86838532 604.54966814 908.86838532 604.54966814 916.38330078 613.94775391 C921.88630001 622.89874763 923.92851844 631.2896756 921.50830078 641.63525391 C919.31932814 648.19213067 915.10494486 653.43853457 910.96533203 658.87109375 C909.25804596 661.11217019 907.56949542 663.36655078 905.88330078 665.62353516 C903.34372898 669.02001564 900.79742005 672.4112901 898.24658203 675.79931641 C892.82492007 683.01100893 887.48539742 690.28282751 882.14355469 697.55371094 C879.70881031 700.86509837 877.26905697 704.17276893 874.82666016 707.47851562 C873.62874245 709.10522611 872.43589546 710.73568477 871.24853516 712.37011719 C868.80217259 715.73069868 866.36400456 719.03661952 863.62158203 722.16259766 C859.49970829 726.88046777 859.49970829 726.88046777 858.43408203 732.81884766 C859.17433384 735.99903561 860.2056225 738.9032094 861.38330078 741.94775391 C862.12610734 744.31852328 862.85546768 746.69355077 863.57080078 749.07275391 C864.08707031 750.68537109 864.08707031 750.68537109 864.61376953 752.33056641 C865.38330078 754.94775391 865.38330078 754.94775391 865.38330078 756.94775391 C866.54990234 757.16431641 867.71650391 757.38087891 868.91845703 757.60400391 C876.10026815 759.20956308 882.93064961 761.90633489 889.82080078 764.44775391 C893.01271625 765.6178936 896.20579463 766.78484262 899.39892578 767.95166016 C900.67886665 768.42032249 900.67886665 768.42032249 901.98466492 768.89845276 C908.02982625 771.10630196 914.090699 773.26643544 920.16087341 775.4045105 C924.68219989 776.99707335 929.20024789 778.59883707 933.71829224 780.20068359 C935.93985483 780.98564717 938.16288771 781.76646288 940.38742065 782.54296875 C943.53995642 783.64433266 946.68659525 784.76126169 949.83251953 785.88134766 C950.76557922 786.20288315 951.69863892 786.52441864 952.65997314 786.85569763 C962.08407393 790.24473153 971.07074454 795.05022726 975.57080078 804.42041016 C979.4885251 814.09229208 979.47431165 821.80472345 975.57470703 831.47900391 C972.84622594 837.13277456 968.49498463 840.84543107 963.81298828 844.83837891 C960.81883185 847.43780732 957.91409183 850.12539334 955.00830078 852.82275391 C950.34701974 857.14321009 945.65222711 861.42144755 940.91845703 865.66259766 C938.01416812 868.28048519 935.13559303 870.92528594 932.25830078 873.57275391 C929.02119049 876.5500021 925.77192159 879.50728412 922.44580078 882.38525391 C918.29441015 885.98312578 914.26182766 889.70773254 910.25976562 893.47045898 C907.75257702 895.81777848 905.26502223 898.03947681 902.54736328 900.14697266 C898.2100484 903.37680032 898.2100484 903.37680032 895.80126953 908.02587891 C895.75076234 910.72571782 896.05629694 913.26498771 896.38330078 915.94775391 C896.53152632 918.32146501 896.64628533 920.69572526 896.76074219 923.07128906 C896.93846575 926.69869076 897.16216852 930.3227644 897.38330078 933.94775391 C898.08769287 934.20935303 898.79208496 934.47095215 899.51782227 934.74047852 C902.59151465 936.03547799 905.35495986 937.57497327 908.23095703 939.26416016 C908.79119064 939.59227188 909.35142426 939.92038361 909.92863464 940.25843811 C911.76993519 941.33860742 913.6079771 942.42418103 915.44580078 943.51025391 C916.74426942 944.27447177 918.0427726 945.03863096 919.34130859 945.80273438 C929.30991627 951.67919809 939.21842901 957.65301946 949.09326172 963.68554688 C954.8580353 967.20634956 960.63458611 970.70222241 966.44970703 974.13916016 C967.5844043 974.81188965 968.71910156 975.48461914 969.88818359 976.17773438 C972.02354297 977.44148633 974.16200755 978.70001284 976.30419922 979.95214844 C990.85135599 988.57747538 990.85135599 988.57747538 994.25830078 996.07275391 C994.64759766 996.90033203 995.03689453 997.72791016 995.43798828 998.58056641 C998.80628639 1007.01523026 997.83172514 1014.79599471 994.84423828 1023.20947266 C990.27692172 1031.77013819 983.21152065 1035.90600692 975.00830078 1040.69775391 C973.76933982 1041.43424187 972.53107417 1042.1719006 971.29345703 1042.91064453 C968.00372924 1044.87034872 964.70535512 1046.81501124 961.40490723 1048.7565918 C958.06713151 1050.72326141 954.73703348 1052.70282703 951.40673828 1054.68212891 C947.39891418 1057.06376259 943.39053006 1059.44438349 939.37744141 1061.81713867 C932.62635286 1065.81155845 925.89641517 1069.83676443 919.20361328 1073.92822266 C918.54963562 1074.32764069 917.89565796 1074.72705872 917.22186279 1075.13858032 C914.10636046 1077.04259623 910.99436617 1078.95202891 907.88720703 1080.86962891 C906.79537109 1081.53865234 905.70353516 1082.20767578 904.57861328 1082.89697266 C903.61971191 1083.48824951 902.66081055 1084.07952637 901.67285156 1084.6887207 C899.38330078 1085.94775391 899.38330078 1085.94775391 897.38330078 1085.94775391 C894.50768423 1101.67331787 894.50768423 1101.67331787 897.87548828 1116.73144531 C901.66259248 1121.38832871 906.2352513 1124.92769781 911.13867188 1128.34472656 C917.15606356 1132.64211549 922.48148801 1137.91273089 927.88330078 1142.94775391 C931.34531813 1146.16022081 934.80982886 1149.35882055 938.38330078 1152.44775391 C941.91119122 1155.49930471 945.33681094 1158.65321327 948.75830078 1161.82275391 C958.45870259 1170.98034672 958.45870259 1170.98034672 968.69580078 1179.51025391 C975.2589282 1185.46285784 978.32716649 1192.88036235 978.75830078 1201.69775391 C978.53801579 1210.22407892 975.50305796 1218.00302811 969.50100708 1224.11108398 C963.02189986 1229.73036243 954.05112071 1232.33815295 946.07861328 1235.13525391 C944.47950104 1235.70520332 944.47950104 1235.70520332 942.8480835 1236.28666687 C939.40356826 1237.5129736 935.95602454 1238.73050048 932.50830078 1239.94775391 C928.93555171 1241.21623291 925.36348465 1242.4866204 921.79141235 1243.75700378 C919.40674691 1244.60481639 917.02179839 1245.4518332 914.63656616 1246.29804993 C907.41064185 1248.86305232 900.19578396 1251.45610297 892.99267578 1254.08447266 C892.14506683 1254.39329376 891.29745789 1254.70211487 890.42416382 1255.02029419 C887.2715559 1256.16935814 884.11909257 1257.31871578 880.9697876 1258.47680664 C878.87733045 1259.24597598 876.78290181 1260.00952458 874.68798828 1260.77197266 C873.53282715 1261.19567139 872.37766602 1261.61937012 871.1875 1262.0559082 C868.38330078 1262.94775391 868.38330078 1262.94775391 865.38330078 1262.94775391 C865.21314453 1263.66318359 865.04298828 1264.37861328 864.86767578 1265.11572266 C863.21924981 1271.89355922 861.28101511 1278.45843648 858.95751953 1285.03759766 C858.14537747 1289.15355573 859.50078626 1291.60527156 861.76513672 1295.04980469 C862.29397461 1295.74058105 862.8228125 1296.43135742 863.36767578 1297.14306641 C863.96588135 1297.93140869 864.56408691 1298.71975098 865.18041992 1299.53198242 C865.82487061 1300.37043701 866.46932129 1301.2088916 867.13330078 1302.07275391 C868.50251807 1303.87558688 869.87099052 1305.67898574 871.23876953 1307.48291016 C871.93276855 1308.39572754 872.62676758 1309.30854492 873.34179688 1310.24902344 C876.41319642 1314.30920648 879.43235135 1318.40697028 882.44580078 1322.51025391 C883.0170166 1323.2868335 883.58823242 1324.06341309 884.17675781 1324.86352539 C885.91300313 1327.22439853 887.64822151 1329.58602371 889.38330078 1331.94775391 C891.75720681 1335.17772657 894.13228669 1338.40683168 896.50830078 1341.63525391 C897.08451172 1342.41884277 897.66072266 1343.20243164 898.25439453 1344.00976562 C901.06672577 1347.82820518 903.89350208 1351.63427879 906.75439453 1355.41650391 C907.29241699 1356.12846924 907.83043945 1356.84043457 908.38476562 1357.57397461 C909.38333381 1358.89254064 910.3846981 1360.20899674 911.38964844 1361.52270508 C918.53803793 1370.95852834 923.96544824 1379.66633424 922.38330078 1391.94775391 C920.21458407 1400.68423204 916.52855648 1406.47730727 909.69580078 1412.19775391 C898.92685213 1417.8870098 885.73874792 1418.56769908 873.85205078 1420.30322266 C871.76737879 1420.61229772 869.68278523 1420.92190217 867.5982666 1421.23200989 C863.25180972 1421.87724361 858.9047445 1422.51813882 854.55712891 1423.15551758 C848.97983241 1423.97323612 843.40372508 1424.79874323 837.8279953 1425.62707043 C832.50309151 1426.41773972 827.17758147 1427.20428914 821.85205078 1427.99072266 C820.83586166 1428.14119741 819.81967255 1428.29167217 818.77268982 1428.44670677 C815.90819943 1428.87017014 813.0432902 1429.29066679 810.17822266 1429.71020508 C809.32732056 1429.83640228 808.47641846 1429.96259949 807.59973145 1430.09262085 C804.50028133 1430.54396966 801.52011529 1430.94775391 798.38330078 1430.94775391 C798.14998047 1431.59873047 797.91666016 1432.24970703 797.67626953 1432.92041016 C796.62279808 1435.3869974 795.49531649 1437.61415749 794.18408203 1439.94384766 C793.77996094 1440.66765625 793.37583984 1441.39146484 792.95947266 1442.13720703 C792.11585857 1443.63797953 791.26162003 1445.13282828 790.39697266 1446.62158203 C789.99671875 1447.34667969 789.59646484 1448.07177734 789.18408203 1448.81884766 C788.81452393 1449.46781006 788.44496582 1450.11677246 788.06420898 1450.78540039 C786.52545281 1455.67201331 788.70298363 1460.08722681 790.86767578 1464.45556641 C791.38394531 1465.51001953 791.90021484 1466.56447266 792.43212891 1467.65087891 C792.99351563 1468.78009766 793.55490234 1469.90931641 794.13330078 1471.07275391 C795.33000202 1473.51091162 796.52070117 1475.95198542 797.71142578 1478.39306641 C798.01717529 1479.01820129 798.3229248 1479.64333618 798.63793945 1480.28741455 C801.8146086 1486.79699276 804.85401331 1493.36846951 807.88330078 1499.94775391 C811.17479291 1507.09444945 814.49464987 1514.22247973 817.94970703 1521.29150391 C818.24384491 1521.89486572 818.53798279 1522.49822754 818.84103394 1523.11987305 C820.24135408 1525.99056567 821.64922526 1528.85704788 823.07080078 1531.71728516 C828.86474542 1543.55580307 833.96434399 1554.4518147 829.82080078 1567.51025391 C826.49786705 1575.81758822 821.42451271 1580.86804719 813.59423828 1585.03759766 C802.61474975 1589.55742244 787.90111965 1586.81989608 776.23842812 1586.20697021 C773.61745938 1586.06925327 770.99629464 1585.93598276 768.37504578 1585.80371094 C762.81509262 1585.52232656 757.25544216 1585.23522194 751.69580078 1584.94775391 C745.23353624 1584.61430776 738.77115763 1584.28328698 732.3085537 1583.95648193 C729.74563866 1583.82589048 727.18291888 1583.69187106 724.62019348 1583.55761719 C720.85715549 1583.36298854 717.09381394 1583.18628255 713.32898331 1583.03011131 C711.53189172 1582.95404351 709.73531149 1582.86614216 707.93881226 1582.7771759 C706.96167267 1582.74685776 705.98453308 1582.71653961 704.9777832 1582.68530273 C703.76042732 1582.6392968 703.76042732 1582.6392968 702.51847839 1582.59236145 C698.88399244 1583.19730826 697.107794 1585.57336637 694.94189453 1588.39111328 C694.42755859 1589.13167969 693.91322266 1589.87224609 693.38330078 1590.63525391 C692.83802734 1591.35648438 692.29275391 1592.07771484 691.73095703 1592.82080078 C690.22719751 1594.8337796 688.77828449 1596.85803423 687.38330078 1598.94775391 C686.8218486 1599.62587128 686.26039642 1600.30398865 685.68193054 1601.00265503 C683.73682347 1605.41386816 685.00489754 1608.58042215 686.24584961 1613.10571289 C686.47949722 1614.0202977 686.71314484 1614.93488251 686.95387268 1615.87718201 C687.46395219 1617.86286202 687.98331574 1619.84617491 688.51081276 1621.82729912 C689.34817361 1624.97330889 690.16083915 1628.124801 690.967453 1631.27882385 C692.68793019 1637.98684626 694.44058351 1644.68625264 696.19580078 1651.38525391 C698.21968475 1659.12057047 700.23004451 1666.85906281 702.21411705 1674.60469246 C703.01105992 1677.69138644 703.82846207 1680.77215417 704.64717102 1683.85313416 C711.55712582 1710.3689772 711.55712582 1710.3689772 704.14892578 1723.38525391 C701.63615845 1727.03210206 699.13705483 1729.60553547 695.38330078 1731.94775391 C694.73876953 1732.35767578 694.09423828 1732.76759766 693.43017578 1733.18994141 C680.90329528 1739.91734019 666.05475016 1734.80676213 653.2770977 1731.41135597 C650.13240782 1730.57649241 646.98268171 1729.76382657 643.83082581 1728.95646667 C636.01839104 1726.95093613 628.21490137 1724.91156004 620.41253662 1722.86724854 C613.78689575 1721.13195881 607.15757952 1719.41247676 600.52202034 1717.71549034 C597.41944678 1716.91511746 594.32365901 1716.09145805 591.22740173 1715.26704407 C589.33233469 1714.78024113 587.4369695 1714.29459687 585.54125977 1713.81030273 C584.68355988 1713.57509918 583.82585999 1713.33989563 582.94216919 1713.0975647 C578.11456496 1711.86339974 578.11456496 1711.86339974 573.41801453 1713.24893188 C572.74655899 1713.80954315 572.07510345 1714.37015442 571.38330078 1714.94775391 C570.81788574 1715.38289307 570.2524707 1715.81803223 569.66992188 1716.26635742 C569.17057129 1716.69875732 568.6712207 1717.13115723 568.15673828 1717.57666016 C567.59986328 1718.05425781 567.04298828 1718.53185547 566.46923828 1719.02392578 C565.90462891 1719.51441406 565.34001953 1720.00490234 564.75830078 1720.51025391 C558.7325865 1725.71489676 558.7325865 1725.71489676 555.38330078 1727.94775391 C555.03282999 1730.53059122 555.03282999 1730.53059122 555.25415039 1733.58056641 C555.30084366 1734.76263672 555.34753693 1735.94470703 555.39564514 1737.16259766 C555.46246994 1738.45294922 555.52929474 1739.74330078 555.59814453 1741.07275391 C555.6575175 1742.42556324 555.71559558 1743.77842996 555.77244568 1745.13134766 C555.92622386 1748.693534 556.09910915 1752.25452488 556.27754974 1755.81555176 C556.44594499 1759.21081586 556.60136659 1762.60665102 556.75878906 1766.00244141 C557.1676902 1774.66750134 557.60598368 1783.33099012 558.05090332 1791.9942627 C558.2252361 1795.38881421 558.39825996 1798.78341865 558.56761169 1802.17822266 C558.69253518 1804.67837728 558.82027128 1807.17839385 558.95155334 1809.67822266 C560.40509127 1838.9205158 560.40509127 1838.9205158 552.38330078 1848.94775391 C545.85695998 1855.58802086 539.16465065 1858.31706119 529.94580078 1859.32275391 C518.96168196 1859.13647427 507.47467893 1852.27862194 497.82434082 1847.47564697 C494.22954186 1845.68716812 490.6221477 1843.92437628 487.01611328 1842.15869141 C486.28912231 1841.80201385 485.56213135 1841.4453363 484.81311035 1841.07785034 C476.66369087 1837.08825352 468.4356197 1833.27648319 460.18896484 1829.4921875 C454.81907634 1827.02416115 449.47793453 1824.52091076 444.18798828 1821.88525391 C443.22473633 1821.40942871 442.26148438 1820.93360352 441.26904297 1820.44335938 C439.4895596 1819.55991229 437.71618679 1818.66399405 435.95068359 1817.75292969 C432.60853266 1816.10111734 430.14713183 1814.96670011 426.39111328 1814.87353516 C422.01479862 1816.43650468 418.13397077 1818.66469981 414.13330078 1821.01025391 C412.52604773 1821.94230809 410.91676809 1822.87087914 409.30517578 1823.79541016 C408.59973633 1824.20799072 407.89429688 1824.62057129 407.16748047 1825.0456543 C405.38330078 1825.94775391 405.38330078 1825.94775391 403.38330078 1825.94775391 C403.23562256 1827.13312744 403.08794434 1828.31850098 402.93579102 1829.53979492 C400.73001375 1846.96225703 398.21961992 1864.34014372 395.65061378 1881.7122097 C394.97473193 1886.28300286 394.30445759 1890.85446418 393.6472168 1895.42797852 C393.00106151 1899.9237569 392.34141447 1904.41736279 391.67217827 1908.90976143 C391.42231936 1910.60222554 391.17711583 1912.29538434 390.9368763 1913.98924065 C389.31447301 1925.39541531 387.53471635 1935.97904247 378.38330078 1943.94775391 C369.41856569 1949.43723568 361.04639188 1951.49414425 350.69580078 1949.07275391 C344.13892401 1946.88378126 338.89252011 1942.66939798 333.45996094 1938.52978516 C331.2188845 1936.82249908 328.96450391 1935.13394854 326.70751953 1933.44775391 C323.31103905 1930.9081821 319.91976459 1928.36187317 316.53173828 1925.81103516 C309.32004575 1920.3893732 302.04822718 1915.04985055 294.77734375 1909.70800781 C291.46595632 1907.27326343 288.15828576 1904.8335101 284.85253906 1902.39111328 C283.22582858 1901.19319558 281.59536992 1900.00034858 279.9609375 1898.81298828 C276.60035601 1896.36662571 273.29443516 1893.92845769 270.16845703 1891.18603516 C265.45058692 1887.06416141 265.45058692 1887.06416141 259.51220703 1885.99853516 C256.33201908 1886.73878697 253.42784529 1887.77007562 250.38330078 1888.94775391 C248.0125314 1889.69056047 245.63750392 1890.4199208 243.25830078 1891.13525391 C241.64568359 1891.65152344 241.64568359 1891.65152344 240.00048828 1892.17822266 C237.38330078 1892.94775391 237.38330078 1892.94775391 235.38330078 1892.94775391 C235.16673828 1894.11435547 234.95017578 1895.28095703 234.72705078 1896.48291016 C233.12149161 1903.66472127 230.4247198 1910.49510274 227.88330078 1917.38525391 C226.71316109 1920.57716937 225.54621207 1923.77024775 224.37939453 1926.96337891 C223.91073219 1928.24331978 223.91073219 1928.24331978 223.43260193 1929.54911804 C221.22475273 1935.59427938 219.06461924 1941.65515212 216.92654419 1947.72532654 C215.33398133 1952.24665301 213.73221762 1956.76470102 212.13037109 1961.28274536 C211.34540752 1963.50430796 210.56459181 1965.72734084 209.78808594 1967.95187378 C208.68672203 1971.10440954 207.569793 1974.25104838 206.44970703 1977.39697266 C206.12817154 1978.33003235 205.80663605 1979.26309204 205.47535706 1980.22442627 C201.72957976 1990.64054595 196.4560971 1999.09383306 186.22314453 2003.97900391 C177.40672711 2007.33763911 169.51342578 2006.63047283 160.85205078 2003.13916016 C155.19828013 2000.41067907 151.48562361 1996.05943776 147.49267578 1991.37744141 C144.89324736 1988.38328497 142.20566134 1985.47854496 139.50830078 1982.57275391 C135.18784459 1977.91147287 130.90960713 1973.21668023 126.66845703 1968.48291016 C124.0505695 1965.57862125 121.40576875 1962.70004615 118.75830078 1959.82275391 C115.78105259 1956.58564362 112.82377057 1953.33637471 109.94580078 1950.01025391 C106.3479289 1945.85886328 102.62332214 1941.82628079 98.8605957 1937.82421875 C96.51327621 1935.31703015 94.29157788 1932.82947535 92.18408203 1930.11181641 C88.95425437 1925.77450153 88.95425437 1925.77450153 84.30517578 1923.36572266 C81.60533686 1923.31521547 79.06606698 1923.62075007 76.38330078 1923.94775391 C74.00958968 1924.09597944 71.63532943 1924.21073845 69.25976562 1924.32519531 C65.63236393 1924.50291888 62.00829028 1924.72662165 58.38330078 1924.94775391 C58.12170166 1925.652146 57.86010254 1926.35653809 57.59057617 1927.08227539 C56.2955767 1930.15596778 54.75608142 1932.91941299 53.06689453 1935.79541016 C52.73878281 1936.35564377 52.41067108 1936.91587738 52.07261658 1937.49308777 C50.99244726 1939.33438831 49.90687366 1941.17243023 48.82080078 1943.01025391 C48.05658292 1944.30872255 47.29242373 1945.60722572 46.52832031 1946.90576172 C40.6518566 1956.8743694 34.67803523 1966.78288214 28.64550781 1976.65771484 C25.12470513 1982.42248842 21.62883228 1988.19903924 18.19189453 1994.01416016 C17.51916504 1995.14885742 16.84643555 1996.28355469 16.15332031 1997.45263672 C14.88956836 1999.5879961 13.63104184 2001.72646068 12.37890625 2003.86865234 C3.75357931 2018.41580912 3.75357931 2018.41580912 -3.74169922 2021.82275391 C-4.56927734 2022.21205078 -5.39685547 2022.60134766 -6.24951172 2023.00244141 C-14.68417557 2026.37073951 -22.46494003 2025.39617826 -30.87841797 2022.40869141 C-39.4390835 2017.84137484 -43.57495224 2010.77597378 -48.36669922 2002.57275391 C-49.10318718 2001.33379295 -49.84084592 2000.0955273 -50.57958984 1998.85791016 C-52.53929403 1995.56818237 -54.48395655 1992.26980824 -56.42553711 1988.96936035 C-58.39220672 1985.63158463 -60.37177234 1982.3014866 -62.35107422 1978.97119141 C-64.73270791 1974.96336731 -67.1133288 1970.95498319 -69.48608398 1966.94189453 C-73.48050377 1960.19080598 -77.50570975 1953.4608683 -81.59716797 1946.76806641 C-81.996586 1946.11408875 -82.39600403 1945.46011108 -82.80752563 1944.78631592 C-84.71154154 1941.67081359 -86.62097422 1938.5588193 -88.53857422 1935.45166016 C-89.20759766 1934.35982422 -89.87662109 1933.26798828 -90.56591797 1932.14306641 C-91.15719482 1931.18416504 -91.74847168 1930.22526367 -92.35766602 1929.23730469 C-93.61669922 1926.94775391 -93.61669922 1926.94775391 -93.61669922 1924.94775391 C-94.72787109 1924.88716797 -95.83904297 1924.82658203 -96.98388672 1924.76416016 C-97.70012207 1924.72355469 -98.41635742 1924.68294922 -99.15429688 1924.64111328 C-100.71884296 1924.55352223 -102.28363492 1924.47022235 -103.84863281 1924.39111328 C-108.06481558 1924.16297436 -112.08417825 1923.71599148 -116.24169922 1922.94775391 C-119.01905001 1922.65169113 -120.15408757 1922.65353668 -122.52685547 1924.16259766 C-124.4056263 1925.98356015 -126.00366356 1927.88880694 -127.61669922 1929.94775391 C-128.67381806 1931.16079778 -129.7364933 1932.36901815 -130.80419922 1933.57275391 C-131.37783203 1934.23791016 -131.95146484 1934.90306641 -132.54248047 1935.58837891 C-135.14299119 1938.54639864 -137.81404148 1941.43464901 -140.49169922 1944.32275391 C-145.584618 1949.81928334 -150.61851969 1955.36477823 -155.61669922 1960.94775391 C-160.42197362 1966.30715004 -165.24749672 1971.64633371 -170.11669922 1976.94775391 C-173.58743273 1980.7282879 -177.05027439 1984.51546332 -180.49169922 1988.32275391 C-181.22001953 1989.12841797 -181.94833984 1989.93408203 -182.69873047 1990.76416016 C-184.2707243 1992.55386393 -185.73224976 1994.37104747 -187.17919922 1996.26025391 C-193.13180315 2002.82338132 -200.54930767 2005.89161962 -209.36669922 2006.32275391 C-217.89302423 2006.10246891 -225.67197342 2003.06751109 -231.7800293 1997.06546021 C-237.39930774 1990.58635299 -240.00709827 1981.61557383 -242.80419922 1973.64306641 C-243.37414864 1972.04395416 -243.37414864 1972.04395416 -243.95561218 1970.41253662 C-245.18191891 1966.96802139 -246.3994458 1963.52047766 -247.61669922 1960.07275391 C-248.88517822 1956.50000483 -250.15556571 1952.92793777 -251.4259491 1949.35586548 C-252.27376171 1946.97120003 -253.12077851 1944.58625151 -253.96699524 1942.20101929 C-256.53199763 1934.97509498 -259.12504828 1927.76023708 -261.75341797 1920.55712891 C-262.06223907 1919.70951996 -262.37106018 1918.86191101 -262.6892395 1917.98861694 C-263.83830345 1914.83600903 -264.98766109 1911.68354569 -266.14575195 1908.53424072 C-266.91492129 1906.44178358 -267.6784699 1904.34735494 -268.44091797 1902.25244141 C-268.8646167 1901.09728027 -269.28831543 1899.94211914 -269.72485352 1898.75195312 C-270.61669922 1895.94775391 -270.61669922 1895.94775391 -270.61669922 1892.94775391 C-271.33212891 1892.77759766 -272.04755859 1892.60744141 -272.78466797 1892.43212891 C-279.56250453 1890.78370294 -286.1273818 1888.84546824 -292.70654297 1886.52197266 C-296.82250104 1885.70983059 -299.27421687 1887.06523938 -302.71875 1889.32958984 C-303.40952637 1889.85842773 -304.10030273 1890.38726563 -304.81201172 1890.93212891 C-305.600354 1891.53033447 -306.38869629 1892.12854004 -307.20092773 1892.74487305 C-308.45860962 1893.71154907 -308.45860962 1893.71154907 -309.74169922 1894.69775391 C-311.54453219 1896.0669712 -313.34793106 1897.43544365 -315.15185547 1898.80322266 C-316.06467285 1899.49722168 -316.97749023 1900.1912207 -317.91796875 1900.90625 C-321.97815179 1903.97764955 -326.07591559 1906.99680447 -330.17919922 1910.01025391 C-330.95577881 1910.58146973 -331.7323584 1911.15268555 -332.5324707 1911.74121094 C-334.89334384 1913.47745626 -337.25496902 1915.21267464 -339.61669922 1916.94775391 C-342.84667188 1919.32165993 -346.07577699 1921.69673982 -349.30419922 1924.07275391 C-350.08778809 1924.64896484 -350.87137695 1925.22517578 -351.67871094 1925.81884766 C-355.4971505 1928.6311789 -359.3032241 1931.4579552 -363.08544922 1934.31884766 C-363.79741455 1934.85687012 -364.50937988 1935.39489258 -365.24291992 1935.94921875 C-366.56148595 1936.94778693 -367.87794206 1937.94915122 -369.19165039 1938.95410156 C-378.62747365 1946.10249105 -387.33527955 1951.52990137 -399.61669922 1949.94775391 C-408.42462223 1947.76130193 -414.48005007 1944.10169467 -419.92919922 1936.88525391 C-423.239707 1931.12251813 -424.27248745 1925.74938983 -425.22070312 1919.24804688 C-425.36729874 1918.27677856 -425.51389435 1917.30551025 -425.66493225 1916.30480957 C-426.14696816 1913.10070989 -426.62023881 1909.89538305 -427.09326172 1906.68994141 C-427.42623643 1904.46217938 -427.7596883 1902.23448862 -428.09359741 1900.00686646 C-428.79155519 1895.34203915 -429.48549175 1890.67663804 -430.17626953 1886.01074219 C-431.06281177 1880.02304219 -431.95660585 1874.03645442 -432.85305214 1868.05023003 C-433.54124571 1863.45240477 -434.22699079 1858.85421728 -434.91184616 1854.25589371 C-435.24074972 1852.04776621 -435.57009697 1849.83970475 -435.8998909 1847.63171005 C-436.3593767 1844.55103158 -436.81589785 1841.46992909 -437.27148438 1838.38867188 C-437.40860336 1837.47223907 -437.54572235 1836.55580627 -437.68699646 1835.61160278 C-437.81031845 1834.77328918 -437.93364044 1833.93497559 -438.06069946 1833.07125854 C-438.16871698 1832.34308363 -438.2767345 1831.61490871 -438.38802528 1830.86466789 C-438.61669922 1828.94775391 -438.61669922 1828.94775391 -438.61669922 1825.94775391 C-439.26767578 1825.71443359 -439.91865234 1825.48111328 -440.58935547 1825.24072266 C-443.05594271 1824.1872512 -445.28310281 1823.05976962 -447.61279297 1821.74853516 C-448.33660156 1821.34441406 -449.06041016 1820.94029297 -449.80615234 1820.52392578 C-451.30692485 1819.6803117 -452.80177359 1818.82607316 -454.29052734 1817.96142578 C-455.015625 1817.56117187 -455.74072266 1817.16091797 -456.48779297 1816.74853516 C-457.46123657 1816.194198 -457.46123657 1816.194198 -458.4543457 1815.62866211 C-463.34095863 1814.08990593 -467.75617213 1816.26743676 -472.12451172 1818.43212891 C-473.17896484 1818.94839844 -474.23341797 1819.46466797 -475.31982422 1819.99658203 C-476.44904297 1820.55796875 -477.57826172 1821.11935547 -478.74169922 1821.69775391 C-481.17985693 1822.89445515 -483.62093074 1824.0851543 -486.06201172 1825.27587891 C-486.68714661 1825.58162842 -487.31228149 1825.88737793 -487.95635986 1826.20239258 C-494.46593807 1829.37906173 -501.03741482 1832.41846643 -507.61669922 1835.44775391 C-514.76339477 1838.73924604 -521.89142504 1842.059103 -528.96044922 1845.51416016 C-529.56381104 1845.80829803 -530.16717285 1846.10243591 -530.78881836 1846.40548706 C-533.65951098 1847.8058072 -536.52599319 1849.21367839 -539.38623047 1850.63525391 C-551.96214431 1856.79009094 -562.51961856 1861.40412917 -576.29638672 1856.85400391 C-583.70714903 1853.95956475 -588.51921581 1848.56410462 -592.42919922 1841.82275391 C-597.14447225 1830.40682972 -594.50348944 1815.70898815 -593.87591553 1803.58712006 C-593.73828157 1800.92861449 -593.6049843 1798.26991968 -593.47265625 1795.61114502 C-593.23880666 1790.92636473 -593.00126325 1786.24178066 -592.76245117 1781.55725098 C-592.37971902 1774.04845652 -592.00020766 1766.53950715 -591.62542725 1759.03031158 C-591.49463457 1756.42803121 -591.36071641 1753.82592485 -591.2265625 1751.22381592 C-591.00086338 1746.79926675 -590.80447172 1742.37407303 -590.61669922 1737.94775391 C-590.53226311 1736.3478788 -590.53226311 1736.3478788 -590.44612122 1734.71568298 C-590.400644 1733.38555931 -590.400644 1733.38555931 -590.35424805 1732.02856445 C-590.32357742 1731.30976608 -590.2929068 1730.59096771 -590.26130676 1729.85038757 C-591.04966133 1725.62984234 -594.99692467 1723.34463133 -598.30419922 1721.01025391 C-599.38604492 1720.18557617 -599.38604492 1720.18557617 -600.48974609 1719.34423828 C-602.50377378 1717.82682016 -604.5269855 1716.35901843 -606.61669922 1714.94775391 C-607.29481659 1714.38597443 -607.97293396 1713.82419495 -608.67160034 1713.24539185 C-613.08283956 1711.30175884 -616.24979699 1712.56946845 -620.7746582 1713.81030273 C-622.14653542 1714.16077415 -622.14653542 1714.16077415 -623.54612732 1714.51832581 C-625.53180733 1715.02840531 -627.51512022 1715.54776886 -629.49624443 1716.07526588 C-632.6422542 1716.91262673 -635.79374631 1717.72529227 -638.94776917 1718.53190613 C-645.65579157 1720.25238331 -652.35519795 1722.00503664 -659.05419922 1723.76025391 C-666.78951578 1725.78413788 -674.52800812 1727.79449764 -682.27363777 1729.77857018 C-685.36033175 1730.57551304 -688.44109948 1731.39291519 -691.52207947 1732.21162415 C-718.03792251 1739.12157895 -718.03792251 1739.12157895 -731.05419922 1731.71337891 C-734.70104738 1729.20061158 -737.27448078 1726.70150795 -739.61669922 1722.94775391 C-740.02662109 1722.30322266 -740.43654297 1721.65869141 -740.85888672 1720.99462891 C-747.58628551 1708.4677484 -742.47570745 1693.61920329 -739.08030128 1680.84155083 C-738.24543772 1677.69686094 -737.43277188 1674.54713484 -736.62541199 1671.39527893 C-734.61988144 1663.58284416 -732.58050535 1655.7793545 -730.53619385 1647.97698975 C-728.80090413 1641.35134888 -727.08142208 1634.72203264 -725.38443565 1628.08647346 C-724.58406277 1624.9838999 -723.76040336 1621.88811214 -722.93598938 1618.79185486 C-722.44918644 1616.89678781 -721.96354218 1615.00142262 -721.47924805 1613.10571289 C-721.12644272 1611.81916306 -721.12644272 1611.81916306 -720.76651001 1610.50662231 C-719.53234505 1605.67901808 -719.53234505 1605.67901808 -720.9178772 1600.98246765 C-721.47848846 1600.31101212 -722.03909973 1599.63955658 -722.61669922 1598.94775391 C-723.05183838 1598.38233887 -723.48697754 1597.81692383 -723.93530273 1597.234375 C-724.36770264 1596.73502441 -724.80010254 1596.23567383 -725.24560547 1595.72119141 C-725.72320313 1595.16431641 -726.20080078 1594.60744141 -726.69287109 1594.03369141 C-727.18335938 1593.46908203 -727.67384766 1592.90447266 -728.17919922 1592.32275391 C-733.38384208 1586.29703962 -733.38384208 1586.29703962 -735.61669922 1582.94775391 C-737.81802913 1582.57278114 -737.81802913 1582.57278114 -740.44873047 1582.76806641 C-741.52775635 1582.80746338 -742.60678223 1582.84686035 -743.71850586 1582.88745117 C-744.94303467 1582.94860107 -746.16756348 1583.00975098 -747.42919922 1583.07275391 C-748.72913818 1583.1255249 -750.02907715 1583.1782959 -751.3684082 1583.23266602 C-756.45253737 1583.44354152 -761.53445988 1583.69591388 -766.61669922 1583.94775391 C-767.76517334 1584.00421082 -768.91364746 1584.06066772 -770.09692383 1584.11883545 C-773.98375253 1584.30992962 -777.87054344 1584.50178189 -781.75732422 1584.69384766 C-782.42603231 1584.72684464 -783.09474041 1584.75984161 -783.78371239 1584.7938385 C-790.61163388 1585.13092415 -797.43940462 1585.4699641 -804.26633263 1585.82667828 C-806.24465342 1585.92973691 -808.22306509 1586.03104615 -810.20147705 1586.13233948 C-812.64193429 1586.25733032 -815.08225705 1586.38499083 -817.5223999 1586.51597595 C-846.56565086 1587.9885926 -846.56565086 1587.9885926 -856.61669922 1579.94775391 C-862.98604183 1574.12116229 -866.5839716 1566.27409806 -867.17919922 1557.63525391 C-866.40782016 1546.41998158 -860.07815155 1535.30150748 -855.14459229 1525.38879395 C-853.35611343 1521.79399498 -851.59332159 1518.18660082 -849.82763672 1514.58056641 C-849.47095917 1513.85357544 -849.11428162 1513.12658447 -848.74679565 1512.37756348 C-844.75719883 1504.228144 -840.9454285 1496.00007283 -837.16113281 1487.75341797 C-834.69310646 1482.38352947 -832.18985608 1477.04238766 -829.55419922 1471.75244141 C-829.07837402 1470.78918945 -828.60254883 1469.8259375 -828.11230469 1468.83349609 C-827.2288576 1467.05401272 -826.33293936 1465.28063992 -825.421875 1463.51513672 C-823.77006265 1460.17298579 -822.63564542 1457.71158496 -822.54248047 1453.95556641 C-824.10544999 1449.57925174 -826.33364512 1445.6984239 -828.67919922 1441.69775391 C-829.6112534 1440.09050085 -830.53982445 1438.48122121 -831.46435547 1436.86962891 C-831.87693604 1436.16418945 -832.2895166 1435.45875 -832.71459961 1434.73193359 C-833.61669922 1432.94775391 -833.61669922 1432.94775391 -833.61669922 1430.94775391 C-834.84050293 1430.7942749 -836.06430664 1430.6407959 -837.32519531 1430.48266602 C-854.66513081 1428.27851772 -871.96130976 1425.78619812 -889.25390625 1423.24145508 C-892.59621224 1422.75013725 -895.93930478 1422.26478249 -899.28320312 1421.78442383 C-903.39598004 1421.19357644 -907.50715108 1420.59254109 -911.61741257 1419.98444939 C-913.15800103 1419.75817004 -914.69909101 1419.53527343 -916.24071121 1419.3161335 C-944.10178376 1415.34583967 -944.10178376 1415.34583967 -951.61669922 1405.94775391 C-957.11969844 1396.99676018 -959.16191688 1388.60583222 -956.74169922 1378.26025391 C-954.28138504 1370.91301431 -949.27559457 1365.01826831 -944.61669922 1358.94775391 C-943.3285834 1357.2566183 -942.04084522 1355.56519501 -940.75341797 1353.87353516 C-938.67578399 1351.14659414 -936.59631411 1348.42114428 -934.51147461 1345.69970703 C-930.29977336 1340.1948916 -926.18848684 1334.63930875 -922.19604492 1328.97412109 C-919.62692018 1325.33689708 -916.99573822 1321.75445853 -914.31323242 1318.19995117 C-913.31058192 1316.86962651 -912.31297432 1315.53548543 -911.32055664 1314.19750977 C-908.58110664 1310.50929411 -905.77529069 1306.90440874 -902.85888672 1303.35400391 C-896.34129314 1295.78058263 -896.34129314 1295.78058263 -893.32763672 1286.60009766 C-894.09600831 1283.46464585 -895.21995041 1280.85503163 -896.61669922 1277.94775391 C-897.3765313 1275.58238623 -898.10586234 1273.20700109 -898.80419922 1270.82275391 C-899.14837891 1269.74767578 -899.49255859 1268.67259766 -899.84716797 1267.56494141 C-900.61669922 1264.94775391 -900.61669922 1264.94775391 -900.61669922 1262.94775391 C-902.36660156 1262.62291016 -902.36660156 1262.62291016 -904.15185547 1262.29150391 C-911.33366658 1260.68594474 -918.16404805 1257.98917292 -925.05419922 1255.44775391 C-928.24611469 1254.27761421 -931.43919306 1253.11066519 -934.63232422 1251.94384766 C-935.48561813 1251.6314061 -936.33891205 1251.31896454 -937.21806335 1250.99705505 C-943.26322469 1248.78920586 -949.32409743 1246.62907237 -955.39427185 1244.49099731 C-959.91559832 1242.89843446 -964.43364633 1241.29667074 -968.95169067 1239.69482422 C-971.17325327 1238.90986064 -973.39628615 1238.12904493 -975.62081909 1237.35253906 C-978.77335485 1236.25117515 -981.91999369 1235.13424612 -985.06591797 1234.01416016 C-985.99897766 1233.69262466 -986.93203735 1233.37108917 -987.89337158 1233.03981018 C-998.30949127 1229.29403289 -1006.76277837 1224.02055022 -1011.64794922 1213.78759766 C-1015.00658443 1204.97118024 -1014.29941815 1197.07787891 -1010.80810547 1188.41650391 C-1008.07962438 1182.76273326 -1003.72838307 1179.05007674 -999.04638672 1175.05712891 C-996.05223028 1172.45770049 -993.14749027 1169.77011447 -990.24169922 1167.07275391 C-985.58041818 1162.75229772 -980.88562555 1158.47406026 -976.15185547 1154.23291016 C-973.24756656 1151.61502262 -970.36899146 1148.97022187 -967.49169922 1146.32275391 C-964.25458893 1143.34550572 -961.00532002 1140.3882237 -957.67919922 1137.51025391 C-953.52780859 1133.91238203 -949.4952261 1130.18777527 -945.49316406 1126.42504883 C-942.98597546 1124.07772933 -940.49842067 1121.85603101 -937.78076172 1119.74853516 C-933.44344684 1116.51870749 -933.44344684 1116.51870749 -931.03466797 1111.86962891 C-930.98416078 1109.16978999 -931.28969538 1106.6305201 -931.61669922 1103.94775391 C-931.76492476 1101.5740428 -931.87968377 1099.19978256 -931.99414062 1096.82421875 C-932.17186419 1093.19681706 -932.39556696 1089.57274341 -932.61669922 1085.94775391 C-933.32109131 1085.68615479 -934.0254834 1085.42455566 -934.7512207 1085.1550293 C-937.82491309 1083.86002982 -940.5883583 1082.32053455 -943.46435547 1080.63134766 C-944.02458908 1080.30323593 -944.58482269 1079.97512421 -945.16203308 1079.6370697 C-947.00333363 1078.55690039 -948.84137554 1077.47132679 -950.67919922 1076.38525391 C-951.97766786 1075.62103605 -953.27617104 1074.85687685 -954.57470703 1074.09277344 C-964.54331471 1068.21630972 -974.45182745 1062.24248836 -984.32666016 1056.20996094 C-990.09143374 1052.68915825 -995.86798455 1049.19328541 -1001.68310547 1045.75634766 C-1002.81780273 1045.08361816 -1003.9525 1044.41088867 -1005.12158203 1043.71777344 C-1007.25694141 1042.45402148 -1009.39540599 1041.19549497 -1011.53759766 1039.94335938 C-1026.08475443 1031.31803244 -1026.08475443 1031.31803244 -1029.49169922 1023.82275391 C-1029.88099609 1022.99517578 -1030.27029297 1022.16759766 -1030.67138672 1021.31494141 C-1034.03968483 1012.88027755 -1033.06512358 1005.0995131 -1030.07763672 996.68603516 C-1025.51032016 988.12536962 -1018.44491909 983.98950089 -1010.24169922 979.19775391 C-1009.00273826 978.46126594 -1007.76447261 977.72360721 -1006.52685547 976.98486328 C-1003.23712768 975.02515909 -999.93875355 973.08049658 -996.63830566 971.13891602 C-993.30052994 969.1722464 -989.97043192 967.19268079 -986.64013672 965.21337891 C-982.63231262 962.83174522 -978.6239285 960.45112432 -974.61083984 958.07836914 C-967.8597513 954.08394936 -961.12981361 950.05874338 -954.43701172 945.96728516 C-953.78303406 945.56786713 -953.1290564 945.1684491 -952.45526123 944.75692749 C-949.3397589 942.85291159 -946.22776461 940.9434789 -943.12060547 939.02587891 C-942.02876953 938.35685547 -940.93693359 937.68783203 -939.81201172 936.99853516 C-938.85311035 936.4072583 -937.89420898 935.81598145 -936.90625 935.20678711 C-934.61669922 933.94775391 -934.61669922 933.94775391 -932.61669922 933.94775391 C-929.74108267 918.22218994 -929.74108267 918.22218994 -933.10888672 903.1640625 C-936.89599092 898.5071791 -941.46864973 894.96781 -946.37207031 891.55078125 C-952.38946199 887.25339232 -957.71488644 881.98277693 -963.11669922 876.94775391 C-966.57871657 873.73528701 -970.0432273 870.53668726 -973.61669922 867.44775391 C-977.14458966 864.3962031 -980.57020938 861.24229455 -983.99169922 858.07275391 C-993.69210103 848.91516109 -993.69210103 848.91516109 -1003.92919922 840.38525391 C-1010.49232663 834.43264997 -1013.56056493 827.01514546 -1013.99169922 818.19775391 C-1013.77141423 809.67142889 -1010.7364564 801.89247971 -1004.73440552 795.78442383 C-998.2552983 790.16514539 -989.28451915 787.55735486 -981.31201172 784.76025391 C-979.71289948 784.19030449 -979.71289948 784.19030449 -978.08148193 783.60884094 C-974.6369667 782.38253421 -971.18942297 781.16500733 -967.74169922 779.94775391 C-964.16895015 778.67927491 -960.59688308 777.40888741 -957.02481079 776.13850403 C-954.64014535 775.29069142 -952.25519682 774.44367461 -949.8699646 773.59745789 C-942.64404029 771.03245549 -935.42918239 768.43940484 -928.22607422 765.81103516 C-927.37846527 765.50221405 -926.53085632 765.19339294 -925.65756226 764.87521362 C-922.50495434 763.72614967 -919.352491 762.57679203 -916.20318604 761.41870117 C-914.11072889 760.64953183 -912.01630025 759.88598323 -909.92138672 759.12353516 C-908.76622559 758.69983643 -907.61106445 758.2761377 -906.42089844 757.83959961 C-903.61669922 756.94775391 -903.61669922 756.94775391 -900.61669922 756.94775391 C-900.44654297 756.23232422 -900.27638672 755.51689453 -900.10107422 754.77978516 C-898.45264825 748.00194859 -896.51441355 741.43707133 -894.19091797 734.85791016 C-893.48573455 731.28402138 -893.84925204 730.11182146 -895.61669922 726.94775391 C-897.27407143 724.49853028 -899.05685481 722.16078451 -900.86669922 719.82275391 C-901.95868169 718.38979733 -903.04979196 716.95617577 -904.14013672 715.52197266 C-904.71086914 714.77351074 -905.28160156 714.02504883 -905.86962891 713.25390625 C-908.78213421 709.40936669 -911.63625817 705.5222606 -914.49169922 701.63525391 C-915.07669189 700.84030518 -915.66168457 700.04535645 -916.2644043 699.22631836 C-918.63077221 696.01045186 -920.99546469 692.79335697 -923.359375 689.57568359 C-925.09023745 687.21999104 -926.82199386 684.86495912 -928.55419922 682.51025391 C-929.40655151 681.35082275 -929.40655151 681.35082275 -930.27612305 680.16796875 C-933.37852643 675.9562264 -936.50318405 671.7627228 -939.65576172 667.58837891 C-940.32744385 666.69820068 -940.99912598 665.80802246 -941.69116211 664.89086914 C-942.9764139 663.19019518 -944.26447395 661.49163827 -945.5559082 659.7956543 C-953.06905239 649.85526572 -959.29194739 640.95186783 -957.61669922 627.94775391 C-955.4479825 619.21127578 -951.76195492 613.41820054 -944.92919922 607.69775391 C-934.16025056 602.00849801 -920.97214636 601.32780874 -909.08544922 599.59228516 C-907.00077723 599.2832101 -904.91618367 598.97360564 -902.83166504 598.66349792 C-898.48520816 598.0182642 -894.13814294 597.37736899 -889.79052734 596.73999023 C-884.21323085 595.92227169 -878.63712352 595.09676458 -873.06139374 594.26843739 C-867.73648995 593.47776809 -862.41097991 592.69121867 -857.08544922 591.90478516 C-855.56116554 591.67907302 -855.56116554 591.67907302 -854.00608826 591.44880104 C-851.14159787 591.02533767 -848.27668864 590.60484102 -845.41162109 590.18530273 C-844.13526794 589.99600693 -844.13526794 589.99600693 -842.83312988 589.80288696 C-839.73367976 589.35153815 -836.75351372 588.94775391 -833.61669922 588.94775391 C-833.38337891 588.29677734 -833.15005859 587.64580078 -832.90966797 586.97509766 C-831.85619651 584.50851041 -830.72871493 582.28135032 -829.41748047 579.95166016 C-829.01335937 579.22785156 -828.60923828 578.50404297 -828.19287109 577.75830078 C-827.34925701 576.25752828 -826.49501847 574.76267953 -825.63037109 573.27392578 C-825.23011719 572.54882812 -824.82986328 571.82373047 -824.41748047 571.07666016 C-823.86314331 570.10321655 -823.86314331 570.10321655 -823.29760742 569.11010742 C-821.75885125 564.2234945 -823.93638207 559.808281 -826.10107422 555.43994141 C-826.61718262 554.38589111 -827.13329102 553.33184082 -827.66503906 552.24584961 C-828.22658691 551.11622803 -828.78813477 549.98660645 -829.36669922 548.82275391 C-830.56597716 546.37807194 -831.75919269 543.93044433 -832.95263672 541.48291016 C-833.25879913 540.85674301 -833.56496155 540.23057587 -833.88040161 539.58543396 C-837.55662087 532.05267706 -841.06216559 524.44175364 -844.57397461 516.83129883 C-847.58555682 510.31113012 -850.6230611 503.80507565 -853.69873047 497.31494141 C-854.38908377 495.85493993 -855.07935119 494.39489784 -855.76953125 492.93481445 C-856.77638718 490.80488535 -857.78484958 488.67581362 -858.79925537 486.54946899 C-859.73666398 484.58419282 -860.66747939 482.61590999 -861.59716797 480.64697266 C-862.13237061 479.52121826 -862.66757324 478.39546387 -863.21899414 477.2355957 C-867.41074021 467.37529101 -867.91600657 459.53977229 -863.93701172 449.59228516 C-860.17087627 442.04887185 -854.37666501 437.14222746 -846.61669922 433.94775391 C-834.59922205 431.02053539 -820.68311575 433.19655677 -808.40966797 433.82275391 C-806.59037539 433.91279777 -804.77106446 434.00247164 -802.95173645 434.09179688 C-798.20246037 434.32566692 -793.45337741 434.56322606 -788.7043457 434.80200195 C-781.08860164 435.18474454 -773.47267963 435.56379966 -765.85656166 435.93902588 C-763.21491519 436.07001442 -760.57342282 436.20383357 -757.93193054 436.33789062 C-756.29975949 436.4188968 -754.66758305 436.49979439 -753.03540039 436.58056641 C-752.3136412 436.61796936 -751.59188202 436.65537231 -750.84825134 436.69390869 C-747.14204204 436.87455437 -743.43621601 436.9990201 -739.72599792 437.05754089 C-738.99179721 437.07034686 -738.25759649 437.08315283 -737.50114727 437.09634686 C-735.45416586 437.08404453 -735.45416586 437.08404453 -733.44921875 435.55834961 C-732.73161377 434.60061646 -732.73161377 434.60061646 -731.99951172 433.62353516 C-731.45552734 432.92421875 -730.91154297 432.22490234 -730.35107422 431.50439453 C-729.81998047 430.76382812 -729.28888672 430.02326172 -728.74169922 429.26025391 C-728.18740234 428.53902344 -727.63310547 427.81779297 -727.06201172 427.07470703 C-725.53089271 425.05959247 -724.04425727 423.03748042 -722.61669922 420.94775391 C-722.05459244 420.26963654 -721.49248566 419.59151917 -720.91334534 418.89285278 C-718.97118648 414.4815876 -720.2385315 411.31422679 -721.47924805 406.78979492 C-721.71289566 405.87521011 -721.94654327 404.96062531 -722.18727112 404.01832581 C-722.69735062 402.03264579 -723.21671418 400.0493329 -723.7442112 398.06820869 C-724.58157205 394.92219892 -725.39423759 391.77070681 -726.20085144 388.61668396 C-727.92132863 381.90866155 -729.67398195 375.20925517 -731.42919922 368.51025391 C-733.45308319 360.77493734 -735.46344295 353.036445 -737.44751549 345.29081535 C-738.24445836 342.20412137 -739.06186051 339.12335365 -739.88056946 336.04237366 C-746.79052426 309.52653062 -746.79052426 309.52653062 -739.38232422 296.51025391 C-736.86955689 292.86340575 -734.37045327 290.28997234 -730.61669922 287.94775391 C-729.97216797 287.53783203 -729.32763672 287.12791016 -728.66357422 286.70556641 C-716.13669372 279.97816762 -701.2881486 285.08874568 -688.51049614 288.48415184 C-685.36580625 289.3190154 -682.21608015 290.13168124 -679.06422424 290.93904114 C-671.25178947 292.94457168 -663.44829981 294.98394777 -655.64593506 297.02825928 C-649.02029419 298.763549 -642.39097795 300.48303105 -635.75541878 302.18001747 C-632.65284522 302.98039035 -629.55705745 303.80404977 -626.46080017 304.62846375 C-624.56573313 305.11526668 -622.67036794 305.60091095 -620.7746582 306.08520508 C-619.91695831 306.32040863 -619.05925842 306.55561218 -618.17556763 306.79794312 C-613.3479634 308.03210808 -613.3479634 308.03210808 -608.65141296 306.64657593 C-607.97995743 306.08596466 -607.30850189 305.52535339 -606.61669922 304.94775391 C-606.05128418 304.51261475 -605.48586914 304.07747559 -604.90332031 303.62915039 C-604.40396973 303.19675049 -603.90461914 302.76435059 -603.39013672 302.31884766 C-602.83326172 301.84125 -602.27638672 301.36365234 -601.70263672 300.87158203 C-601.13802734 300.38109375 -600.57341797 299.89060547 -599.99169922 299.38525391 C-593.96598493 294.18061105 -593.96598493 294.18061105 -590.61669922 291.94775391 C-590.26622843 289.3649166 -590.26622843 289.3649166 -590.48754883 286.31494141 C-590.55758873 284.54183594 -590.55758873 284.54183594 -590.62904358 282.73291016 C-590.72928078 280.79738281 -590.72928078 280.79738281 -590.83154297 278.82275391 C-590.89091594 277.46994458 -590.94899402 276.11707786 -591.00584412 274.76416016 C-591.1596223 271.20197382 -591.33250759 267.64098293 -591.51094818 264.07995605 C-591.67934343 260.68469196 -591.83476503 257.28885679 -591.9921875 253.89306641 C-592.40108864 245.22800647 -592.83938212 236.56451769 -593.28430176 227.90124512 C-593.45863454 224.5066936 -593.6316584 221.11208917 -593.80101013 217.71728516 C-593.92593362 215.21713053 -594.05366972 212.71711396 -594.18495178 210.21728516 C-595.6384897 180.97499201 -595.6384897 180.97499201 -587.61669922 170.94775391 C-581.09035841 164.30748695 -574.39804909 161.57844662 -565.17919922 160.57275391 C-554.50714903 160.74414259 -543.23986798 167.351891 -533.91333008 171.99206543 C-530.54893144 173.66528846 -527.17192037 175.31276746 -523.79638672 176.96337891 C-523.11159241 177.29895813 -522.4267981 177.63453735 -521.72125244 177.98028564 C-513.76008133 181.87287968 -505.71845004 185.5856349 -497.66455078 189.28222656 C-492.06006373 191.86067701 -486.48997408 194.48495324 -480.96826172 197.23681641 C-479.91703125 197.75663086 -478.86580078 198.27644531 -477.78271484 198.81201172 C-475.81376829 199.79016211 -473.85101955 200.78093127 -471.89599609 201.78662109 C-468.32671485 203.55282262 -465.5701972 204.91483262 -461.56201172 205.05322266 C-457.23613496 203.42958456 -453.34612971 201.21835549 -449.36669922 198.88525391 C-447.75944617 197.95319972 -446.15016653 197.02462867 -444.53857422 196.10009766 C-443.83313477 195.68751709 -443.12769531 195.27493652 -442.40087891 194.84985352 C-440.61669922 193.94775391 -440.61669922 193.94775391 -438.61669922 193.94775391 C-438.469021 192.76238037 -438.32134277 191.57700684 -438.16918945 190.35571289 C-435.96341219 172.93325078 -433.45301836 155.55536409 -430.88401222 138.18329811 C-430.20813037 133.61250495 -429.53785602 129.04104363 -428.88061523 124.4675293 C-428.23445994 119.97175091 -427.57481291 115.47814502 -426.90557671 110.98574638 C-426.6557178 109.29328227 -426.41051426 107.60012348 -426.17027473 105.90626717 C-424.54787145 94.5000925 -422.76811478 83.91646534 -413.61669922 75.94775391 C-404.65196413 70.45827213 -396.27979032 68.40136357 -385.92919922 70.82275391 C-379.37232245 73.01172655 -374.12591855 77.22610983 -368.69335938 81.36572266 C-366.45228294 83.07300873 -364.19790235 84.76155927 -361.94091797 86.44775391 C-358.54443749 88.98732571 -355.15316303 91.53363464 -351.76513672 94.08447266 C-344.55344419 99.50613462 -337.28162562 104.84565726 -330.01074219 110.1875 C-326.69935476 112.62224438 -323.3916842 115.06199771 -320.0859375 117.50439453 C-318.45922702 118.70231224 -316.82876836 119.89515923 -315.19433594 121.08251953 C-311.83375444 123.5288821 -308.5278336 125.96705012 -305.40185547 128.70947266 C-300.68398536 132.8313464 -300.68398536 132.8313464 -294.74560547 133.89697266 C-291.56541752 133.15672084 -288.66124373 132.12543219 -285.61669922 130.94775391 C-283.24592984 130.20494734 -280.87090236 129.47558701 -278.49169922 128.76025391 C-277.41662109 128.41607422 -276.34154297 128.07189453 -275.23388672 127.71728516 C-272.61669922 126.94775391 -272.61669922 126.94775391 -270.61669922 126.94775391 C-270.52928467 126.18140625 -270.44187012 125.41505859 -270.35180664 124.62548828 C-269.34584837 119.59269009 -267.60457082 114.92143078 -265.85498047 110.10400391 C-265.47236053 109.03796432 -265.0897406 107.97192474 -264.69552612 106.87358093 C-263.44564553 103.39627241 -262.1880132 99.92183762 -260.92919922 96.44775391 C-260.06424206 94.05367641 -259.1994154 91.65955176 -258.3347168 89.26538086 C-256.5936929 84.44821674 -254.84880391 79.63247202 -253.10205078 74.81738281 C-251.19507982 69.55557588 -249.30652304 64.28754049 -247.43019104 59.01473999 C-246.1856607 55.52290625 -244.93008484 52.03512145 -243.67147827 48.54833984 C-243.09932727 46.95640756 -242.53169852 45.36284171 -241.96890259 43.76757812 C-237.65630355 31.56146533 -233.4739524 22.29388941 -221.61669922 15.94775391 C-212.86742211 12.44804306 -204.67884974 13.29243481 -196.08544922 16.75634766 C-190.43167857 19.48482874 -186.71902205 23.83607005 -182.72607422 28.51806641 C-180.1266458 31.51222284 -177.43905978 34.41696285 -174.74169922 37.32275391 C-170.42124303 41.98403494 -166.14300557 46.67882758 -161.90185547 51.41259766 C-159.28396793 54.31688656 -156.63916718 57.19546166 -153.99169922 60.07275391 C-151.01445103 63.3098642 -148.05716901 66.5591331 -145.17919922 69.88525391 C-143.10106958 72.2823291 -140.98867032 74.64194566 -138.83935547 76.97509766 C-138.33662109 77.52101563 -137.83388672 78.06693359 -137.31591797 78.62939453 C-136.26543274 79.75938299 -135.20676834 80.88182191 -134.14013672 81.99658203 C-131.66021875 84.60814997 -129.55556004 87.041751 -127.58154297 90.07666016 C-125.41295048 93.27833983 -124.01851134 95.06235803 -120.61669922 96.94775391 C-114.3395675 97.53902091 -108.10620673 96.3644994 -101.93554688 95.29638672 C-99.1431262 94.87655342 -96.43535348 94.82621989 -93.61669922 94.94775391 C-93.3551001 94.24336182 -93.09350098 93.53896973 -92.82397461 92.81323242 C-91.52897513 89.73954004 -89.98947986 86.97609483 -88.30029297 84.10009766 C-87.97218124 83.53986404 -87.64406952 82.97963043 -87.30601501 82.40242004 C-86.2258457 80.5611195 -85.1402721 78.72307759 -84.05419922 76.88525391 C-83.28998136 75.58678526 -82.52582217 74.28828209 -81.76171875 72.98974609 C-75.88525503 63.02113842 -69.91143367 53.11262567 -63.87890625 43.23779297 C-60.35810357 37.47301939 -56.86223072 31.69646858 -53.42529297 25.88134766 C-52.75256348 24.74665039 -52.07983398 23.61195312 -51.38671875 22.44287109 C-50.1229668 20.30751172 -48.86444028 18.16904713 -47.61230469 16.02685547 C-38.98697775 1.47969869 -38.98697775 1.47969869 -31.49169922 -1.92724609 C-30.66412109 -2.31654297 -29.83654297 -2.70583984 -28.98388672 -3.10693359 C-19.31370207 -6.96862449 -8.73075005 -5.68250267 0 0 Z M-63.61669922 201.94775391 C-73.53879068 215.72433815 -76.24744431 230.3148539 -74.61669922 246.94775391 C-71.89952944 261.73953769 -63.91343299 274.79334112 -51.80419922 283.69775391 C-38.17350254 292.66040377 -23.22778783 296.74179405 -7.11669922 293.94775391 C8.7273442 290.33599347 21.26360219 282.16327016 30.55908203 268.85009766 C39.39518455 254.79180179 41.5427366 239.42593092 38.73095703 223.17822266 C34.42729947 207.9030089 25.01953228 195.43812564 11.57080078 187.01025391 C-14.67428835 172.99490464 -44.53688126 179.22651958 -63.61669922 201.94775391 Z M-162.61279297 280.38134766 C-163.33994003 280.53421738 -164.0670871 280.6870871 -164.81626892 280.84458923 C-196.31011758 287.50081486 -227.13941318 295.57242187 -257.61669922 305.94775391 C-258.80457031 306.35106934 -259.99244141 306.75438477 -261.21630859 307.16992188 C-336.62392946 332.96781313 -407.69748631 371.50963433 -470.62060547 420.39697266 C-472.51176949 421.86623316 -474.40767534 423.3291734 -476.30419922 424.79150391 C-482.88014865 429.88604815 -489.27695594 435.1488079 -495.56298828 440.59716797 C-499.17179432 443.72398294 -502.83333424 446.76627922 -506.55419922 449.76025391 C-510.25243329 452.76101401 -513.66182496 455.87254957 -516.96826172 459.29541016 C-518.63678179 460.96788407 -520.37594828 462.48471883 -522.17919922 464.01025391 C-528.12313966 469.1267046 -533.54733672 474.80150259 -539.05883789 480.37353516 C-542.77041896 484.12408754 -546.5159645 487.8402837 -550.26123047 491.55712891 C-551.98394958 493.27060738 -553.70660414 494.98415075 -555.42919922 496.69775391 C-556.75467773 498.01066406 -556.75467773 498.01066406 -558.10693359 499.35009766 C-559.35893555 500.59726562 -559.35893555 500.59726562 -560.63623047 501.86962891 C-561.78248901 503.00803223 -561.78248901 503.00803223 -562.9519043 504.16943359 C-564.7306027 505.66342914 -564.7306027 505.66342914 -564.61669922 506.94775391 C-563.92491892 506.94831007 -563.23313862 506.94886623 -562.52039528 506.94943925 C-487.17892054 507.01008091 -411.83744803 507.0731819 -336.49598694 507.14907837 C-335.36996248 507.15021199 -334.24393802 507.15134562 -333.08379161 507.15251359 C-308.61026171 507.17716697 -284.13673228 507.20225994 -259.6632033 507.22780552 C-247.66080423 507.240331 -235.65840507 507.25275938 -223.65600586 507.26513672 C-221.86446355 507.26698671 -221.86446355 507.26698671 -220.03672847 507.26887407 C-181.34754773 507.30877989 -142.65836468 507.34227783 -103.96917522 507.37244081 C-64.1998176 507.40347985 -24.43047123 507.44100745 15.33887242 507.48666003 C20.96036045 507.49311011 26.58184855 507.49948627 32.20333672 507.50581741 C33.30968952 507.50706572 34.41604233 507.50831402 35.55592098 507.50960015 C53.34094392 507.52947724 71.12596562 507.54254607 88.9109963 507.55304718 C106.8055992 507.56375907 124.70018345 507.5816953 142.59477187 507.60692094 C153.21673922 507.62167728 163.83867804 507.63097933 174.46065573 507.63232074 C181.57032901 507.63376619 188.67997025 507.64247832 195.78962895 507.65690983 C199.83149532 507.66491176 203.87329892 507.66993461 207.91517282 507.66603272 C228.98330361 507.64840428 250.09524773 507.84507036 270.88330078 511.69775391 C271.81505127 511.86621826 272.74680176 512.03468262 273.70678711 512.20825195 C325.52677783 521.95244151 374.71061979 545.99145347 413.38330078 581.94775391 C414.67149939 583.05596469 415.96308936 584.16024746 417.25830078 585.26025391 C426.55585716 593.39326787 434.73334953 602.26378552 442.38330078 611.94775391 C443.32635305 613.09154829 444.27179494 614.23337539 445.21923828 615.37353516 C470.31000454 645.75943066 487.57589843 682.23307917 496.13330078 720.63525391 C496.33221924 721.5247876 496.5311377 722.41432129 496.73608398 723.33081055 C499.82529533 737.93929476 500.76338339 752.2540697 500.69580078 767.13525391 C500.69364563 767.99248047 500.69149048 768.84970703 500.68927002 769.73291016 C500.6371466 782.67156924 500.23017756 795.27636118 497.38330078 807.94775391 C497.17930664 808.86331055 496.9753125 809.77886719 496.76513672 810.72216797 C487.69148533 850.22623101 469.18839118 884.70899224 442.38330078 914.94775391 C441.58794922 915.85525391 440.79259766 916.76275391 439.97314453 917.69775391 C432.31767267 926.3388509 424.25248747 934.54962394 415.38330078 941.94775391 C414.57578369 942.62596191 414.57578369 942.62596191 413.75195312 943.31787109 C397.52509589 956.90173393 380.18881271 968.54556482 362.38330078 979.94775391 C365.80757857 983.42174898 369.32217529 986.74159581 372.94580078 990.01025391 C382.8649457 999.05549943 392.13234723 1008.32599066 400.38330078 1018.94775391 C400.87443359 1019.57311035 401.36556641 1020.1984668 401.87158203 1020.84277344 C413.58935473 1035.77865707 423.83225574 1051.17988625 433.13427734 1067.72851562 C433.90650469 1069.10059274 434.68353739 1070.46999265 435.46826172 1071.83496094 C449.23250921 1095.78475157 458.35625758 1122.29913095 464.50830078 1149.13525391 C469.95787472 1172.86186042 481.83578158 1191.75652135 502.67236328 1205.04541016 C525.04396846 1218.55178856 549.84216319 1223.12389033 575.35693359 1217.45263672 C580.59438426 1216.14769118 585.48530176 1214.18812305 590.38330078 1211.94775391 C591.31529297 1211.52880859 592.24728516 1211.10986328 593.20751953 1210.67822266 C601.16411865 1206.73964934 607.1622028 1201.15991353 613.38330078 1194.94775391 C614.05361328 1194.28904297 614.72392578 1193.63033203 615.41455078 1192.95166016 C623.56259583 1184.340658 628.4016817 1173.77311387 632.19580078 1162.69775391 C632.47359375 1161.90216064 632.75138672 1161.10656738 633.03759766 1160.28686523 C639.19145722 1141.27690427 638.83613558 1121.96764989 638.88861084 1102.19714355 C638.90200458 1097.66067087 638.9372865 1093.12468508 638.97705078 1088.58837891 C638.97402954 1087.4071344 638.9710083 1086.22588989 638.96789551 1085.0088501 C639.06762021 1074.13349427 639.06762021 1074.13349427 642.38330078 1069.94775391 C646.96559137 1067.99534475 650.99937636 1067.67890466 655.94921875 1067.62890625 C656.6816127 1067.61886063 657.41400665 1067.608815 658.16859436 1067.59846497 C660.57088491 1067.56776381 662.97306469 1067.55063459 665.37548828 1067.53369141 C667.048441 1067.51496921 668.72138439 1067.49539501 670.39431763 1067.4750061 C674.78363527 1067.42378992 679.1729835 1067.38410811 683.56243896 1067.34686279 C688.04707336 1067.30675705 692.5315817 1067.25569475 697.01611328 1067.20556641 C705.8050895 1067.10893167 714.59412838 1067.02448728 723.38330078 1066.94775391 C727.10830651 1049.04483823 725.62380478 1029.67765063 725.63330078 1011.44775391 C725.63418449 1010.67256535 725.63506821 1009.89737679 725.6359787 1009.09869766 C725.66141103 983.94875795 725.10269214 958.97417403 722.38330078 933.94775391 C722.30043823 933.1790094 722.21757568 932.41026489 722.13220215 931.6182251 C721.87555516 929.2651087 721.61183956 926.91292945 721.34423828 924.56103516 C721.2635611 923.84126999 721.18288391 923.12150482 721.09976196 922.37992859 C720.75134876 919.42131501 720.32866088 916.7838342 719.38330078 913.94775391 C716.9658444 912.52504125 714.60043281 911.27913529 712.07861328 910.06884766 C711.3328302 909.7008606 710.58704712 909.33287354 709.81866455 908.95373535 C708.21854976 908.16547247 706.61620657 907.38172027 705.01190186 906.60202026 C701.65777506 904.97189289 698.31412642 903.32082647 694.97000122 901.67030334 C693.32296523 900.85749818 691.67540477 900.0457549 690.02731323 899.23509216 C684.55520205 896.5406373 679.13046995 893.77452581 673.75830078 890.88525391 C665.05656162 886.22619342 656.21861909 881.84604957 647.38330078 877.44775391 C636.74025494 872.1479632 626.12173868 866.82212212 615.64111328 861.20556641 C612.57694127 859.56512209 609.48633573 857.99001185 606.37548828 856.43994141 C588.60812371 847.51534406 576.03546944 836.37613368 569.57080078 817.07275391 C565.60486061 801.02665114 568.39100662 785.60562931 575.76611328 771.10791016 C576.48352195 769.68536569 577.20062358 768.26266635 577.91748047 766.83984375 C578.31028198 766.06171326 578.7030835 765.28358276 579.10778809 764.48187256 C580.99130354 760.73980739 582.85820469 756.98951727 584.72589111 753.23953247 C586.85443288 748.96587385 588.98666454 744.69405943 591.11865234 740.42211914 C592.20889239 738.23660667 593.29841453 736.05073593 594.38720703 733.86450195 C600.09096269 722.41318166 605.83617813 710.99431693 611.83309937 699.69340515 C616.16303098 691.51767089 620.27700315 683.2374455 624.38330078 674.94775391 C625.86012914 671.96741899 627.33969045 668.98846268 628.82080078 666.01025391 C629.31604248 665.007323 629.31604248 665.007323 629.82128906 663.98413086 C631.216954 661.17782918 632.64151005 658.56044 634.38330078 655.94775391 C634.07029944 651.67103719 632.91743223 648.61888756 630.75048828 644.95556641 C630.1995752 644.01575928 629.64866211 643.07595215 629.08105469 642.10766602 C628.4795459 641.10614502 627.87803711 640.10462402 627.25830078 639.07275391 C626.6322998 638.01773682 626.00629883 636.96271973 625.36132812 635.87573242 C623.38289991 632.55759472 621.38663568 629.25090654 619.38330078 625.94775391 C618.45614258 624.41562256 618.45614258 624.41562256 617.51025391 622.85253906 C598.98998122 592.38896352 578.1747081 563.13710818 554.99658203 536.02978516 C552.59248765 533.21140361 550.26562084 530.33603437 547.94580078 527.44775391 C543.56696977 522.06265653 538.88493333 517.00043486 534.14892578 511.93212891 C532.04127774 509.6725276 530.00456741 507.36947811 528.00830078 505.01025391 C522.99300839 499.20045974 517.4103402 493.89920526 511.95727539 488.50537109 C509.04013016 485.61854209 506.14237117 482.71264858 503.25146484 479.79956055 C500.69336911 477.22183813 498.1321235 474.6472696 495.57080078 472.07275391 C494.27432617 470.76371094 494.27432617 470.76371094 492.95166016 469.42822266 C487.92652335 464.38412307 482.78976065 459.57792123 477.38330078 454.94775391 C475.77561706 453.49329874 474.17090364 452.03554496 472.57080078 450.57275391 C468.30449489 446.72725209 463.93160778 443.05044125 459.46533203 439.43994141 C457.24410709 437.64381782 455.03429701 435.83766855 452.83251953 434.01806641 C386.23239359 379.14733676 309.64839045 336.70823832 228.38330078 307.94775391 C227.22846191 307.5381543 226.07362305 307.12855469 224.88378906 306.70654297 C192.41893541 295.29551881 159.09520112 286.7840943 125.38330078 279.94775391 C124.41485827 279.69369026 123.44641577 279.43962662 122.44862652 279.17786407 C119.3728487 278.64271561 119.3728487 278.64271561 117.11400318 280.36688995 C116.39638656 281.0961544 115.67876993 281.82541885 114.93940735 282.57678223 C114.10564072 283.40670685 113.27187408 284.23663147 112.4128418 285.09170532 C111.51662109 286.01937714 110.62040039 286.94704895 109.69702148 287.90283203 C108.73031393 288.87806392 107.7620258 289.85173121 106.7922821 290.82394409 C104.70631372 292.92187826 102.63185407 295.03036001 100.56554604 297.1476593 C97.29090939 300.50272028 93.99127719 303.83243496 90.68778992 307.15905762 C84.86131466 313.03280853 79.05654774 318.92764814 73.25628662 324.82727051 C64.54801061 333.68432461 55.82246949 342.52429597 47.07754773 351.34516859 C43.8053506 354.64737218 40.544336 357.96010849 37.29209769 361.28196621 C35.25369801 363.36013353 33.2068308 365.42981295 31.15786934 367.49756241 C29.77533404 368.89797801 28.40312464 370.30856499 27.03140259 371.71957397 C19.84770257 378.9423963 11.91982668 385.36287357 2.00830078 388.32275391 C1.05181641 388.61923828 0.09533203 388.91572266 -0.89013672 389.22119141 C-17.30836812 393.5962502 -33.327877 391.1079987 -48.21826172 383.25244141 C-56.89630005 377.83233407 -64.10352408 369.60310043 -71.27319336 362.38891602 C-72.66511753 360.99475069 -74.05704183 359.60058549 -75.44897068 358.20642483 C-76.92249556 356.72956063 -78.39476191 355.25145264 -79.86665535 353.77296257 C-82.94397847 350.6819843 -86.02523183 347.59494335 -89.10704041 344.50843811 C-95.6340882 337.97036169 -102.15684317 331.42801027 -108.67919922 324.88525391 C-115.75375892 317.78864319 -122.82908191 310.69280247 -129.90924925 303.60178572 C-132.97539118 300.53065461 -136.03907799 297.45710118 -139.1009208 294.38168418 C-140.5411083 292.93585303 -141.98241915 291.49115341 -143.42425537 290.04696655 C-145.18523076 288.28310563 -146.94438893 286.51742803 -148.70146179 284.74967957 C-149.47090118 283.98016968 -150.24034058 283.21065979 -151.03309631 282.41783142 C-151.70500031 281.74370681 -152.37690432 281.0695822 -153.06916904 280.37502956 C-155.84460723 277.81526341 -159.1740792 279.6582863 -162.61279297 280.38134766 Z M-798.61669922 735.94775391 C-808.49271851 749.79317326 -811.25186272 764.26978797 -809.61669922 780.94775391 C-807.01494774 795.11122125 -799.4600731 808.13596592 -788.01513672 816.95166016 C-773.72881029 826.4827396 -758.70001453 830.7432055 -741.61669922 827.94775391 C-732.11464193 825.63696096 -724.26440091 822.18335712 -716.61669922 815.94775391 C-715.98376953 815.47595703 -715.35083984 815.00416016 -714.69873047 814.51806641 C-704.50771977 806.55423023 -697.88056779 793.53693521 -695.61669922 780.94775391 C-694.02401669 764.3345792 -696.71560109 749.69518942 -706.61669922 735.94775391 C-716.80105257 723.81969905 -729.75591371 715.38542503 -745.76806641 713.72460938 C-766.7432668 712.27065698 -785.05384031 719.49562399 -798.61669922 735.94775391 Z M671.38330078 735.94775391 C661.46120932 749.72433815 658.75255569 764.3148539 660.38330078 780.94775391 C663.11378355 795.81201121 671.13768393 808.91411044 683.38330078 817.76025391 C697.36718971 826.99047327 712.69973143 831.09180301 729.44970703 827.73291016 C743.81292003 823.88869469 757.70370699 816.07752612 765.51416016 803.06347656 C774.09209102 787.69037758 777.72861525 771.36733574 772.82080078 753.94775391 C767.30528016 738.97158333 757.71953804 726.96387997 743.52783203 719.38525391 C717.64632961 707.55370994 689.68818268 714.14935354 671.38330078 735.94775391 Z M-625.61669922 739.94775391 C-624.06784765 744.59430861 -622.36738034 748.57158063 -620.06201172 752.82275391 C-619.35707291 754.15190971 -618.65266338 755.48134634 -617.94873047 756.81103516 C-616.85310202 758.86941486 -615.75374953 760.92547128 -614.64453125 762.9765625 C-608.1328947 775.04869767 -602.78232184 786.90100898 -603.11669922 800.94775391 C-603.12950928 801.79660156 -603.14231934 802.64544922 -603.15551758 803.52001953 C-603.66750476 819.59975935 -610.02678257 833.59256695 -621.79248047 844.65478516 C-631.59187829 852.6108661 -643.83560068 857.61717556 -655.08154297 863.18212891 C-659.88638784 865.56850502 -664.63443839 868.04624858 -669.36669922 870.57275391 C-679.11007023 875.76193688 -688.99845973 880.65589045 -698.88012695 885.57434082 C-712.52610756 892.36758495 -712.52610756 892.36758495 -726.00512695 899.48510742 C-730.12687899 901.7101995 -734.28718974 903.71644942 -738.57373047 905.60791016 C-739.58854492 906.07084473 -740.60335938 906.5337793 -741.64892578 907.01074219 C-743.61340166 907.90181528 -745.5929938 908.76055692 -747.58837891 909.58007812 C-752.56902206 911.84653591 -752.56902206 911.84653591 -755.61987305 916.17822266 C-756.205849 919.11717664 -756.43848526 921.95577699 -756.61669922 924.94775391 C-756.81636738 926.83843578 -757.01625813 928.72909943 -757.22148132 930.6191864 C-757.51132198 933.39109467 -757.75387242 936.16630735 -757.99438477 938.94287109 C-758.17715764 941.04922583 -758.36795431 943.15473192 -758.56005859 945.26025391 C-758.87912921 948.80308074 -759.17471999 952.34729441 -759.45452881 955.89343262 C-759.6050555 957.80025513 -759.76221122 959.70655118 -759.91992188 961.61279297 C-761.03209986 977.19130039 -760.86264123 992.83738193 -760.86669922 1008.44775391 C-760.86714108 1009.22618275 -760.86758293 1010.00461159 -760.86803818 1010.80662918 C-760.87551851 1035.96815757 -760.36366233 1060.91324697 -757.61669922 1085.94775391 C-757.53184265 1086.74028564 -757.44698608 1087.53281738 -757.35955811 1088.34936523 C-753.93145585 1120.27282126 -748.42515751 1151.76481054 -741.05419922 1183.01025391 C-740.87651001 1183.7656546 -740.6988208 1184.5210553 -740.51574707 1185.29934692 C-737.59243654 1197.64114142 -734.10577898 1209.73597474 -730.61669922 1221.94775391 C-655.04669922 1221.94775391 -579.47669922 1221.94775391 -501.61669922 1221.94775391 C-501.61669922 1062.88775391 -501.61669922 903.82775391 -501.61669922 739.94775391 C-542.53669922 739.94775391 -583.45669922 739.94775391 -625.61669922 739.94775391 Z M-171.61669922 739.94775391 C-171.61669922 784.16775391 -171.61669922 828.38775391 -171.61669922 873.94775391 C-126.27393411 874.03523307 -126.27393411 874.03523307 -80.93115234 874.09423828 C-74.80102515 874.10011085 -68.67089818 874.106172 -62.54077148 874.11254883 C-61.38849173 874.1137357 -61.38849173 874.1137357 -60.2129336 874.11494654 C-47.85230416 874.12795253 -35.49171709 874.15158055 -23.13111267 874.17921229 C-10.42176444 874.20738419 2.28756179 874.22395491 14.99693996 874.23001939 C22.82323844 874.23411156 30.64941715 874.24697968 38.47567872 874.27150331 C44.50263179 874.28941317 50.52948441 874.29109013 56.55646706 874.28707695 C59.01002865 874.28789484 61.46359525 874.29376146 63.91712952 874.30537033 C81.98525771 874.38658648 100.33660565 873.84788536 117.69580078 868.26025391 C118.50718506 868.00679199 119.31856934 867.75333008 120.15454102 867.4921875 C140.67872359 860.79475922 160.44206132 848.50939529 170.55371094 828.80126953 C176.2572403 816.05812801 176.57796919 803.14817994 172.38330078 789.94775391 C164.47500143 770.8867247 148.86907096 758.5561447 130.26220703 750.51025391 C111.86541355 742.92663002 92.34090564 739.76748932 72.49996948 739.82749939 C71.45011938 739.82664496 70.40026928 739.82579054 69.31860554 739.82491022 C65.82566719 739.82327241 62.33277762 739.82874883 58.83984375 739.83422852 C56.32608542 739.83451078 53.81232701 739.83435189 51.29856873 739.83378601 C45.89938621 739.83355881 40.50021921 739.83638218 35.10103989 739.84202385 C27.29488127 739.85017526 19.48872848 739.85275779 11.68256606 739.85401184 C-0.98457517 739.85619665 -13.65170993 739.86284123 -26.31884766 739.87231445 C-38.61865202 739.88150336 -50.91845462 739.88856548 -63.21826172 739.89282227 C-64.36843666 739.89322426 -64.36843666 739.89322426 -65.54184747 739.89363438 C-71.53922428 739.89571399 -77.53660112 739.89767085 -83.53397799 739.89958894 C-112.894891 739.90901061 -142.25578781 739.92913176 -171.61669922 739.94775391 Z M-171.61669922 1087.94775391 C-171.61669922 1132.16775391 -171.61669922 1176.38775391 -171.61669922 1221.94775391 C-159.60779297 1221.99673828 -147.59888672 1222.04572266 -135.22607422 1222.09619141 C-127.63361896 1222.13156259 -120.04117152 1222.16743239 -112.44873047 1222.20556641 C-100.38868972 1222.26604621 -88.32866375 1222.3244475 -76.26855469 1222.36962891 C-67.48617755 1222.40254014 -58.70386386 1222.44236654 -49.92155671 1222.49054396 C-45.27015338 1222.51581759 -40.6187922 1222.53759633 -35.96733856 1222.55109787 C-31.59087474 1222.56391037 -27.21455536 1222.58595602 -22.83817101 1222.6151371 C-21.23053484 1222.62421922 -19.62287541 1222.62990459 -18.01521492 1222.63196754 C-15.8225396 1222.63528563 -13.63027493 1222.65075035 -11.43768311 1222.66928101 C-9.59594072 1222.67757714 -9.59594072 1222.67757714 -7.71699142 1222.68604088 C-4.70474881 1222.94032115 -3.04634845 1223.18476171 -0.61669922 1224.94775391 C2.25388748 1228.62358762 1.66415102 1233.22826966 1.64399719 1237.67124939 C1.64782274 1238.56135367 1.65164829 1239.45145796 1.65558976 1240.3685351 C1.66592523 1243.3571593 1.66192656 1246.34559157 1.65795898 1249.33422852 C1.66230514 1251.47446369 1.66748797 1253.6146973 1.67344666 1255.75492859 C1.68685796 1261.57304119 1.68741297 1267.39108892 1.68488336 1273.20921397 C1.68381513 1278.0627948 1.68869319 1282.91636243 1.69348878 1287.76994044 C1.70459126 1299.21813762 1.70501714 1310.66630199 1.69897461 1322.11450195 C1.69293259 1333.933115 1.70525 1345.75160907 1.72654468 1357.57020181 C1.74414488 1367.71041179 1.75016455 1377.85058385 1.74690694 1387.99080855 C1.74509147 1394.05012309 1.7477565 1400.10935275 1.76162148 1406.16865349 C1.77416951 1411.86579005 1.77228435 1417.56274074 1.75921059 1423.25987434 C1.75683869 1425.3524901 1.75960134 1427.44511882 1.76783371 1429.53771973 C1.7782509 1432.39112224 1.77024092 1435.24389526 1.75752258 1438.09727478 C1.76489687 1438.92820882 1.77227115 1439.75914286 1.7798689 1440.61525673 C1.73667368 1445.21178271 1.37360516 1448.224777 -1.61669922 1451.94775391 C-4.72108856 1454.0173468 -5.37379604 1454.19822553 -8.8878085 1454.20256293 C-9.76606804 1454.20849093 -10.64432758 1454.21441894 -11.54920104 1454.22052658 C-13.00054252 1454.21505205 -13.00054252 1454.21505205 -14.48120403 1454.20946693 C-15.51119677 1454.213463 -16.5411895 1454.21745906 -17.60239413 1454.22157621 C-21.08814158 1454.23263182 -24.57373243 1454.22933779 -28.05949402 1454.22622681 C-30.56996365 1454.23122506 -33.08043166 1454.23709945 -35.59089738 1454.24377954 C-41.06679803 1454.25632873 -46.54265214 1454.26263899 -52.01856613 1454.26354027 C-60.16109166 1454.26491384 -68.30357111 1454.27768246 -76.44608124 1454.29282801 C-90.14171949 1454.31797787 -103.83735386 1454.33382375 -117.53301048 1454.34440994 C-131.09801252 1454.35492539 -144.66299981 1454.36954984 -158.2279911 1454.3896904 C-159.49203004 1454.3915637 -159.49203004 1454.3915637 -160.78160511 1454.39347485 C-165.06102563 1454.39983839 -169.34044604 1454.40627562 -173.61986641 1454.41274123 C-203.94945078 1454.45843235 -234.27903994 1454.49486779 -264.60864258 1454.52587891 C-294.07772523 1454.5560313 -323.54679815 1454.59036444 -353.01586914 1454.63037109 C-353.92386056 1454.6316021 -354.83185197 1454.6328331 -355.76735828 1454.63410141 C-364.88558668 1454.64646801 -374.00381496 1454.65891976 -383.12204316 1454.67143389 C-401.69776058 1454.69692582 -420.27347874 1454.72184941 -438.84919739 1454.74642944 C-440.13038548 1454.74812581 -440.13038548 1454.74812581 -441.43745616 1454.74985644 C-498.49719256 1454.82534151 -555.55694492 1454.8875353 -612.61669922 1454.94775391 C-611.68200625 1456.36730887 -610.74493024 1457.78529487 -609.80688477 1459.20263672 C-609.02452705 1460.38735565 -609.02452705 1460.38735565 -608.22636414 1461.5960083 C-605.81389005 1465.12067066 -603.14975322 1468.40854588 -600.42919922 1471.69775391 C-599.58663574 1472.72582153 -599.58663574 1472.72582153 -598.72705078 1473.7746582 C-594.70118256 1478.67302494 -590.62391615 1483.52738109 -586.50952148 1488.3515625 C-583.57210924 1491.79839933 -580.70734282 1495.29594132 -577.86669922 1498.82275391 C-574.85927674 1502.52049221 -571.74730253 1505.94117875 -568.31982422 1509.24853516 C-565.7378534 1511.82458402 -563.3782507 1514.58344075 -560.99951172 1517.34619141 C-560.23099439 1518.2362821 -559.44822803 1519.1162251 -558.61669922 1519.94775391 C-550.15880117 1519.76007248 -541.78760143 1518.48100816 -533.45849609 1517.09008789 C-532.31990143 1516.90462402 -531.18130676 1516.71916016 -530.00820923 1516.52807617 C-527.55863394 1516.1286963 -525.1094286 1515.72704176 -522.66056824 1515.32330132 C-518.76505238 1514.6822633 -514.86822442 1514.04963737 -510.9708252 1513.42018127 C-499.89712449 1511.63039646 -488.82480195 1509.83247015 -477.75634766 1508.01049805 C-471.62213854 1507.00084241 -465.48606842 1506.00338026 -459.34779787 1505.01870972 C-456.11802713 1504.50007281 -452.88983131 1503.97373559 -449.66319275 1503.43591118 C-425.32044652 1499.38215801 -402.30985317 1495.66201838 -380.61669922 1509.94775391 C-367.16181884 1519.95266495 -360.57993957 1533.41346666 -357.70361328 1549.61889648 C-357.53241596 1550.57326253 -357.36121864 1551.52762857 -357.18483353 1552.5109148 C-355.45121559 1562.45277291 -354.16011296 1572.44529418 -352.88226318 1582.45402527 C-351.70243114 1591.68831913 -350.40414338 1600.90553913 -349.09978867 1610.12288189 C-348.11672263 1617.09457182 -347.17606541 1624.06773343 -346.32519531 1631.05688477 C-345.57402034 1637.22551737 -344.7447393 1643.37791655 -343.8237679 1649.52357322 C-343.3420221 1652.7569259 -342.91096473 1655.9842049 -342.55068207 1659.2336483 C-341.36631706 1672.98135727 -341.36631706 1672.98135727 -334.12572861 1684.0793457 C-328.2671074 1687.70493091 -322.05982563 1690.01516358 -315.49780369 1692.0355854 C-312.06230912 1693.12327589 -308.79635198 1694.47565123 -305.49525547 1695.91299534 C-302.11225932 1697.38548774 -298.67339551 1698.71868805 -295.24169922 1700.07275391 C-294.50422455 1700.36557251 -293.76674988 1700.65839111 -293.00692749 1700.96008301 C-279.34755799 1706.37736776 -265.58419393 1711.3777726 -251.61669922 1715.94775391 C-250.4586377 1716.33350586 -249.30057617 1716.71925781 -248.10742188 1717.11669922 C-198.74619085 1733.49358703 -147.64340786 1744.18748087 -95.94750977 1749.69775391 C-93.69511491 1749.93934313 -91.4440212 1750.19096018 -89.19287109 1750.44384766 C-40.90764345 1755.75228801 10.13443385 1755.37972821 58.38330078 1749.94775391 C59.98109016 1749.77414117 61.57890996 1749.6008081 63.17675781 1749.42773438 C141.85016951 1740.78497541 218.31055913 1719.56925635 290.38330078 1686.94775391 C291.67004322 1686.55673555 291.67004322 1686.55673555 292.98278046 1686.15781784 C298.89825925 1684.10791891 298.89825925 1684.10791891 302.70992184 1679.41005516 C303.55793853 1676.07793239 304.0690685 1672.82120341 304.49633789 1669.40917969 C304.69634399 1668.13531906 304.8963501 1666.86145844 305.10241699 1665.54899597 C305.64861224 1662.06424255 306.13313991 1658.57335209 306.60741878 1655.07818842 C307.11708442 1651.40540798 307.68508783 1647.74168003 308.24720764 1644.07662964 C309.30499194 1637.12314099 310.31316289 1630.16344061 311.30237728 1623.19990146 C312.74949241 1613.02847121 314.27006406 1602.86798818 315.79132175 1592.70742607 C316.01736408 1591.19695265 316.24338221 1589.68647561 316.46937561 1588.17599487 C316.58000904 1587.43716375 316.69064247 1586.69833263 316.80462843 1585.93711269 C317.45390686 1581.589824 318.08873043 1577.24073136 318.71102649 1572.88950098 C325.17680792 1527.70673164 325.17680792 1527.70673164 341.38330078 1512.94775391 C359.85930043 1499.15234084 378.400989 1498.08486104 400.59229851 1501.23098755 C406.31137843 1502.10168894 412.01945638 1503.0319588 417.72511816 1503.98633575 C421.17635521 1504.55959334 424.6308193 1505.11272383 428.08499146 1505.66796875 C434.59814662 1506.71773952 441.10862514 1507.78316186 447.61811459 1508.85540581 C459.30232118 1510.77948454 470.99100579 1512.67609463 482.68060601 1514.5670948 C486.77173555 1515.22955012 490.86166146 1515.89888359 494.95068908 1516.57418823 C498.08496259 1517.09072666 501.22032875 1517.60056764 504.35546875 1518.11181641 C505.47550293 1518.29883118 506.59553711 1518.48584595 507.74951172 1518.67852783 C516.79631732 1520.66000901 516.79631732 1520.66000901 525.35205078 1518.69775391 C525.85736328 1518.12025391 526.36267578 1517.54275391 526.88330078 1516.94775391 C527.75341797 1515.98289062 527.75341797 1515.98289062 528.64111328 1514.99853516 C529.21603516 1514.32177734 529.79095703 1513.64501953 530.38330078 1512.94775391 C530.93759766 1512.32255859 531.49189453 1511.69736328 532.06298828 1511.05322266 C533.21995392 1509.74430531 534.36805079 1508.42750837 535.50830078 1507.10400391 C537.55689172 1504.74812433 539.6553308 1502.44267931 541.75830078 1500.13525391 C545.69722914 1495.76905196 549.45104226 1491.28082177 553.14892578 1486.70947266 C554.58639534 1484.93274017 556.03358257 1483.16380308 557.49267578 1481.40478516 C562.2720024 1475.63994045 566.88579095 1469.76214816 571.44580078 1463.82275391 C572.03071289 1463.06333496 572.615625 1462.30391602 573.21826172 1461.52148438 C573.75870117 1460.8139502 574.29914063 1460.10641602 574.85595703 1459.37744141 C575.34330322 1458.7404834 575.83064941 1458.10352539 576.33276367 1457.44726562 C577.47893153 1456.11640143 577.47893153 1456.11640143 577.38330078 1454.94775391 C576.74514472 1454.9467771 576.10698866 1454.94580029 575.44949454 1454.94479388 C537.56226961 1454.88642404 499.67510401 1454.81255368 461.7879496 1454.71876762 C457.23094779 1454.7075005 452.67394568 1454.69636188 448.11694336 1454.68530273 C447.20978975 1454.68309905 446.30263614 1454.68089537 445.36799303 1454.67862491 C430.71152238 1454.64332688 416.05505177 1454.61842054 401.39855447 1454.59740689 C386.34101367 1454.57558495 371.28352765 1454.54247431 356.22603351 1454.49905235 C346.94721291 1454.47264533 337.66846047 1454.45486952 328.38960419 1454.44840787 C322.01237252 1454.44312026 315.63522635 1454.42679146 309.25804063 1454.40208825 C305.58788733 1454.38818769 301.91788667 1454.3788589 298.24770546 1454.38274574 C260.15870235 1454.41482747 260.15870235 1454.41482747 243.38330078 1447.69775391 C242.59697266 1447.39401855 241.81064453 1447.0902832 241.00048828 1446.77734375 C234.60438023 1444.21916439 228.89117003 1441.10906206 223.38330078 1436.94775391 C222.00271484 1435.91328125 222.00271484 1435.91328125 220.59423828 1434.85791016 C176.47430623 1400.27906534 166.8073394 1335.73905153 156.01644897 1284.20239258 C140.27142039 1197.75494026 140.27142039 1197.75494026 97.38330078 1122.94775391 C96.94824219 1122.4635498 96.51318359 1121.9793457 96.06494141 1121.48046875 C80.91781652 1104.84320005 61.44432073 1094.32578718 39.38330078 1089.94775391 C38.54432408 1089.77945131 37.70534739 1089.61114872 36.84094715 1089.43774605 C26.78206938 1087.6570298 16.90702017 1087.67914679 6.73168945 1087.72070312 C4.77905788 1087.72126831 2.82642588 1087.7209486 0.87379456 1087.71981812 C-4.38976846 1087.71924777 -9.65323904 1087.73095021 -14.91678071 1087.74496603 C-20.43138797 1087.75752678 -25.9459977 1087.75864808 -31.46061707 1087.76101685 C-41.88666518 1087.76721597 -52.31267101 1087.78360546 -62.73870057 1087.80371583 C-76.8391725 1087.83031931 -90.93965611 1087.84106014 -105.04014683 1087.85272026 C-127.23236259 1087.87148727 -149.42448915 1087.91134339 -171.61669922 1087.94775391 Z M-517.26660156 1599.18652344 C-525.81647228 1610.34000759 -531.25213633 1625.87378101 -529.61669922 1639.94775391 C-527.24672823 1657.26348788 -519.63389253 1671.45053229 -505.81591797 1682.10791016 C-492.23102225 1691.15810235 -477.24709089 1694.76966216 -461.11669922 1691.94775391 C-444.11208877 1687.99700394 -430.94653424 1678.86636124 -421.61669922 1664.07275391 C-414.04973164 1649.80837247 -411.91642192 1633.43196783 -416.52294922 1617.84228516 C-422.93265747 1600.8794501 -433.99286127 1589.37817843 -450.24169922 1581.63525391 C-474.12937055 1571.8706444 -500.80233313 1579.78847756 -517.26660156 1599.18652344 Z M392.38330078 1597.94775391 C381.76934069 1611.96134368 377.82450537 1626.52592281 379.38330078 1643.94775391 C382.02164968 1659.27229542 390.06466023 1672.50471506 402.38330078 1681.94775391 C416.07173047 1691.05561957 431.29533427 1694.56797498 447.50830078 1691.88525391 C463.33660789 1688.69196202 476.4523186 1679.79120805 485.38330078 1666.38525391 C493.76635987 1651.98515727 496.31457184 1637.06437678 492.53564453 1620.79931641 C488.21239464 1605.34042285 479.03104834 1593.47610004 465.50830078 1584.94775391 C440.31812394 1571.58487151 411.61918118 1576.86522899 392.38330078 1597.94775391 Z " fill="#000000" transform="translate(1041.61669921875,14.05224609375)"/>
</svg>
