<?xml version="1.0" encoding="UTF-8"?>
<svg version="1.1" xmlns="http://www.w3.org/2000/svg" width="2048" height="2048">
<path d="M0 0 C0.77879517 0.06316406 1.55759033 0.12632813 2.35998535 0.19140625 C86.54008491 7.03756773 169.52751492 24.6853767 369.19287109 108.43017578 C372.15973252 110.08932685 375.13584605 111.73100097 378.11328125 113.37109375 C423.59478691 138.51006493 467.10591786 167.59198265 507.27539062 200.59130859 C509.53888507 202.44017085 511.83083305 204.25190745 514.125 206.0625 C520.56556058 211.19754154 526.77500329 216.60762115 533 222 C533.76570313 222.66257812 534.53140625 223.32515625 535.3203125 224.0078125 C539.73187987 227.84784078 544.0818914 231.75515189 548.421875 235.67578125 C550.13545417 237.22059883 551.85419243 238.75971357 553.578125 240.29296875 C558.14082136 244.35880707 562.57706179 248.48312858 566.8203125 252.8828125 C568.73223146 254.73990941 570.68922275 256.475405 572.70703125 258.21484375 C577.182875 262.10508242 581.38194482 266.23424497 585.5625 270.4375 C586.27857422 271.14970703 586.99464844 271.86191406 587.73242188 272.59570312 C591.80861021 276.67930945 595.69003491 280.86861977 599.45678711 285.23852539 C601.37591028 287.42907652 603.4101978 289.47257996 605.5 291.5 C608.87100065 294.83120807 612.0451403 298.25111628 615.12890625 301.84765625 C617.33079829 304.38052162 619.60195826 306.84332522 621.875 309.3125 C625.9656056 313.79797552 629.84817843 318.40580544 633.66015625 323.12890625 C635.73770779 325.67815563 637.85061042 328.18823776 639.98681641 330.68798828 C645.73756147 337.41775572 651.26093733 344.30072396 656.68115234 351.29882812 C657.93515434 352.91635606 659.19591298 354.52863917 660.45703125 356.140625 C666.9787746 364.52722872 673.21520697 373.10862321 679.39160156 381.75195312 C680.88832542 383.84391324 682.39271309 385.93013985 683.8984375 388.015625 C709.12182141 423.14216411 731.42721613 460.45690943 751 499 C751.34901367 499.68288086 751.69802734 500.36576172 752.05761719 501.06933594 C754.00561944 504.88458404 755.9159297 508.71688563 757.80224609 512.56298828 C758.69449023 514.37839411 759.59139653 516.19151001 760.49072266 518.00341797 C769.7599527 536.70334383 778.26847325 555.61301704 786 575 C786.27694702 575.69377747 786.55389404 576.38755493 786.8392334 577.10235596 C807.86675435 629.92866292 823.76359448 684.28370175 835 740 C835.16135437 740.79992371 835.32270874 741.59984741 835.48895264 742.42401123 C843.6566487 783.18344597 848.54333555 824.51501805 851 866 C851.04732269 866.75766663 851.09464539 867.51533325 851.1434021 868.29595947 C852.17940131 885.18670856 852.20138826 902.08448498 852.1875 919 C852.18723312 919.7290794 852.18696625 920.4581588 852.18669128 921.20933151 C852.17614348 944.19272569 851.90914443 967.08391993 850 990 C849.93683594 990.77879517 849.87367187 991.55759033 849.80859375 992.35998535 C842.56544147 1081.42146622 823.17792716 1169.08296222 764 1315 C763.48566406 1316.10166504 762.97132812 1317.20333008 762.44140625 1318.33837891 C731.64335363 1384.21312606 691.62956416 1446.22954546 645.39160156 1502.30859375 C643.39381881 1504.73677601 641.41818576 1507.18286415 639.4375 1509.625 C631.19085467 1519.67748007 622.68306976 1529.45556256 613.81640625 1538.96484375 C611.25536657 1541.71334008 608.74776222 1544.50626629 606.25 1547.3125 C602.91133762 1551.0428827 599.43776834 1554.58660231 595.87109375 1558.09765625 C594.13655835 1559.86116093 592.53352719 1561.67407089 590.9375 1563.5625 C583.31496345 1572.41447793 574.81237782 1580.80040137 565.88671875 1588.33203125 C563.48498902 1590.45529956 561.25295437 1592.7197784 559 1595 C555.4882345 1598.54918157 551.90991099 1601.91968457 548.1171875 1605.1640625 C545.59400545 1607.3520617 543.14445481 1609.61293113 540.6875 1611.875 C536.20202448 1615.9656056 531.59419456 1619.84817843 526.87109375 1623.66015625 C524.32246973 1625.73719814 521.81294436 1627.8494847 519.31396484 1629.98535156 C512.03614927 1636.2035032 504.57971698 1642.15497112 497 1648 C495.81543213 1648.91555664 495.81543213 1648.91555664 494.60693359 1649.84960938 C491.9708376 1651.88378591 489.32992856 1653.91155774 486.6875 1655.9375 C485.883125 1656.55713623 485.07875 1657.17677246 484.25 1657.81518555 C470.33341312 1668.43969129 455.82484947 1678.24637788 441.25 1687.9375 C440.46463867 1688.46013428 439.67927734 1688.98276855 438.87011719 1689.52124023 C410.51291004 1708.37527713 381.36747362 1725.57892221 351 1741 C350.31711914 1741.34901367 349.63423828 1741.69802734 348.93066406 1742.05761719 C345.11541596 1744.00561944 341.28311437 1745.9159297 337.43701172 1747.80224609 C335.62160589 1748.69449023 333.80848999 1749.59139653 331.99658203 1750.49072266 C313.29665617 1759.7599527 294.38698296 1768.26847325 275 1776 C274.30622253 1776.27694702 273.61244507 1776.55389404 272.89764404 1776.8392334 C233.16475901 1792.65491541 192.494821 1805.67522605 151 1816 C150.25675476 1816.1858667 149.51350952 1816.3717334 148.7477417 1816.56323242 C94.81481184 1830.01538114 39.46758482 1837.79833303 -16 1841 C-16.79610687 1841.04732269 -17.59221375 1841.09464539 -18.41244507 1841.1434021 C-35.28843415 1842.11903459 -52.16331501 1842.20189545 -69.0625 1842.1875 C-69.76643513 1842.18723312 -70.47037025 1842.18696625 -71.19563675 1842.18669128 C-93.84998117 1842.17593292 -116.41257717 1841.86964689 -139 1840 C-139.78093018 1839.93683594 -140.56186035 1839.87367187 -141.36645508 1839.80859375 C-230.84340877 1832.53853558 -318.7817162 1813.19742002 -530 1720 C-531.83154883 1718.93666862 -533.66359055 1717.87418581 -535.49609375 1716.8125 C-563.65661572 1700.42195503 -590.78214744 1682.34042492 -617 1663 C-617.67820801 1662.50193848 -618.35641602 1662.00387695 -619.05517578 1661.49072266 C-628.6917408 1654.40209952 -638.03254172 1647.00171573 -647.27539062 1639.40869141 C-649.53888507 1637.55982915 -651.83083305 1635.74809255 -654.125 1633.9375 C-660.56556058 1628.80245846 -666.77500329 1623.39237885 -673 1618 C-673.76570313 1617.33742188 -674.53140625 1616.67484375 -675.3203125 1615.9921875 C-679.73326703 1612.15095178 -684.08475162 1608.24252916 -688.42578125 1604.3203125 C-690.1258308 1602.78794614 -691.83147568 1601.26176199 -693.54296875 1599.7421875 C-698.39710445 1595.42238302 -703.07832975 1591.00219737 -707.6015625 1586.3359375 C-709.60815203 1584.38163695 -711.65063149 1582.55123906 -713.76953125 1580.72265625 C-718.04758105 1577.00797922 -722.06909352 1573.07914648 -726.0625 1569.0625 C-727.06506836 1568.06573242 -727.06506836 1568.06573242 -728.08789062 1567.04882812 C-732.03904409 1563.08999506 -735.78553931 1559.01312979 -739.43920898 1554.77905273 C-741.36529956 1552.58361679 -743.40423834 1550.53320161 -745.5 1548.5 C-748.87100065 1545.16879193 -752.0451403 1541.74888372 -755.12890625 1538.15234375 C-757.33079829 1535.61947838 -759.60195826 1533.15667478 -761.875 1530.6875 C-765.9656056 1526.20202448 -769.84817843 1521.59419456 -773.66015625 1516.87109375 C-775.73770779 1514.32184437 -777.85061042 1511.81176224 -779.98681641 1509.31201172 C-785.73756147 1502.58224428 -791.26093733 1495.69927604 -796.68115234 1488.70117188 C-797.93515434 1487.08364394 -799.19591298 1485.47136083 -800.45703125 1483.859375 C-806.9787746 1475.47277128 -813.21520697 1466.89137679 -819.39160156 1458.24804688 C-820.88832542 1456.15608676 -822.39271309 1454.06986015 -823.8984375 1451.984375 C-849.12182141 1416.85783589 -871.42721613 1379.54309057 -891 1341 C-891.52352051 1339.97567871 -891.52352051 1339.97567871 -892.05761719 1338.93066406 C-894.00561944 1335.11541596 -895.9159297 1331.28311437 -897.80224609 1327.43701172 C-898.69449023 1325.62160589 -899.59139653 1323.80848999 -900.49072266 1321.99658203 C-909.7599527 1303.29665617 -918.26847325 1284.38698296 -926 1265 C-926.27694702 1264.30622253 -926.55389404 1263.61244507 -926.8392334 1262.89764404 C-947.21237512 1211.71529874 -963.01340498 1158.9780023 -974 1105 C-974.15190796 1104.25484131 -974.30381592 1103.50968262 -974.46032715 1102.74194336 C-982.00382978 1065.54225875 -987.10381961 1027.84374606 -990 990 C-990.1544458 988.14109131 -990.1544458 988.14109131 -990.31201172 986.24462891 C-995.48105505 922.37877121 -992.38631801 857.41945524 -984 794 C-983.89192017 793.17920959 -983.78384033 792.35841919 -983.67248535 791.51275635 C-976.5578484 737.90894156 -964.05983869 685.1459231 -947.23730469 633.78076172 C-946.10721045 630.3275969 -944.99298862 626.8697625 -943.8828125 623.41015625 C-928.01176128 574.39279807 -906.76223065 525.76177642 -881.56982422 480.80712891 C-879.91067315 477.84026748 -878.26899903 474.86415395 -876.62890625 471.88671875 C-851.48993507 426.40521309 -822.40801735 382.89408214 -789.40869141 342.72460938 C-787.55982915 340.46111493 -785.74809255 338.16916695 -783.9375 335.875 C-778.80245846 329.43443942 -773.39237885 323.22499671 -768 317 C-767.33742188 316.23429687 -766.67484375 315.46859375 -765.9921875 314.6796875 C-762.15215922 310.26812013 -758.24484811 305.9181086 -754.32421875 301.578125 C-752.77940117 299.86454583 -751.24028643 298.14580757 -749.70703125 296.421875 C-745.64119293 291.85917864 -741.51687142 287.42293821 -737.1171875 283.1796875 C-735.26009059 281.26776854 -733.524595 279.31077725 -731.78515625 277.29296875 C-727.89491758 272.817125 -723.76575503 268.61805518 -719.5625 264.4375 C-718.85029297 263.72142578 -718.13808594 263.00535156 -717.40429688 262.26757812 C-713.32069055 258.19138979 -709.13138023 254.30996509 -704.76147461 250.54321289 C-702.57092348 248.62408972 -700.52742004 246.5898022 -698.5 244.5 C-695.16879193 241.12899935 -691.74888372 237.9548597 -688.15234375 234.87109375 C-685.61947838 232.66920171 -683.15667478 230.39804174 -680.6875 228.125 C-676.20202448 224.0343944 -671.59419456 220.15182157 -666.87109375 216.33984375 C-664.32184437 214.26229221 -661.81176224 212.14938958 -659.31201172 210.01318359 C-652.58224428 204.26243853 -645.69927604 198.73906267 -638.70117188 193.31884766 C-637.08364394 192.06484566 -635.47136083 190.80408702 -633.859375 189.54296875 C-625.47277128 183.0212254 -616.89137679 176.78479303 -608.24804688 170.60839844 C-606.15608676 169.11167458 -604.06986015 167.60728691 -601.984375 166.1015625 C-566.85783589 140.87817859 -529.54309057 118.57278387 -491 99 C-490.31711914 98.65098633 -489.63423828 98.30197266 -488.93066406 97.94238281 C-485.11541596 95.99438056 -481.28311437 94.0840703 -477.43701172 92.19775391 C-475.62160589 91.30550977 -473.80848999 90.40860347 -471.99658203 89.50927734 C-436.74275118 72.03456271 -400.31463249 57.49159371 -363 45 C-361.96713867 44.65259766 -360.93427734 44.30519531 -359.87011719 43.94726562 C-327.0878825 32.98376834 -293.77109774 24.31417915 -260 17 C-259.33280945 16.85453735 -258.6656189 16.70907471 -257.97821045 16.5592041 C-219.63297824 8.21952138 -180.37391496 3.32492847 -141.28137207 0.18426514 C-139.12166983 0.0098272 -136.9626964 -0.17191908 -134.80371094 -0.35498047 C-90.39939069 -4.03909541 -44.38709006 -3.69789971 0 0 Z " fill="#F47421" transform="translate(1094,104)"/>
<path d="M0 0 C3.90261835 -0.00218186 7.80495101 -0.02039552 11.70751953 -0.03930664 C27.67579745 -0.07520104 43.41562507 0.61592025 59.30517578 2.18530273 C60.71643324 2.31811401 62.12772466 2.45056518 63.5390625 2.58251953 C66.83963237 2.90358926 70.13489385 3.25171594 73.43017578 3.62280273 C74.56575928 3.75058105 75.70134277 3.87835938 76.87133789 4.01000977 C84.39922417 4.88942313 91.71650941 6.07490865 99.11572266 7.72436523 C101.85306536 8.30064791 104.60064046 8.8054568 107.35205078 9.31030273 C139.32689133 15.19616051 139.32689133 15.19616051 147.30517578 19.18530273 C147.94968721 21.79083945 148.49056517 24.36426143 148.99267578 26.99780273 C157.87820256 69.64576444 183.46363802 109.12782191 219.80517578 133.43530273 C222.28832043 135.04632471 224.79405053 136.61840418 227.30517578 138.18530273 C228.35447266 138.86077148 229.40376953 139.53624023 230.48486328 140.23217773 C256.69991469 156.25604779 287.11121144 163.66304884 317.61767578 163.49780273 C318.33984283 163.49564758 319.06200989 163.49349243 319.80606079 163.49127197 C338.20942705 163.4033938 354.37207745 159.92794909 372.00366211 154.80200195 C372.76316162 154.59849121 373.52266113 154.39498047 374.30517578 154.18530273 C375.12671143 153.9064624 375.94824707 153.62762207 376.79467773 153.34033203 C379.30517578 153.18530273 379.30517578 153.18530273 381.68945312 154.87255859 C382.49850098 155.7066626 383.30754883 156.5407666 384.14111328 157.40014648 C385.04087891 158.31473633 385.94064453 159.22932617 386.86767578 160.17163086 C387.80535603 161.155183 388.742855 162.13890801 389.68017578 163.12280273 C391.06076172 164.53142578 391.06076172 164.53142578 392.46923828 165.96850586 C397.59193765 171.22659085 402.5424562 176.60007149 407.30517578 182.18530273 C407.7639209 182.71663818 408.22266602 183.24797363 408.6953125 183.79541016 C415.82191504 192.06030789 422.68166205 200.5128349 429.30517578 209.18530273 C429.83481934 209.87833496 430.36446289 210.57136719 430.91015625 211.28540039 C452.06088299 239.11790416 469.625068 268.98920313 485.30517578 300.18530273 C485.79759766 301.1554834 486.29001953 302.12566406 486.79736328 303.12524414 C512.04338742 353.08552189 528.56143716 409.39075576 535.04492188 464.97045898 C535.31562539 467.27423225 535.61573054 469.57303488 535.91845703 471.87280273 C537.16208363 481.80845428 537.30517578 490.99804256 537.30517578 501.18530273 C479.55517578 501.18530273 421.80517578 501.18530273 362.30517578 501.18530273 C360.98517578 491.94530273 359.66517578 482.70530273 358.30517578 473.18530273 C357.45467893 468.45382986 356.59855433 463.803436 355.55517578 459.12280273 C355.30405029 457.98327148 355.0529248 456.84374023 354.79418945 455.66967773 C342.96915417 403.53772469 319.92391302 353.86567595 286.30517578 312.18530273 C285.54720703 311.23526367 284.78923828 310.28522461 284.00830078 309.30639648 C278.97912266 303.07194982 273.7150956 297.0902479 268.30517578 291.18530273 C267.38298654 290.16996306 266.46112469 289.15432595 265.53955078 288.13842773 C258.89044165 280.82383891 252.20303317 273.68704095 244.69580078 267.23999023 C242.90146239 265.69779743 241.12275369 264.13738898 239.35205078 262.56811523 C194.02623566 222.63129919 135.34981425 193.00226369 75.61767578 182.56030273 C74.48523437 182.35663086 73.35279297 182.15295898 72.18603516 181.94311523 C70.06136602 181.56148209 67.93619525 181.18261969 65.81030273 180.80786133 C63.81891755 180.45416402 61.82876326 180.0928183 59.84327698 179.7073822 C53.29803136 178.45729172 46.80906979 177.61597782 40.16845703 177.07983398 C39.13650711 176.99594925 38.10455719 176.91206451 37.04133606 176.82563782 C25.52767517 175.95809757 14.03413307 175.83232196 2.49267578 175.87280273 C0.85865311 175.87553696 0.85865311 175.87553696 -0.80838013 175.87832642 C-17.29685165 175.9246343 -33.39772696 176.48638655 -49.69482422 179.18530273 C-51.29946533 179.43473633 -51.29946533 179.43473633 -52.93652344 179.68920898 C-82.49034538 184.34403292 -111.67891101 192.50733833 -138.86401367 205.10351562 C-141.68313095 206.39812845 -143.54800379 207.18530273 -146.69482422 207.18530273 C-147.10619629 206.4627832 -147.51756836 205.74026367 -147.94140625 204.99584961 C-155.72330271 191.33492131 -163.53624738 177.69493956 -171.47485352 164.12426758 C-177.63019273 153.59835049 -183.71739533 143.03346106 -189.80371094 132.4675293 C-192.93162572 127.03870328 -196.06344388 121.61213025 -199.19482422 116.18530273 C-200.44092261 114.02514916 -201.68701635 111.86499291 -202.93310547 109.70483398 C-205.47098415 105.30571199 -208.01019004 100.90735953 -210.55029297 96.50952148 C-218.30059858 83.08823659 -226.02068866 69.65029715 -233.69482422 56.18530273 C-189.04059339 21.2809311 -113.98192615 9.62321962 -59.25732422 2.74780273 C-57.45062256 2.52012207 -57.45062256 2.52012207 -55.60742188 2.2878418 C-37.11403925 0.13620049 -18.59830537 -0.00115906 0 0 Z " fill="#FEFEFE" transform="translate(1019.69482421875,489.814697265625)"/>
<path d="M0 0 C3.64751775 1.21583925 3.85255743 2.00287997 5.64453125 5.28515625 C6.14903809 6.19563721 6.65354492 7.10611816 7.17333984 8.04418945 C7.98472412 9.53825317 7.98472412 9.53825317 8.8125 11.0625 C9.98672576 13.1831537 11.16255703 15.30291907 12.33984375 17.421875 C12.94554199 18.51564453 13.55124023 19.60941406 14.17529297 20.73632812 C17.00730101 25.80165908 19.93767997 30.80772974 22.875 35.8125 C29.67010868 47.41868187 36.39590465 59.06393965 43.10888672 70.71777344 C46.23680146 76.14659938 49.36853731 81.57322007 52.5 87 C56.26363919 93.52233275 60.02644622 100.04513762 63.78515625 106.5703125 C64.41043213 107.65489746 65.03570801 108.73948242 65.67993164 109.85693359 C66.92457436 112.01758558 68.16728436 114.17935219 69.40795898 116.34228516 C72.58818956 121.87491691 75.81558412 127.37163988 79.125 132.828125 C79.78556396 133.92753418 80.44612793 135.02694336 81.12670898 136.15966797 C82.39153172 138.26052752 83.66919157 140.35372605 84.96118164 142.43798828 C85.80217407 143.84153564 85.80217407 143.84153564 86.66015625 145.2734375 C87.41244507 146.50199463 87.41244507 146.50199463 88.17993164 147.75537109 C89 150 89 150 88.29833984 152.16772461 C86.44218551 154.78721281 84.17081808 156.32538475 81.5625 158.1875 C80.47124688 158.98113864 79.38143415 159.77676108 78.29296875 160.57421875 C77.7417334 160.97688965 77.19049805 161.37956055 76.62255859 161.79443359 C68.67217651 167.7015938 61.29588924 174.31574219 54 181 C52.98466033 181.92218924 51.96902321 182.84405109 50.953125 183.765625 C43.63853617 190.41473413 36.50173822 197.10214261 30.0546875 204.609375 C28.5124947 206.40371339 26.95208625 208.18242209 25.3828125 209.953125 C-11.5136431 251.82831914 -36.33542729 302.43495679 -51 356 C-51.21350098 356.75941895 -51.42700195 357.51883789 -51.64697266 358.30126953 C-54.52079189 368.64150666 -56.06770108 379.2217421 -57.6875 389.8125 C-57.79645599 390.52287415 -57.90541199 391.23324829 -58.01766968 391.96514893 C-60.54936862 408.62087297 -61.24082449 424.91590024 -61.25 441.75 C-61.25067474 442.8602655 -61.25134949 443.97053101 -61.25204468 445.11444092 C-61.22616992 471.98404443 -59.29751453 497.78955901 -53 524 C-52.68864887 525.37206641 -52.37862053 526.7444341 -52.0703125 528.1171875 C-40.21813407 578.56761073 -17.57512696 626.61349056 15 667 C15.75796875 667.95003906 16.5159375 668.90007813 17.296875 669.87890625 C21.59366047 675.20543858 26.03247853 680.37360623 30.6484375 685.42578125 C32.25161349 687.18075297 33.83962335 688.94967107 35.4140625 690.73046875 C46.90177846 703.58907528 59.48356136 715.26162979 73.23681641 725.65722656 C76.48056551 728.12754228 79.67373659 730.66254265 82.875 733.1875 C84.05969617 734.11874365 85.24457248 735.0497582 86.4296875 735.98046875 C87.27789063 736.64691406 88.12609375 737.31335937 89 738 C87.70891809 741.39002721 86.24218459 744.52160831 84.453125 747.67578125 C83.94547607 748.57321045 83.43782715 749.47063965 82.91479492 750.39526367 C82.09072144 751.83929565 82.09072144 751.83929565 81.25 753.3125 C80.38435425 754.83677612 80.38435425 754.83677612 79.5012207 756.3918457 C74.87474475 764.51704339 70.17017856 772.5956416 65.44433594 780.66333008 C60.91014007 788.41246774 56.44435477 796.19917869 52 804 C46.46193315 813.71849436 40.87082584 823.40405324 35.22094727 833.05810547 C30.92849736 840.39588691 26.67707045 847.75655919 22.4375 855.125 C15.7150608 866.80367995 8.88602166 878.4171238 2 890 C-2.23308915 888.39433009 -5.67782565 886.29274613 -9.3125 883.625 C-9.91860107 883.18510742 -10.52470215 882.74521484 -11.14916992 882.29199219 C-13.1043766 880.8679371 -15.05253519 879.43461958 -17 878 C-17.639375 877.53239258 -18.27875 877.06478516 -18.9375 876.58300781 C-32.65033617 866.5402906 -45.9587309 855.96018207 -58.41015625 844.37890625 C-59.77329822 843.12678942 -61.14232583 841.87969414 -62.5559082 840.68481445 C-69.41369564 834.8678504 -75.69250338 828.45789208 -82.03637695 822.09399414 C-84.05764268 820.0673702 -86.08419574 818.04614453 -88.11132812 816.02539062 C-94.28371866 809.85651615 -100.40884229 803.70959005 -106 797 C-106.90010321 795.95492016 -107.80111292 794.91062023 -108.703125 793.8671875 C-115.34248915 786.06695293 -121.78245161 778.14091894 -128 770 C-128.52964355 769.30696777 -129.05928711 768.61393555 -129.60498047 767.89990234 C-150.75269447 740.07136308 -168.33699118 710.20094447 -184 679 C-184.69802734 677.61796387 -184.69802734 677.61796387 -185.41015625 676.20800781 C-195.59871879 655.91452018 -203.49525696 634.67498545 -210.9375 613.25 C-211.27864334 612.27599747 -211.27864334 612.27599747 -211.62667847 611.28231812 C-214.15248299 604.04270631 -216.43819215 596.77571142 -218.37890625 589.359375 C-218.55864487 588.69705872 -218.73838348 588.03474243 -218.92356873 587.35235596 C-219.8703163 583.58135424 -220.23937534 580.71937917 -219 577 C-217.03125 574.859375 -217.03125 574.859375 -214.5 572.75 C-213.58863281 571.96109375 -212.67726563 571.1721875 -211.73828125 570.359375 C-210.83464844 569.58078125 -209.93101562 568.8021875 -209 568 C-176.48359746 538.76401329 -160.598046 494.90827684 -157.82275391 452.27734375 C-156.81197934 430.47532029 -159.908282 408.60988965 -167 388 C-167.23058105 387.32469238 -167.46116211 386.64938477 -167.69873047 385.95361328 C-177.22320511 358.77738898 -196.04610632 328.8753199 -220 312 C-219.42082256 306.57624464 -218.49536357 301.44003375 -217 296.1875 C-216.6762439 295.04631714 -216.6762439 295.04631714 -216.34594727 293.88208008 C-197.97170651 230.43871082 -167.32871636 171.22899331 -127 119 C-126.3205835 118.11223877 -126.3205835 118.11223877 -125.62744141 117.20654297 C-120.4571896 110.45602721 -115.12137345 103.87237782 -109.5625 97.4375 C-109.08562744 96.88505615 -108.60875488 96.3326123 -108.11743164 95.76342773 C-98.6650362 84.93743505 -88.74877211 74.58273868 -78.57128906 64.44091797 C-76.7338424 62.60889005 -74.9018835 60.77149395 -73.0703125 58.93359375 C-67.21758142 53.07721033 -61.35108132 47.32152594 -55 42 C-53.95514991 41.0996301 -52.91085422 40.19861634 -51.8671875 39.296875 C-40.94962546 30.00411984 -29.71544558 21.21133635 -18.1875 12.6875 C-17.41132324 12.11281982 -16.63514648 11.53813965 -15.83544922 10.94604492 C-13.56856545 9.2805251 -11.28852407 7.63563742 -9 6 C-8.1848291 5.41041504 -7.3696582 4.82083008 -6.52978516 4.21337891 C-5.73233887 3.65440918 -4.93489258 3.09543945 -4.11328125 2.51953125 C-3.39567627 2.01139893 -2.67807129 1.5032666 -1.9387207 0.97973633 C-0.97905396 0.49476685 -0.97905396 0.49476685 0 0 Z " fill="#FEFEFE" transform="translate(727,579)"/>
<path d="M0 0 C57.75 0 115.5 0 175 0 C175 14.99113842 175 14.99113842 174.265625 21.44140625 C174.18773239 22.16829147 174.10983978 22.8951767 174.02958679 23.64408875 C173.77854709 25.95130861 173.51552318 28.25690532 173.25 30.5625 C173.16074249 31.35547485 173.07148499 32.14844971 172.97952271 32.9654541 C171.68252669 44.42290185 170.00810433 55.68224139 167.45263672 66.93408203 C166.70757103 70.33470007 166.11339165 73.76119788 165.5 77.1875 C162.6465757 92.43119455 158.69408159 107.22507227 154 122 C153.61956543 123.20253418 153.23913086 124.40506836 152.84716797 125.64404297 C143.702811 154.41655752 132.54436773 181.9822239 119 209 C118.51563477 209.97130859 118.03126953 210.94261719 117.53222656 211.94335938 C103.91382118 239.10739309 87.69492715 265.02610961 69 289 C68.57267578 289.55059082 68.14535156 290.10118164 67.70507812 290.66845703 C59.24195707 301.56547566 50.67022596 312.31130816 41.31640625 322.46484375 C39.43270677 324.52643053 37.61363292 326.61720066 35.8125 328.75 C32.11468496 332.96213944 28.26398789 337.02740082 24.375 341.0625 C23.72893799 341.75504883 23.08287598 342.44759766 22.41723633 343.16113281 C21.47980591 344.11971191 21.47980591 344.11971191 20.5234375 345.09765625 C19.96575684 345.68039307 19.40807617 346.26312988 18.83349609 346.86352539 C17 348 17 348 14.60498047 347.76513672 C13.74533691 347.5126416 12.88569336 347.26014648 12 347 C10.74461426 346.68687866 10.74461426 346.68687866 9.46386719 346.36743164 C8.14370605 346.01733032 8.14370605 346.01733032 6.796875 345.66015625 C5.81589844 345.40169922 4.83492187 345.14324219 3.82421875 344.87695312 C1.79030682 344.33810861 -0.24354826 343.79904946 -2.27734375 343.25976562 C-5.18200788 342.49468089 -8.08935698 341.7419989 -11 341 C-11.77666016 340.80132324 -12.55332031 340.60264648 -13.35351562 340.39794922 C-53.6351019 330.7221185 -99.28440271 341.23991221 -134.17407227 362.27294922 C-145.65233134 369.40782295 -155.92557003 378.03449661 -166 387 C-166.67804688 387.60328125 -167.35609375 388.2065625 -168.0546875 388.828125 C-189.33790467 408.99117284 -206.68803124 440.16082728 -211.97265625 469.0234375 C-212.12758545 469.84577881 -212.28251465 470.66812012 -212.44213867 471.51538086 C-212.72327087 473.08848438 -212.97153502 474.66794575 -213.1809082 476.25219727 C-213.5546875 478.40234375 -213.5546875 478.40234375 -215 482 C-217.89557885 483.61178993 -219.83198746 484.27247593 -223 485 C-224.07314453 485.27191162 -225.14628906 485.54382324 -226.25195312 485.82397461 C-230.09458949 486.76789299 -233.94962822 487.64396145 -237.8125 488.5 C-238.49919769 488.65407318 -239.18589539 488.80814636 -239.8934021 488.96688843 C-249.53231476 491.12588471 -259.17046349 493.03078067 -268.95703125 494.39453125 C-271.88107542 494.80287925 -274.74239525 495.35722659 -277.62890625 495.9765625 C-284.07657353 497.29446446 -290.58184673 497.91299581 -297.125 498.5625 C-298.32898437 498.68818359 -299.53296875 498.81386719 -300.7734375 498.94335938 C-304.51361116 499.3233451 -308.25506815 499.67030964 -312 500 C-313.11793945 500.10006348 -314.23587891 500.20012695 -315.38769531 500.30322266 C-328.64091007 501.30835168 -341.93635474 501.22282006 -355.22021484 501.24023438 C-358.04489366 501.24457521 -360.86925946 501.25831873 -363.69384766 501.28125 C-415.6402159 501.69369958 -467.47079756 493.76605243 -517 478 C-518.04317383 477.67451172 -519.08634766 477.34902344 -520.16113281 477.01367188 C-546.36143125 468.80221944 -571.41649319 458.1990609 -596 446 C-591.70953433 437.03548399 -587.00454573 428.45017071 -581.91796875 419.91796875 C-578.49130689 414.16636982 -575.15296583 408.36445224 -571.8125 402.5625 C-570.85633789 400.90299316 -570.85633789 400.90299316 -569.88085938 399.20996094 C-568.57220371 396.93844323 -567.26377451 394.66679503 -565.95556641 392.39501953 C-562.80667949 386.92830025 -559.6532151 381.46422354 -556.5 376 C-552.73634635 369.47767561 -548.97355377 362.95486237 -545.21484375 356.4296875 C-538.51445773 344.80086835 -531.788761 333.18758546 -525.01879883 321.59912109 C-519.65359741 312.41419241 -514.32186764 303.2100893 -509 294 C-505.23852351 294.6295376 -502.01833301 295.71554012 -498.51953125 297.22265625 C-497.45105957 297.67495605 -496.38258789 298.12725586 -495.28173828 298.59326172 C-494.13688965 299.07811035 -492.99204102 299.56295898 -491.8125 300.0625 C-463.87783268 311.64884535 -434.9372746 318.95360665 -405 323 C-403.7219751 323.18022705 -402.4439502 323.3604541 -401.12719727 323.54614258 C-387.87520589 325.29418156 -374.66194799 325.35561875 -361.3125 325.3125 C-360.14457916 325.31067719 -358.97665833 325.30885437 -357.77334595 325.30697632 C-330.90229011 325.23643776 -305.20975945 323.30799261 -279 317 C-278.2260791 316.81791992 -277.4521582 316.63583984 -276.65478516 316.44824219 C-220.23762617 303.13675078 -167.6426535 277.29737173 -124 239 C-123.29101562 238.39027344 -122.58203125 237.78054688 -121.8515625 237.15234375 C-110.56106709 227.40565077 -99.72114117 217.32292012 -90 206 C-89.10476888 204.97993992 -88.20888566 203.96045192 -87.3125 202.94140625 C-70.1035668 183.2720152 -55.7216548 161.79972123 -43 139 C-42.61247559 138.31679687 -42.22495117 137.63359375 -41.82568359 136.9296875 C-24.33530753 105.99742294 -12.88461228 71.70402261 -5.8125 37 C-5.57450684 35.83919922 -5.33651367 34.67839844 -5.09130859 33.48242188 C-2.90154081 22.34176728 -1.54267464 11.31294739 0 0 Z " fill="#FEFEFE" transform="translate(1382,1057)"/>
<path d="M0 0 C0.6914209 0.18804199 1.3828418 0.37608398 2.09521484 0.56982422 C19.28360864 5.37004883 35.34149933 13.47261291 49 25 C49.98097656 25.81855469 50.96195313 26.63710938 51.97265625 27.48046875 C75.20958686 47.47285618 90.38265146 76.39022149 93 107 C94.68977405 144.24693432 85.49402635 176.68565307 60.25 204.6875 C39.92461418 226.45766284 9.72018419 241.72624943 -20.19580078 243.15234375 C-23.73581969 243.25213287 -27.2711266 243.29776441 -30.8125 243.3125 C-31.93301758 243.31805908 -33.05353516 243.32361816 -34.20800781 243.3293457 C-66.60824293 243.04986859 -95.55697195 227.81918859 -118.5625 205.8125 C-141.99148438 181.75119928 -153.66399348 148.78390915 -153.28125 115.46728516 C-152.43904578 81.99586002 -136.77283374 51.90303823 -113.0703125 28.76171875 C-83.47660909 1.50334033 -39.15084031 -10.87293664 0 0 Z " fill="#FEFEFE" transform="translate(427,904)"/>
<path d="M0 0 C1.15653076 0.36206543 1.15653076 0.36206543 2.33642578 0.73144531 C35.2374146 11.29750716 61.07406812 33.03143803 76.99536133 63.72216797 C85.36250718 80.47943056 89.18861616 97.71599173 89.24023438 116.37597656 C89.24984927 118.467216 89.28089292 120.55743157 89.3125 122.6484375 C89.41414002 135.37673632 87.46075971 147.4274991 82.875 159.375 C82.5756958 160.16535645 82.2763916 160.95571289 81.96801758 161.77001953 C76.57820618 175.5713492 69.50853962 187.66408632 60 199 C59.33226562 199.81984375 58.66453125 200.6396875 57.9765625 201.484375 C37.81574271 225.34820251 6.65050993 239.0921017 -24 242 C-57.64446021 244.37252298 -89.65380267 233.22747138 -115.20922852 211.33959961 C-133.66134617 195.08079985 -147.06576982 173.97534959 -153 150 C-153.18046875 149.29601074 -153.3609375 148.59202148 -153.546875 147.86669922 C-161.36026911 116.67251511 -156.67664442 84.46944727 -140.53491211 56.63769531 C-122.69087244 27.11452904 -95.25121812 7.61833265 -62.28515625 -1.7734375 C-42.61540993 -6.54395594 -19.25128607 -6.14393423 0 0 Z " fill="#FEFEFE" transform="translate(1371,1448)"/>
<path d="M0 0 C1.36898438 0.29003906 1.36898438 0.29003906 2.765625 0.5859375 C33.41939752 7.82624573 60.06143922 28.25718176 76.75708008 54.59863281 C93.15602084 81.18605118 99.51981595 112.35820576 93.9453125 143.33203125 C84.89573271 178.44589662 66.42172115 207.66748053 34.921875 226.87451172 C16.46946279 237.68061186 -4.42590673 243.42256492 -25.75 243.25 C-27.61313843 243.23658569 -27.61313843 243.23658569 -29.51391602 243.22290039 C-63.93688418 242.78739512 -93.48424759 229.17593324 -117.6105957 204.80761719 C-139.90018714 181.58578355 -151.58093452 149.7738078 -151.35620117 117.75952148 C-151.14144445 109.29498298 -149.8709527 101.24041585 -148 93 C-147.61714844 91.15921875 -147.61714844 91.15921875 -147.2265625 89.28125 C-140.38542478 59.9082917 -120.41144801 32.89711465 -95.07470703 16.77490234 C-66.21579847 -0.75141431 -33.16069351 -7.88487601 0 0 Z " fill="#FEFEFE" transform="translate(1365,361)"/>
</svg>
