<?xml version="1.0" encoding="UTF-8"?>
<svg version="1.1" xmlns="http://www.w3.org/2000/svg" width="2048" height="2048">
<path d="M0 0 C2.4147702 -0.00646424 4.8295397 -0.01319491 7.24430847 -0.02017212 C12.27722986 -0.03203769 17.31008323 -0.03586469 22.34301758 -0.03466797 C27.40078189 -0.03450647 32.45817995 -0.04824749 37.51586914 -0.07568359 C66.7979776 -0.23209522 95.69744608 0.30841191 124.81832218 3.5429554 C132.01546212 4.3413876 139.2230877 4.99175669 146.43867779 5.59985924 C154.17780115 6.2731383 161.81863978 7.40033546 169.48828125 8.6171875 C173.78818255 9.29361605 178.09488521 9.83304275 182.41796875 10.3359375 C189.00398135 11.13183026 195.45949552 12.25862539 201.9609375 13.5546875 C205.38321669 14.21872463 208.81773207 14.74395139 212.265625 15.2578125 C219.35875627 16.33424372 226.38508532 17.67232515 233.41796875 19.0859375 C234.06082825 19.21466248 234.70368774 19.34338745 235.36602783 19.47601318 C248.38373739 22.09060775 261.28586433 25.12254698 274.16796875 28.3359375 C275.64699953 28.69977159 277.12615389 29.06310392 278.60546875 29.42578125 C282.46471908 30.37598077 286.31777535 31.34972181 290.16796875 32.3359375 C291.37187256 32.64362061 291.37187256 32.64362061 292.60009766 32.95751953 C295.18640994 33.62081419 297.77115514 34.28990117 300.35546875 34.9609375 C301.15839355 35.16726807 301.96131836 35.37359863 302.78857422 35.58618164 C306.71452491 36.61377107 310.40732088 37.79690524 314.16796875 39.3359375 C315.93121526 39.80307632 317.70301946 40.23864368 319.48046875 40.6484375 C326.44999795 42.34603396 333.25343606 44.492602 340.08154297 46.67431641 C342.17089868 47.3368666 344.26413317 47.98523154 346.359375 48.62890625 C353.0396331 50.68346164 359.67240105 52.80587492 366.22265625 55.25 C368.47200565 56.07933572 370.72420635 56.88461208 372.98828125 57.671875 C386.01381805 62.20123711 398.83498802 67.19487508 411.63500977 72.32275391 C414.09753111 73.30776244 416.56208655 74.28748661 419.02734375 75.265625 C428.80455478 79.15087073 438.52779489 83.11993457 448.16796875 87.3359375 C449.05226563 87.71621094 449.9365625 88.09648438 450.84765625 88.48828125 C454.81538056 90.21196476 458.46314215 92.09354245 462.16796875 94.3359375 C463.80870356 95.05021386 465.45053675 95.76210529 467.09863281 96.45922852 C478.31244002 101.2101466 489.2545345 106.15094237 499.73828125 112.3671875 C503.52130156 114.5387618 507.3769575 116.48153152 511.29296875 118.3984375 C517.11866053 121.25499987 522.72077221 124.34848305 528.29296875 127.6796875 C531.28218981 129.40173876 534.32048054 130.94316828 537.41796875 132.4609375 C542.2198519 134.82465518 546.69811127 137.40235228 551.16796875 140.3359375 C552.90112778 141.4577494 554.63441992 142.57935962 556.36962891 143.69799805 C557.57525297 144.47575369 558.77945042 145.25572708 559.98193359 146.03833008 C562.88592973 147.91789524 565.80833325 149.72370975 568.8203125 151.42578125 C572.26160361 153.38936509 575.49882334 155.53324065 578.76171875 157.7734375 C580.56864041 158.94676325 582.42623388 160.04263435 584.3046875 161.09765625 C589.19392464 163.86170848 593.81956331 167.0199762 598.48046875 170.1484375 C599.80981445 171.03499023 599.80981445 171.03499023 601.16601562 171.93945312 C606.49347617 175.50275095 611.76793456 179.13268535 617.00219727 182.83154297 C618.90577133 184.15380916 620.83564065 185.40817862 622.79296875 186.6484375 C623.57671875 187.2053125 624.36046875 187.7621875 625.16796875 188.3359375 C625.16796875 188.9959375 625.16796875 189.6559375 625.16796875 190.3359375 C625.71710938 190.42359375 626.26625 190.51125 626.83203125 190.6015625 C629.89071072 191.56315404 631.97477865 193.17238409 634.54296875 195.0859375 C635.51105469 195.80523437 636.47914062 196.52453125 637.4765625 197.265625 C639.56533851 198.87237578 641.60272773 200.50015617 643.60546875 202.2109375 C645.7666684 204.00315184 647.60014699 205.24955137 650.16796875 206.3359375 C650.16796875 206.9959375 650.16796875 207.6559375 650.16796875 208.3359375 C650.84214844 208.54605469 651.51632812 208.75617188 652.2109375 208.97265625 C656.1644236 210.79533346 659.15978076 213.36338368 662.48046875 216.1484375 C663.89702359 217.3178438 665.31369382 218.48711035 666.73046875 219.65625 C667.82101562 220.56165527 667.82101562 220.56165527 668.93359375 221.48535156 C672.59785063 224.52021467 676.28909242 227.52167294 679.98046875 230.5234375 C680.6556958 231.07555908 681.33092285 231.62768066 682.02661133 232.1965332 C682.65720459 232.71046631 683.28779785 233.22439941 683.9375 233.75390625 C684.76664917 234.43102661 684.76664917 234.43102661 685.61254883 235.12182617 C687.07748614 236.26530965 688.62169874 237.30509083 690.16796875 238.3359375 C690.16796875 238.9959375 690.16796875 239.6559375 690.16796875 240.3359375 C691.25078125 240.67625 691.25078125 240.67625 692.35546875 241.0234375 C695.07202267 242.29116266 696.55569179 243.59666239 698.56640625 245.76953125 C701.51676316 248.65512423 704.87993499 251.06492778 708.15625 253.56640625 C708.82011719 254.15035156 709.48398438 254.73429688 710.16796875 255.3359375 C710.16796875 255.9959375 710.16796875 256.6559375 710.16796875 257.3359375 C710.7513501 257.59713379 711.33473145 257.85833008 711.93579102 258.12744141 C714.30266942 259.40886414 715.94390548 260.81163727 717.8828125 262.671875 C718.56923828 263.32414062 719.25566406 263.97640625 719.96289062 264.6484375 C720.66994141 265.3290625 721.37699219 266.0096875 722.10546875 266.7109375 C723.50878065 268.05379509 724.91368999 269.39498562 726.3203125 270.734375 C727.3100708 271.67748535 727.3100708 271.67748535 728.31982422 272.63964844 C729.87157033 274.06389308 731.51335601 275.38915353 733.171875 276.6875 C733.83058594 277.23148437 734.48929688 277.77546875 735.16796875 278.3359375 C735.16796875 278.9959375 735.16796875 279.6559375 735.16796875 280.3359375 C736.12703125 280.738125 736.12703125 280.738125 737.10546875 281.1484375 C739.16796875 282.3359375 739.16796875 282.3359375 740.16796875 285.3359375 C740.82796875 285.6659375 741.48796875 285.9959375 742.16796875 286.3359375 C742.82796875 286.6659375 743.48796875 286.9959375 744.16796875 287.3359375 C744.49796875 288.3259375 744.82796875 289.3159375 745.16796875 290.3359375 C745.82796875 290.6659375 746.48796875 290.9959375 747.16796875 291.3359375 C747.82796875 291.6659375 748.48796875 291.9959375 749.16796875 292.3359375 C749.49796875 293.3259375 749.82796875 294.3159375 750.16796875 295.3359375 C750.74546875 295.4596875 751.32296875 295.5834375 751.91796875 295.7109375 C755.31527762 296.65463441 756.90614615 298.70733286 759.16796875 301.3359375 C759.51024292 302.66700372 759.84548618 303.99993829 760.16796875 305.3359375 C761.48443994 306.03531282 762.81819026 306.70322883 764.16796875 307.3359375 C764.49796875 308.3259375 764.82796875 309.3159375 765.16796875 310.3359375 C765.82796875 310.6659375 766.48796875 310.9959375 767.16796875 311.3359375 C767.82796875 311.6659375 768.48796875 311.9959375 769.16796875 312.3359375 C769.49796875 313.3259375 769.82796875 314.3159375 770.16796875 315.3359375 C770.82796875 315.6659375 771.48796875 315.9959375 772.16796875 316.3359375 C772.82796875 316.6659375 773.48796875 316.9959375 774.16796875 317.3359375 C774.49796875 318.3259375 774.82796875 319.3159375 775.16796875 320.3359375 C776.49956448 321.00606811 777.83321598 321.67211729 779.16796875 322.3359375 C781.2109375 324.3671875 781.2109375 324.3671875 783.35546875 326.8359375 C784.14050781 327.73054688 784.92554688 328.62515625 785.734375 329.546875 C786.53746094 330.46726562 787.34054687 331.38765625 788.16796875 332.3359375 C789.70676698 334.04685506 791.24835843 335.75526525 792.79296875 337.4609375 C794.25234532 339.08500066 795.71073905 340.70994774 797.16796875 342.3359375 C797.78671875 343.02558594 798.40546875 343.71523438 799.04296875 344.42578125 C802.71804139 348.56844126 806.15905511 352.83484924 809.4921875 357.2578125 C811.17025162 359.42506057 811.17025162 359.42506057 813.375 361.4765625 C815.16796875 363.3359375 815.16796875 363.3359375 815.16796875 365.3359375 C816.15796875 365.6659375 817.14796875 365.9959375 818.16796875 366.3359375 C819.75656371 368.22091211 821.21912265 370.09841053 822.66796875 372.0859375 C826.22803906 376.85254223 829.90583522 381.45729441 833.79296875 385.9609375 C847.16796875 401.55370077 847.16796875 401.55370077 847.16796875 405.3359375 C847.82796875 405.3359375 848.48796875 405.3359375 849.16796875 405.3359375 C850.12095787 406.7031764 851.06351193 408.07875384 851.95507812 409.48681641 C853.27933059 411.505715 854.70920239 413.40456315 856.18359375 415.31640625 C856.97636719 416.34991211 856.97636719 416.34991211 857.78515625 417.40429688 C858.88518893 418.83197087 859.9894501 420.25639555 861.09765625 421.67773438 C861.62101562 422.36287109 862.144375 423.04800781 862.68359375 423.75390625 C863.16086914 424.37031982 863.63814453 424.9867334 864.12988281 425.62182617 C865.16796875 427.3359375 865.16796875 427.3359375 865.16796875 430.3359375 C866.15796875 430.6659375 867.14796875 430.9959375 868.16796875 431.3359375 C869.88671875 433.4453125 869.88671875 433.4453125 871.66796875 436.0859375 C872.25578125 436.94703125 872.84359375 437.808125 873.44921875 438.6953125 C874.52589101 440.34947261 875.57725158 442.02069915 876.58984375 443.71484375 C878.59982385 447.05320179 880.75164871 450.28506467 882.91796875 453.5234375 C883.57949951 454.51537109 883.57949951 454.51537109 884.25439453 455.52734375 C886.80084336 459.33359514 889.3924006 463.10104601 892.04296875 466.8359375 C893.90334983 469.46822495 895.6596938 472.08386525 897.23046875 474.8984375 C898.74281174 477.58162667 900.30758449 480.05236617 902.04296875 482.5859375 C904.87528243 486.77747709 907.28369716 491.12003385 909.66796875 495.578125 C912.44347608 500.68101087 915.50142488 505.61665179 918.53613281 510.56835938 C922.55845698 517.18509669 926.26858985 523.94522269 929.91796875 530.7734375 C930.52560059 531.9070874 931.13323242 533.0407373 931.75927734 534.20874023 C933.56553551 537.58268969 935.36738569 540.95895665 937.16796875 544.3359375 C937.93705566 545.77501465 937.93705566 545.77501465 938.72167969 547.24316406 C940.08288388 549.79276512 941.43918173 552.34489179 942.79296875 554.8984375 C943.18194336 555.62796631 943.57091797 556.35749512 943.97167969 557.10913086 C945.82991251 560.63315419 947.56322099 564.17200421 949.15625 567.82421875 C951.12531371 572.33139199 953.38434491 576.64058803 955.73046875 580.9609375 C959.36045344 587.65125986 962.42558437 594.35359131 965.16796875 601.4609375 C966.20818999 604.085132 967.21349465 606.411814 968.66796875 608.8359375 C970.53310357 611.94449553 971.75781601 615.16549737 973.0703125 618.5390625 C974.20448287 621.42897705 975.39856624 624.28819206 976.60546875 627.1484375 C978.81671077 632.42972195 980.87727922 637.75882832 982.9140625 643.109375 C984.13481067 646.25061483 985.41896214 649.35663745 986.73046875 652.4609375 C988.62048937 656.96070795 990.36080749 661.48560165 992 666.08203125 C992.94151431 668.70504603 993.89872464 671.3204914 994.8671875 673.93359375 C995.17350098 674.76044678 995.47981445 675.5872998 995.79541016 676.43920898 C996.40225033 678.07577614 997.00994712 679.71202601 997.61865234 681.34790039 C999.34805941 686.02159128 1000.98528321 690.71415133 1002.52880859 695.45263672 C1003.03251839 696.93682976 1003.61741864 698.39346666 1004.23046875 699.8359375 C1005.34185999 702.79964747 1005.92600664 705.75264466 1006.5078125 708.859375 C1007.21427872 711.50966838 1008.26978838 713.9089601 1009.37670898 716.41308594 C1010.7637054 719.78364556 1011.73145351 723.27215697 1012.73046875 726.7734375 C1012.93865234 727.48564453 1013.14683594 728.19785156 1013.36132812 728.93164062 C1014.38929517 732.47957704 1015.3539107 736.03361703 1016.234375 739.62109375 C1016.90266723 742.28028166 1017.603826 744.77263023 1018.54296875 747.3359375 C1022.18109877 758.01266078 1024.41883245 769.24604699 1026.97265625 780.21875 C1027.90322991 784.21646839 1028.85056194 788.21003197 1029.80078125 792.203125 C1034.73153688 813.00369407 1039.34926212 833.82874325 1042.4921875 854.984375 C1042.97586737 858.21725536 1043.55112766 861.42440815 1044.15625 864.63671875 C1045.22702858 870.44966073 1045.97221052 876.28036673 1046.66796875 882.1484375 C1047.42523998 888.46041804 1048.22365381 894.75591377 1049.16796875 901.04296875 C1050.32882417 909.07571304 1051.01161302 917.12492426 1051.66796875 925.2109375 C1051.78608125 926.63023976 1051.90457051 928.04951073 1052.0234375 929.46875 C1052.20419869 931.62752811 1052.38336132 933.78638091 1052.5570364 935.94574165 C1052.89836627 940.17937029 1053.26541585 944.40898079 1053.66871643 948.63717651 C1055.02570066 963.20930968 1055.50569284 977.65911451 1055.5390625 992.2890625 C1055.54995626 994.62647615 1055.5610964 996.96388866 1055.57246399 999.30130005 C1055.6027321 1006.7295317 1055.60579716 1014.15765404 1055.60546875 1021.5859375 C1055.60638016 1022.84732796 1055.60729156 1024.10871841 1055.60823059 1025.40833282 C1055.64739585 1085.83803794 1055.64739585 1085.83803794 1052.91796875 1115.7109375 C1052.81563934 1116.83262329 1052.71330994 1117.95430908 1052.60787964 1119.10998535 C1051.26755789 1133.2122596 1049.2150783 1147.20099832 1047.08178711 1161.2019043 C1046.34466027 1166.07203946 1045.69997816 1170.94028458 1045.125 1175.83203125 C1044.04888086 1184.75029508 1042.46517769 1193.56406425 1040.85546875 1202.3984375 C1040.70145599 1203.25077972 1040.54744324 1204.10312195 1040.38876343 1204.98129272 C1038.08972069 1217.69031537 1035.60720187 1230.33954678 1032.71777344 1242.92919922 C1031.99439718 1246.09573703 1031.30018718 1249.26839715 1030.60473633 1252.44116211 C1029.80528239 1256.07564781 1028.98745858 1259.70592604 1028.16796875 1263.3359375 C1028.01505371 1264.0175293 1027.86213867 1264.69912109 1027.70458984 1265.40136719 C1025.68732686 1274.35230601 1023.44133676 1283.22930468 1021.04296875 1292.0859375 C1020.78918457 1293.02727539 1020.53540039 1293.96861328 1020.27392578 1294.93847656 C1019.10827227 1299.1896835 1017.84789956 1303.25610553 1016.16796875 1307.3359375 C1015.70082993 1309.09918401 1015.26526257 1310.87098821 1014.85546875 1312.6484375 C1013.61420159 1317.75283206 1012.17343392 1322.76227835 1010.60546875 1327.7734375 C1010.39559326 1328.44737549 1010.18571777 1329.12131348 1009.96948242 1329.81567383 C1009.08718667 1332.60548534 1008.16246714 1335.34967188 1007.07421875 1338.06640625 C1006.00151014 1340.75280152 1005.40110041 1343.49641743 1004.73046875 1346.3046875 C1003.8614359 1349.44286169 1002.45566538 1352.34848133 1001.16796875 1355.3359375 C1000.71241002 1356.80964253 1000.27661093 1358.28953065 999.85546875 1359.7734375 C998.37867176 1364.86188308 996.53666629 1369.78563007 994.64575195 1374.73022461 C992.17968661 1381.21260439 989.91229674 1387.75903838 987.70410156 1394.33349609 C986.12313902 1398.94822285 984.30739665 1403.26392816 982.06054688 1407.59375 C980.97639284 1409.70986685 980.08397923 1411.86759689 979.23046875 1414.0859375 C977.75570189 1417.85671395 976.2334292 1421.60181167 974.66796875 1425.3359375 C973.11200345 1429.05217266 971.58669198 1432.77681402 970.10546875 1436.5234375 C967.50226775 1443.05243356 964.8112065 1449.31667513 961.16796875 1455.3359375 C960.43419453 1457.0322751 959.70187844 1458.72928439 958.98217773 1460.43164062 C950.02911735 1481.37133209 939.40263045 1502.01514381 927.75390625 1521.56640625 C926.06162376 1524.52164833 924.54292361 1527.5289229 923.04296875 1530.5859375 C920.67925107 1535.38782065 918.10155397 1539.86608002 915.16796875 1544.3359375 C914.04615685 1546.06909653 912.92454663 1547.80238867 911.8059082 1549.53759766 C911.02815256 1550.74322172 910.24817917 1551.94741917 909.46557617 1553.14990234 C907.58601101 1556.05389848 905.7801965 1558.976302 904.078125 1561.98828125 C902.11454116 1565.42957236 899.9706656 1568.66679209 897.73046875 1571.9296875 C896.557143 1573.73660916 895.4612719 1575.59420263 894.40625 1577.47265625 C891.64219777 1582.36189339 888.48393005 1586.98753206 885.35546875 1591.6484375 C884.76443359 1592.53466797 884.17339844 1593.42089844 883.56445312 1594.33398438 C880.0011553 1599.66144492 876.3712209 1604.93590331 872.67236328 1610.17016602 C871.35009709 1612.07374008 870.09572763 1614.0036094 868.85546875 1615.9609375 C868.29859375 1616.7446875 867.74171875 1617.5284375 867.16796875 1618.3359375 C866.50796875 1618.3359375 865.84796875 1618.3359375 865.16796875 1618.3359375 C865.07902344 1618.88765625 864.99007813 1619.439375 864.8984375 1620.0078125 C863.9508548 1623.02791564 862.37808456 1625.05578308 860.48046875 1627.5859375 C859.76375 1628.54886719 859.04703125 1629.51179688 858.30859375 1630.50390625 C857.6021875 1631.43847656 856.89578125 1632.37304688 856.16796875 1633.3359375 C855.02194284 1634.85662572 853.87608339 1636.37743942 852.73046875 1637.8984375 C852.25738281 1638.51847656 851.78429688 1639.13851563 851.296875 1639.77734375 C850.09279789 1641.35087499 850.09279789 1641.35087499 849.16796875 1643.3359375 C848.50796875 1643.3359375 847.84796875 1643.3359375 847.16796875 1643.3359375 C846.92046875 1644.05136719 846.67296875 1644.76679687 846.41796875 1645.50390625 C845.0293328 1648.65003456 843.32332929 1650.97404713 841.16796875 1653.6484375 C840.46671875 1654.53144531 839.76546875 1655.41445312 839.04296875 1656.32421875 C838.42421875 1656.98808594 837.80546875 1657.65195313 837.16796875 1658.3359375 C836.50796875 1658.3359375 835.84796875 1658.3359375 835.16796875 1658.3359375 C835.10996094 1658.86703125 835.05195312 1659.398125 834.9921875 1659.9453125 C833.78596718 1663.4439231 831.3988572 1665.86203508 828.98046875 1668.5859375 C825.19216176 1672.93547515 821.58473385 1677.29994025 818.2890625 1682.04296875 C817.91910156 1682.46964844 817.54914063 1682.89632813 817.16796875 1683.3359375 C816.50796875 1683.3359375 815.84796875 1683.3359375 815.16796875 1683.3359375 C814.94109375 1684.0578125 814.71421875 1684.7796875 814.48046875 1685.5234375 C813.21274359 1688.23999142 811.90724386 1689.72366054 809.734375 1691.734375 C806.84878202 1694.68473191 804.43897847 1698.04790374 801.9375 1701.32421875 C801.35355469 1701.98808594 800.76960938 1702.65195313 800.16796875 1703.3359375 C799.50796875 1703.3359375 798.84796875 1703.3359375 798.16796875 1703.3359375 C797.90677246 1703.91931885 797.64557617 1704.5027002 797.37646484 1705.10375977 C796.09504211 1707.47063817 794.69226898 1709.11187423 792.83203125 1711.05078125 C791.85363281 1712.08041992 791.85363281 1712.08041992 790.85546875 1713.13085938 C790.17484375 1713.83791016 789.49421875 1714.54496094 788.79296875 1715.2734375 C787.45011116 1716.6767494 786.10892063 1718.08165874 784.76953125 1719.48828125 C784.14079102 1720.14812012 783.51205078 1720.80795898 782.86425781 1721.48779297 C781.44001317 1723.03953908 780.11475272 1724.68132476 778.81640625 1726.33984375 C778.00042969 1727.32791016 778.00042969 1727.32791016 777.16796875 1728.3359375 C776.50796875 1728.3359375 775.84796875 1728.3359375 775.16796875 1728.3359375 C774.76578125 1729.295 774.76578125 1729.295 774.35546875 1730.2734375 C773.16796875 1732.3359375 773.16796875 1732.3359375 770.16796875 1733.3359375 C769.83796875 1733.9959375 769.50796875 1734.6559375 769.16796875 1735.3359375 C768.83796875 1735.9959375 768.50796875 1736.6559375 768.16796875 1737.3359375 C767.17796875 1737.6659375 766.18796875 1737.9959375 765.16796875 1738.3359375 C764.83796875 1738.9959375 764.50796875 1739.6559375 764.16796875 1740.3359375 C763.83796875 1740.9959375 763.50796875 1741.6559375 763.16796875 1742.3359375 C762.17796875 1742.6659375 761.18796875 1742.9959375 760.16796875 1743.3359375 C759.82937057 1744.66794357 759.49671627 1746.00146609 759.16796875 1747.3359375 C757.609375 1749.0390625 757.609375 1749.0390625 755.73046875 1750.5859375 C755.11300781 1751.10671875 754.49554687 1751.6275 753.859375 1752.1640625 C752.16796875 1753.3359375 752.16796875 1753.3359375 750.16796875 1753.3359375 C749.76578125 1754.295 749.76578125 1754.295 749.35546875 1755.2734375 C748.16796875 1757.3359375 748.16796875 1757.3359375 745.16796875 1758.3359375 C744.83796875 1758.9959375 744.50796875 1759.6559375 744.16796875 1760.3359375 C743.83796875 1760.9959375 743.50796875 1761.6559375 743.16796875 1762.3359375 C742.17796875 1762.6659375 741.18796875 1762.9959375 740.16796875 1763.3359375 C739.83796875 1763.9959375 739.50796875 1764.6559375 739.16796875 1765.3359375 C738.83796875 1765.9959375 738.50796875 1766.6559375 738.16796875 1767.3359375 C737.17796875 1767.6659375 736.18796875 1767.9959375 735.16796875 1768.3359375 C734.49669647 1769.66695807 733.83083134 1771.0007089 733.16796875 1772.3359375 C731.171875 1774.34375 731.171875 1774.34375 728.73046875 1776.4609375 C725.8356678 1778.99336162 722.94726505 1781.52318317 720.1328125 1784.14453125 C719.63773193 1784.6039209 719.14265137 1785.06331055 718.63256836 1785.53662109 C717.22613883 1786.8443497 715.82200347 1788.15454431 714.41796875 1789.46484375 C712.16796875 1791.3359375 712.16796875 1791.3359375 710.16796875 1791.3359375 C710.16796875 1791.9959375 710.16796875 1792.6559375 710.16796875 1793.3359375 C708.5336412 1794.81362968 706.83320507 1796.21863069 705.10546875 1797.5859375 C701.70876243 1800.2954236 698.35483227 1803.01393895 695.10546875 1805.8984375 C692.16796875 1808.3359375 692.16796875 1808.3359375 690.16796875 1808.3359375 C689.83796875 1809.3259375 689.50796875 1810.3159375 689.16796875 1811.3359375 C687.17879527 1813.00672638 685.19797736 1814.55623754 683.10546875 1816.0859375 C678.43256951 1819.56979081 673.99104719 1823.14114264 669.75390625 1827.15625 C668.16796875 1828.3359375 668.16796875 1828.3359375 665.16796875 1828.3359375 C664.95140625 1828.90828125 664.73484375 1829.480625 664.51171875 1830.0703125 C662.72381991 1833.08479309 660.51562601 1834.56260208 657.66796875 1836.5859375 C656.68828125 1837.29234375 655.70859375 1837.99875 654.69921875 1838.7265625 C652.16796875 1840.3359375 652.16796875 1840.3359375 650.16796875 1840.3359375 C650.16796875 1840.9959375 650.16796875 1841.6559375 650.16796875 1842.3359375 C648.86785822 1843.24952869 647.55726532 1844.14979968 646.21484375 1845 C643.61572477 1846.69637155 641.11579146 1848.51086504 638.60546875 1850.3359375 C637.69667969 1850.9959375 636.78789063 1851.6559375 635.8515625 1852.3359375 C634.02832762 1853.69473845 632.24963116 1855.11496909 630.515625 1856.5859375 C628.16796875 1858.3359375 628.16796875 1858.3359375 625.16796875 1858.3359375 C624.83796875 1859.3259375 624.50796875 1860.3159375 624.16796875 1861.3359375 C622.05859375 1863.0546875 622.05859375 1863.0546875 619.41796875 1864.8359375 C618.556875 1865.42375 617.69578125 1866.0115625 616.80859375 1866.6171875 C615.15443364 1867.69385976 613.4832071 1868.74522033 611.7890625 1869.7578125 C608.45070446 1871.7677926 605.21884158 1873.91961746 601.98046875 1876.0859375 C601.31917969 1876.52695801 600.65789062 1876.96797852 599.9765625 1877.42236328 C596.17031111 1879.96881211 592.40286024 1882.56036935 588.66796875 1885.2109375 C586.0356813 1887.07131858 583.420041 1888.82766255 580.60546875 1890.3984375 C577.92227958 1891.91078049 575.45154008 1893.47555324 572.91796875 1895.2109375 C568.72642916 1898.04325118 564.3838724 1900.45166591 559.92578125 1902.8359375 C554.82289538 1905.61144483 549.88725446 1908.66939363 544.93554688 1911.70410156 C538.3187966 1915.72643361 531.55857851 1919.43634285 524.73046875 1923.0859375 C523.59754395 1923.69356934 522.46461914 1924.30120117 521.29736328 1924.92724609 C496.6807815 1938.11234428 496.6807815 1938.11234428 486.15039062 1943.34912109 C484.16437105 1944.33772838 482.18327028 1945.33562273 480.203125 1946.3359375 C471.55911015 1950.6932922 462.937788 1954.86721794 453.91796875 1958.3984375 C451.33017596 1959.41847239 449.05747234 1960.40223535 446.66796875 1961.8359375 C443.55941072 1963.70107232 440.33840888 1964.92578476 436.96484375 1966.23828125 C434.0749292 1967.37245162 431.21571419 1968.56653499 428.35546875 1969.7734375 C423.0741843 1971.98467952 417.74507793 1974.04524797 412.39453125 1976.08203125 C409.25329142 1977.30277942 406.1472688 1978.58693089 403.04296875 1979.8984375 C398.5431983 1981.78845812 394.0183046 1983.52877624 389.421875 1985.16796875 C386.79886022 1986.10948306 384.18341485 1987.06669339 381.5703125 1988.03515625 C380.74345947 1988.34146973 379.91660645 1988.6477832 379.06469727 1988.96337891 C377.42813011 1989.57021908 375.79188024 1990.17791587 374.15600586 1990.78662109 C369.48231497 1992.51602816 364.78975492 1994.15325196 360.05126953 1995.69677734 C358.56707649 1996.20048714 357.11043959 1996.78538739 355.66796875 1997.3984375 C352.70425878 1998.50982874 349.75126159 1999.09397539 346.64453125 1999.67578125 C343.99423787 2000.38224747 341.59494615 2001.43775713 339.09082031 2002.54467773 C335.72026069 2003.93167415 332.23174928 2004.89942226 328.73046875 2005.8984375 C328.01826172 2006.10662109 327.30605469 2006.31480469 326.57226562 2006.52929688 C323.02432921 2007.55726392 319.47028922 2008.52187945 315.8828125 2009.40234375 C313.22362459 2010.07063598 310.73127602 2010.77179475 308.16796875 2011.7109375 C297.49025183 2015.34940611 286.25540341 2017.58843988 275.28125 2020.140625 C271.29578771 2021.06815668 267.31560589 2022.01667622 263.3359375 2022.96875 C247.0197473 2026.85284699 230.68051254 2030.37399829 214.16796875 2033.3359375 C213.25644043 2033.50158203 212.34491211 2033.66722656 211.40576172 2033.83789062 C180.48809432 2039.40498656 149.24359445 2043.65305168 117.91270447 2045.97047424 C114.45861683 2046.23006097 111.00831174 2046.5217389 107.557724 2046.82418823 C92.16727681 2048.13996035 76.89918604 2048.66174831 61.45703125 2048.671875 C59.06611053 2048.67834088 56.67519052 2048.68507164 54.28427124 2048.69204712 C49.30440447 2048.70390433 44.32460641 2048.70774052 39.34472656 2048.70654297 C34.34229925 2048.70638142 29.34024204 2048.72013315 24.33789062 2048.74755859 C-4.77981994 2048.90473659 -33.5103724 2048.33811224 -62.46795464 2045.1289196 C-69.67059812 2044.33166893 -76.88360922 2043.68066178 -84.10451698 2043.07201576 C-91.84301667 2042.39865078 -99.48330733 2041.27144805 -107.15234375 2040.0546875 C-111.45224505 2039.37825895 -115.75894771 2038.83883225 -120.08203125 2038.3359375 C-126.66804385 2037.54004474 -133.12355802 2036.41324961 -139.625 2035.1171875 C-143.04727919 2034.45315037 -146.48179457 2033.92792361 -149.9296875 2033.4140625 C-157.02281877 2032.33763128 -164.04914782 2030.99954985 -171.08203125 2029.5859375 C-171.72489075 2029.45721252 -172.36775024 2029.32848755 -173.03009033 2029.19586182 C-186.04779989 2026.58126725 -198.94992683 2023.54932802 -211.83203125 2020.3359375 C-213.31106203 2019.97210341 -214.79021639 2019.60877108 -216.26953125 2019.24609375 C-220.12878158 2018.29589423 -223.98183785 2017.32215319 -227.83203125 2016.3359375 C-228.63463379 2016.13081543 -229.43723633 2015.92569336 -230.26416016 2015.71435547 C-232.85047244 2015.05106081 -235.43521764 2014.38197383 -238.01953125 2013.7109375 C-239.22391846 2013.40144165 -239.22391846 2013.40144165 -240.45263672 2013.08569336 C-244.37858741 2012.05810393 -248.07138338 2010.87496976 -251.83203125 2009.3359375 C-253.59527776 2008.86879868 -255.36708196 2008.43323132 -257.14453125 2008.0234375 C-262.24892581 2006.78217034 -267.2583721 2005.34140267 -272.26953125 2003.7734375 C-272.94346924 2003.56356201 -273.61740723 2003.35368652 -274.31176758 2003.13745117 C-277.10157909 2002.25515542 -279.84576563 2001.33043589 -282.5625 2000.2421875 C-285.24889527 1999.16947889 -287.99251118 1998.56906916 -290.80078125 1997.8984375 C-293.93895544 1997.02940465 -296.84457508 1995.62363413 -299.83203125 1994.3359375 C-301.30573628 1993.88037877 -302.7856244 1993.44457968 -304.26953125 1993.0234375 C-309.35797683 1991.54664051 -314.28172382 1989.70463504 -319.22631836 1987.8137207 C-325.70869814 1985.34765536 -332.25513213 1983.08026549 -338.82958984 1980.87207031 C-343.4443166 1979.29110777 -347.76002191 1977.4753654 -352.08984375 1975.22851562 C-354.2059606 1974.14436159 -356.36369064 1973.25194798 -358.58203125 1972.3984375 C-362.3528077 1970.92367064 -366.09790542 1969.40139795 -369.83203125 1967.8359375 C-373.54826641 1966.2799722 -377.27290777 1964.75466073 -381.01953125 1963.2734375 C-387.54852731 1960.6702365 -393.81276888 1957.97917525 -399.83203125 1954.3359375 C-401.50494458 1953.61481834 -403.1784934 1952.89510705 -404.85644531 1952.18579102 C-425.81394923 1943.17033487 -446.46864139 1932.59597817 -466.0625 1920.921875 C-469.01774208 1919.22959251 -472.02501665 1917.71089236 -475.08203125 1916.2109375 C-479.8839144 1913.84721982 -484.36217377 1911.26952272 -488.83203125 1908.3359375 C-490.56519028 1907.2141256 -492.29848242 1906.09251538 -494.03369141 1904.97387695 C-495.23931547 1904.19612131 -496.44351292 1903.41614792 -497.64599609 1902.63354492 C-500.54999223 1900.75397976 -503.47239575 1898.94816525 -506.484375 1897.24609375 C-509.92566611 1895.28250991 -513.16288584 1893.13863435 -516.42578125 1890.8984375 C-518.23270291 1889.72511175 -520.09029638 1888.62924065 -521.96875 1887.57421875 C-526.85798714 1884.81016652 -531.48362581 1881.6518988 -536.14453125 1878.5234375 C-537.03076172 1877.93240234 -537.91699219 1877.34136719 -538.83007812 1876.73242188 C-544.15753867 1873.16912405 -549.43199706 1869.53918965 -554.66625977 1865.84033203 C-556.56983383 1864.51806584 -558.49970315 1863.26369638 -560.45703125 1862.0234375 C-561.24078125 1861.4665625 -562.02453125 1860.9096875 -562.83203125 1860.3359375 C-562.83203125 1859.6759375 -562.83203125 1859.0159375 -562.83203125 1858.3359375 C-563.42064941 1858.21968018 -564.00926758 1858.10342285 -564.61572266 1857.98364258 C-566.96390534 1857.29739796 -568.35100334 1856.43998619 -570.29296875 1854.97265625 C-570.92976563 1854.49763672 -571.5665625 1854.02261719 -572.22265625 1853.53320312 C-572.8775 1853.03498047 -573.53234375 1852.53675781 -574.20703125 1852.0234375 C-575.50558029 1851.04693897 -576.80504805 1850.07166087 -578.10546875 1849.09765625 C-578.72905273 1848.62763184 -579.35263672 1848.15760742 -579.99511719 1847.67333984 C-581.72866585 1846.41119476 -583.49756732 1845.25238126 -585.30859375 1844.10546875 C-586.55769531 1843.22955078 -586.55769531 1843.22955078 -587.83203125 1842.3359375 C-587.83203125 1841.6759375 -587.83203125 1841.0159375 -587.83203125 1840.3359375 C-588.50621094 1840.12582031 -589.18039062 1839.91570312 -589.875 1839.69921875 C-593.8284861 1837.87654154 -596.82384326 1835.30849132 -600.14453125 1832.5234375 C-601.56108609 1831.3540312 -602.97775632 1830.18476465 -604.39453125 1829.015625 C-605.1215625 1828.41202148 -605.84859375 1827.80841797 -606.59765625 1827.18652344 C-610.26191313 1824.15166033 -613.95315492 1821.15020206 -617.64453125 1818.1484375 C-618.65737183 1817.32025513 -618.65737183 1817.32025513 -619.69067383 1816.4753418 C-620.32126709 1815.96140869 -620.95186035 1815.44747559 -621.6015625 1814.91796875 C-622.15432861 1814.46655518 -622.70709473 1814.0151416 -623.27661133 1813.55004883 C-624.74154864 1812.40656535 -626.28576124 1811.36678417 -627.83203125 1810.3359375 C-627.83203125 1809.6759375 -627.83203125 1809.0159375 -627.83203125 1808.3359375 C-628.55390625 1808.1090625 -629.27578125 1807.8821875 -630.01953125 1807.6484375 C-632.74185656 1806.37801902 -634.22793936 1805.06032817 -636.25 1802.890625 C-639.05660236 1800.13253182 -642.22517704 1797.80624951 -645.33203125 1795.3984375 C-648.01251802 1793.18703591 -650.39104114 1790.80923484 -652.83203125 1788.3359375 C-655.31301854 1785.96137892 -657.82186715 1783.61708576 -660.33203125 1781.2734375 C-660.98300781 1780.66177734 -661.63398437 1780.05011719 -662.3046875 1779.41992188 C-665.07235911 1776.83396608 -667.80767933 1774.35487432 -670.80078125 1772.02734375 C-671.80625 1771.19009766 -671.80625 1771.19009766 -672.83203125 1770.3359375 C-672.83203125 1769.6759375 -672.83203125 1769.0159375 -672.83203125 1768.3359375 C-673.47140625 1768.0678125 -674.11078125 1767.7996875 -674.76953125 1767.5234375 C-676.83203125 1766.3359375 -676.83203125 1766.3359375 -677.83203125 1763.3359375 C-678.49203125 1763.0059375 -679.15203125 1762.6759375 -679.83203125 1762.3359375 C-681.83203125 1761.3359375 -681.83203125 1761.3359375 -682.83203125 1758.3359375 C-683.49203125 1758.0059375 -684.15203125 1757.6759375 -684.83203125 1757.3359375 C-686.83203125 1756.3359375 -686.83203125 1756.3359375 -687.83203125 1753.3359375 C-688.40953125 1753.2121875 -688.98703125 1753.0884375 -689.58203125 1752.9609375 C-692.97934012 1752.01724059 -694.57020865 1749.96454214 -696.83203125 1747.3359375 C-697.17430542 1746.00487128 -697.50954868 1744.67193671 -697.83203125 1743.3359375 C-699.14850244 1742.63656218 -700.48225276 1741.96864617 -701.83203125 1741.3359375 C-702.16203125 1740.3459375 -702.49203125 1739.3559375 -702.83203125 1738.3359375 C-703.49203125 1738.0059375 -704.15203125 1737.6759375 -704.83203125 1737.3359375 C-706.83203125 1736.3359375 -706.83203125 1736.3359375 -707.83203125 1733.3359375 C-708.49203125 1733.0059375 -709.15203125 1732.6759375 -709.83203125 1732.3359375 C-711.83203125 1731.3359375 -711.83203125 1731.3359375 -712.83203125 1728.3359375 C-714.16305182 1727.66466522 -715.49680265 1726.99880009 -716.83203125 1726.3359375 C-718.83984375 1724.33984375 -718.83984375 1724.33984375 -720.95703125 1721.8984375 C-723.48945537 1719.00363655 -726.01927692 1716.1152338 -728.640625 1713.30078125 C-729.10001465 1712.80570068 -729.5594043 1712.31062012 -730.03271484 1711.80053711 C-731.34044345 1710.39410758 -732.65063806 1708.98997222 -733.9609375 1707.5859375 C-735.83203125 1705.3359375 -735.83203125 1705.3359375 -735.83203125 1703.3359375 C-736.49203125 1703.3359375 -737.15203125 1703.3359375 -737.83203125 1703.3359375 C-739.30972343 1701.70160995 -740.71472444 1700.00117382 -742.08203125 1698.2734375 C-744.79151735 1694.87673118 -747.5100327 1691.52280102 -750.39453125 1688.2734375 C-752.83203125 1685.3359375 -752.83203125 1685.3359375 -752.83203125 1683.3359375 C-753.82203125 1683.0059375 -754.81203125 1682.6759375 -755.83203125 1682.3359375 C-757.54595297 1680.35029649 -759.13378046 1678.36592881 -760.70703125 1676.2734375 C-761.68743739 1674.99634702 -762.66926764 1673.72034884 -763.65234375 1672.4453125 C-764.16829102 1671.77435547 -764.68423828 1671.10339844 -765.21582031 1670.41210938 C-767.94758361 1666.90290771 -770.76660678 1663.46559852 -773.58203125 1660.0234375 C-779.60664685 1652.632668 -785.57508291 1645.30101074 -790.83203125 1637.3359375 C-795.76671797 1630.36309051 -795.76671797 1630.36309051 -801.08203125 1623.68359375 C-802.83203125 1621.3359375 -802.83203125 1621.3359375 -802.83203125 1618.3359375 C-803.82203125 1618.0059375 -804.81203125 1617.6759375 -805.83203125 1617.3359375 C-807.55078125 1615.2265625 -807.55078125 1615.2265625 -809.33203125 1612.5859375 C-809.91984375 1611.72484375 -810.50765625 1610.86375 -811.11328125 1609.9765625 C-812.18995351 1608.32240239 -813.24131408 1606.65117585 -814.25390625 1604.95703125 C-816.26388635 1601.61867321 -818.41571121 1598.38681033 -820.58203125 1595.1484375 C-821.02305176 1594.48714844 -821.46407227 1593.82585937 -821.91845703 1593.14453125 C-824.46490586 1589.33827986 -827.0564631 1585.57082899 -829.70703125 1581.8359375 C-831.56741233 1579.20365005 -833.3237563 1576.58800975 -834.89453125 1573.7734375 C-836.40687424 1571.09024833 -837.97164699 1568.61950883 -839.70703125 1566.0859375 C-842.53934493 1561.89439791 -844.94775966 1557.55184115 -847.33203125 1553.09375 C-850.10753858 1547.99086413 -853.16548738 1543.05522321 -856.20019531 1538.10351562 C-860.2225231 1531.48677236 -863.93254847 1524.72660045 -867.58203125 1517.8984375 C-868.19256348 1516.75971191 -868.8030957 1515.62098633 -869.43212891 1514.44775391 C-871.23592883 1511.07917767 -873.03518199 1507.70822574 -874.83203125 1504.3359375 C-875.32348633 1503.41377441 -875.81494141 1502.49161133 -876.32128906 1501.54150391 C-881.37164731 1492.04719243 -886.30862492 1482.50383225 -891.08203125 1472.8671875 C-892.58810282 1469.82815022 -894.11314409 1466.79975022 -895.64453125 1463.7734375 C-897.91735821 1459.2202075 -899.948944 1454.60264729 -901.796875 1449.859375 C-903.7824828 1444.71248852 -903.7824828 1444.71248852 -906.33203125 1439.8359375 C-908.17203451 1436.7692654 -909.37115587 1433.60230055 -910.6640625 1430.2734375 C-911.98538737 1426.95023918 -913.40466129 1423.67743348 -914.83203125 1420.3984375 C-917.01707264 1415.33286536 -918.99846965 1410.24668029 -920.8359375 1405.046875 C-921.91744358 1402.10348198 -923.11072739 1399.22400559 -924.33203125 1396.3359375 C-926.2459825 1391.79465316 -928.00893102 1387.23096752 -929.6640625 1382.58984375 C-930.60557681 1379.96682897 -931.56278714 1377.3513836 -932.53125 1374.73828125 C-932.99072021 1373.49800171 -932.99072021 1373.49800171 -933.45947266 1372.23266602 C-934.06631283 1370.59609886 -934.67400962 1368.95984899 -935.28271484 1367.32397461 C-937.83026679 1360.43926218 -940.24723863 1353.52012044 -942.26953125 1346.4609375 C-943.2902729 1343.00734011 -944.43762524 1339.64322614 -945.70703125 1336.2734375 C-947.49284463 1331.45174138 -949.00896991 1326.57945615 -950.45703125 1321.6484375 C-950.66312012 1320.94775146 -950.86920898 1320.24706543 -951.08154297 1319.52514648 C-952.08833707 1316.0536257 -953.03294092 1312.57691991 -953.89453125 1309.06640625 C-954.564226 1306.40157923 -955.26595908 1303.90451096 -956.20703125 1301.3359375 C-959.84516127 1290.65921422 -962.08289495 1279.42582801 -964.63671875 1268.453125 C-965.56729241 1264.45540661 -966.51462444 1260.46184303 -967.46484375 1256.46875 C-972.28612196 1236.13133736 -976.97285776 1215.7719602 -979.84472656 1195.05224609 C-980.3838977 1191.16903077 -981.01644781 1187.34188394 -981.8203125 1183.50390625 C-982.97080993 1177.89868275 -983.66421754 1172.26602338 -984.33203125 1166.5859375 C-985.08984177 1160.24031531 -985.88676788 1153.91061863 -986.83203125 1147.58984375 C-987.96438058 1139.75704329 -988.66777724 1131.90573541 -989.33203125 1124.0234375 C-989.45018374 1122.66077802 -989.56867326 1121.29814772 -989.6875 1119.93554688 C-989.93206263 1117.11858143 -990.16848339 1114.30107742 -990.39987183 1111.48300171 C-990.69302884 1107.93971632 -991.00827244 1104.3991018 -991.33401489 1100.8586731 C-992.68687278 1085.71787734 -993.15812475 1070.6998811 -993.16796875 1055.50390625 C-993.17443299 1053.08913605 -993.18116366 1050.67436655 -993.18814087 1048.25959778 C-993.20000644 1043.22667639 -993.20383344 1038.19382302 -993.20263672 1033.16088867 C-993.20247522 1028.10312436 -993.21621624 1023.0457263 -993.24365234 1017.98803711 C-993.40006397 988.70592865 -992.85955684 959.80646017 -989.62501335 930.68558407 C-988.82658115 923.48844413 -988.17621206 916.28081855 -987.56810951 909.06522846 C-986.89483045 901.3261051 -985.76763329 893.68526647 -984.55078125 886.015625 C-983.8743527 881.7157237 -983.334926 877.40902104 -982.83203125 873.0859375 C-982.03613849 866.4999249 -980.90934336 860.04441073 -979.61328125 853.54296875 C-978.94924412 850.12068956 -978.42401736 846.68617418 -977.91015625 843.23828125 C-976.83372503 836.14514998 -975.4956436 829.11882093 -974.08203125 822.0859375 C-973.95330627 821.443078 -973.8245813 820.80021851 -973.69195557 820.13787842 C-971.077361 807.12016886 -968.04542177 794.21804192 -964.83203125 781.3359375 C-964.46819716 779.85690672 -964.10486483 778.37775236 -963.7421875 776.8984375 C-962.79198798 773.03918717 -961.81824694 769.1861309 -960.83203125 765.3359375 C-960.52434814 764.13203369 -960.52434814 764.13203369 -960.21044922 762.90380859 C-959.54715456 760.31749631 -958.87806758 757.73275111 -958.20703125 755.1484375 C-958.00070068 754.3455127 -957.79437012 753.54258789 -957.58178711 752.71533203 C-956.55419768 748.78938134 -955.37106351 745.09658537 -953.83203125 741.3359375 C-953.36489243 739.57269099 -952.92932507 737.80088679 -952.51953125 736.0234375 C-950.82193479 729.0539083 -948.67536675 722.25047019 -946.49365234 715.42236328 C-945.83110215 713.33300757 -945.18273721 711.23977308 -944.5390625 709.14453125 C-942.48657904 702.47100991 -940.36627521 695.8448477 -937.92578125 689.30078125 C-936.80771207 686.27001515 -935.73554206 683.22583167 -934.66943359 680.17651367 C-932.23177692 673.20684312 -929.71160778 666.28182546 -927.02734375 659.40234375 C-926.26062608 657.43543732 -925.50444671 655.46437134 -924.76171875 653.48828125 C-920.80883829 642.99794464 -916.42881968 632.68388129 -912.09326172 622.34741211 C-910.37406792 618.24244589 -908.66545745 614.13309769 -906.95751953 610.0234375 C-904.53260184 604.23309175 -902.08516915 598.71068708 -898.83203125 593.3359375 C-898.11091209 591.66302417 -897.3912008 589.98947535 -896.68188477 588.31152344 C-887.66642862 567.35401952 -877.09207192 546.69932736 -865.41796875 527.10546875 C-863.72568626 524.15022667 -862.20698611 521.1429521 -860.70703125 518.0859375 C-858.34331357 513.28405435 -855.76561647 508.80579498 -852.83203125 504.3359375 C-851.71021935 502.60277847 -850.58860913 500.86948633 -849.4699707 499.13427734 C-848.69221506 497.92865328 -847.91224167 496.72445583 -847.12963867 495.52197266 C-845.25007351 492.61797652 -843.444259 489.695573 -841.7421875 486.68359375 C-839.77860366 483.24230264 -837.6347281 480.00508291 -835.39453125 476.7421875 C-834.2212055 474.93526584 -833.1253344 473.07767237 -832.0703125 471.19921875 C-829.30626027 466.30998161 -826.14799255 461.68434294 -823.01953125 457.0234375 C-822.13297852 455.6940918 -822.13297852 455.6940918 -821.22851562 454.33789062 C-817.17646512 448.27969953 -813.02889684 442.29445037 -808.83203125 436.3359375 C-807.81091824 434.87649772 -806.79007365 433.41687009 -805.76953125 431.95703125 C-796.2109612 418.32810345 -796.2109612 418.32810345 -791.33203125 412.29296875 C-790.14114129 410.7392295 -789.02993813 409.12447736 -787.94921875 407.4921875 C-785.75366048 404.21910433 -783.40203368 401.11048431 -780.95703125 398.0234375 C-780.49014893 397.43095215 -780.0232666 396.8384668 -779.54223633 396.22802734 C-775.03853471 390.54123088 -770.4243735 384.9458514 -765.77978516 379.3737793 C-762.38704014 375.28882783 -759.17192193 371.13664082 -756.10473633 366.80029297 C-755.68474365 366.31705566 -755.26475098 365.83381836 -754.83203125 365.3359375 C-754.17203125 365.3359375 -753.51203125 365.3359375 -752.83203125 365.3359375 C-752.49171875 364.253125 -752.49171875 364.253125 -752.14453125 363.1484375 C-750.87411277 360.42611219 -749.55642192 358.94002939 -747.38671875 356.91796875 C-744.62862557 354.11136639 -742.30234326 350.94279171 -739.89453125 347.8359375 C-737.68312966 345.15545073 -735.30532859 342.77692761 -732.83203125 340.3359375 C-730.45747267 337.85495021 -728.11317951 335.3461016 -725.76953125 332.8359375 C-725.15787109 332.18496094 -724.54621094 331.53398437 -723.91601562 330.86328125 C-721.33005983 328.09560964 -718.85096807 325.36028942 -716.5234375 322.3671875 C-715.96527344 321.696875 -715.40710938 321.0265625 -714.83203125 320.3359375 C-714.17203125 320.3359375 -713.51203125 320.3359375 -712.83203125 320.3359375 C-712.56390625 319.6965625 -712.29578125 319.0571875 -712.01953125 318.3984375 C-710.83203125 316.3359375 -710.83203125 316.3359375 -707.83203125 315.3359375 C-707.50203125 314.6759375 -707.17203125 314.0159375 -706.83203125 313.3359375 C-705.83203125 311.3359375 -705.83203125 311.3359375 -702.83203125 310.3359375 C-702.50203125 309.6759375 -702.17203125 309.0159375 -701.83203125 308.3359375 C-700.83203125 306.3359375 -700.83203125 306.3359375 -697.83203125 305.3359375 C-697.70828125 304.7584375 -697.58453125 304.1809375 -697.45703125 303.5859375 C-696.51333434 300.18862863 -694.46063589 298.5977601 -691.83203125 296.3359375 C-690.50096503 295.99366333 -689.16803046 295.65842007 -687.83203125 295.3359375 C-687.13265593 294.01946631 -686.46473992 292.68571599 -685.83203125 291.3359375 C-684.84203125 291.0059375 -683.85203125 290.6759375 -682.83203125 290.3359375 C-682.50203125 289.6759375 -682.17203125 289.0159375 -681.83203125 288.3359375 C-680.83203125 286.3359375 -680.83203125 286.3359375 -677.83203125 285.3359375 C-677.50203125 284.6759375 -677.17203125 284.0159375 -676.83203125 283.3359375 C-675.83203125 281.3359375 -675.83203125 281.3359375 -672.83203125 280.3359375 C-672.16190064 279.00434177 -671.49585146 277.67069027 -670.83203125 276.3359375 C-668.80078125 274.29296875 -668.80078125 274.29296875 -666.33203125 272.1484375 C-665.43742187 271.36339844 -664.5428125 270.57835937 -663.62109375 269.76953125 C-662.70070313 268.96644531 -661.7803125 268.16335938 -660.83203125 267.3359375 C-659.12111369 265.79713927 -657.4127035 264.25554782 -655.70703125 262.7109375 C-654.08296809 261.25156093 -652.45802101 259.7931672 -650.83203125 258.3359375 C-650.14238281 257.7171875 -649.45273437 257.0984375 -648.7421875 256.4609375 C-644.59952749 252.78586486 -640.33311951 249.34485114 -635.91015625 246.01171875 C-633.74290818 244.33365463 -633.74290818 244.33365463 -631.69140625 242.12890625 C-629.83203125 240.3359375 -629.83203125 240.3359375 -627.83203125 240.3359375 C-627.50203125 239.3459375 -627.17203125 238.3559375 -626.83203125 237.3359375 C-624.84639024 235.62201578 -622.86202256 234.03418829 -620.76953125 232.4609375 C-619.49244077 231.48053136 -618.21644259 230.49870111 -616.94140625 229.515625 C-616.27044922 228.99967773 -615.59949219 228.48373047 -614.90820312 227.95214844 C-611.39900146 225.22038514 -607.96169227 222.40136197 -604.51953125 219.5859375 C-590.11472426 207.84380091 -590.11472426 207.84380091 -585.05859375 204.50390625 C-581.37914874 202.03163993 -577.86148042 199.39055237 -574.33203125 196.7109375 C-568.97806121 192.67224011 -563.59799949 188.67695719 -558.14453125 184.7734375 C-557.58121094 184.36851074 -557.01789063 183.96358398 -556.4375 183.54638672 C-553.3130028 181.32093717 -550.12713075 179.29586671 -546.83203125 177.3359375 C-544.41953308 175.77749759 -542.03169523 174.18283861 -539.64453125 172.5859375 C-538.98324219 172.14491699 -538.32195312 171.70389648 -537.640625 171.24951172 C-533.83437361 168.70306289 -530.06692274 166.11150565 -526.33203125 163.4609375 C-523.6997438 161.60055642 -521.0841035 159.84421245 -518.26953125 158.2734375 C-515.58634208 156.76109451 -513.11560258 155.19632176 -510.58203125 153.4609375 C-506.39049166 150.62862382 -502.0479349 148.22020909 -497.58984375 145.8359375 C-492.48695788 143.06043017 -487.55131696 140.00248137 -482.59960938 136.96777344 C-475.98287206 132.94544927 -469.22274606 129.2353164 -462.39453125 125.5859375 C-461.26088135 124.97830566 -460.12723145 124.37067383 -458.95922852 123.74462891 C-455.58527906 121.93837074 -452.2090121 120.13652056 -448.83203125 118.3359375 C-447.87264648 117.82321289 -446.91326172 117.31048828 -445.92480469 116.78222656 C-443.37520363 115.42102237 -440.82307696 114.06472452 -438.26953125 112.7109375 C-437.54000244 112.32196289 -436.81047363 111.93298828 -436.05883789 111.53222656 C-432.53481456 109.67399374 -428.99596454 107.94068526 -425.34375 106.34765625 C-420.83657676 104.37859254 -416.52738072 102.11956134 -412.20703125 99.7734375 C-405.51670889 96.14345281 -398.81437744 93.07832188 -391.70703125 90.3359375 C-389.08283675 89.29571626 -386.75615475 88.2904116 -384.33203125 86.8359375 C-381.26535915 84.99593424 -378.0983943 83.79681288 -374.76953125 82.50390625 C-371.44633293 81.18258138 -368.17352723 79.76330746 -364.89453125 78.3359375 C-359.82895911 76.15089611 -354.74277404 74.1694991 -349.54296875 72.33203125 C-346.59957573 71.25052517 -343.72009934 70.05724136 -340.83203125 68.8359375 C-336.29074691 66.92198625 -331.72706127 65.15903773 -327.0859375 63.50390625 C-324.46292272 62.56239194 -321.84747735 61.60518161 -319.234375 60.63671875 C-317.99409546 60.17724854 -317.99409546 60.17724854 -316.72875977 59.70849609 C-315.09219261 59.10165592 -313.45594274 58.49395913 -311.82006836 57.88525391 C-304.93535593 55.33770196 -298.01621419 52.92073012 -290.95703125 50.8984375 C-287.50343386 49.87769585 -284.13931989 48.73034351 -280.76953125 47.4609375 C-275.94783513 45.67512412 -271.0755499 44.15899884 -266.14453125 42.7109375 C-265.44384521 42.50484863 -264.74315918 42.29875977 -264.02124023 42.08642578 C-260.54971945 41.07963168 -257.07301366 40.13502783 -253.5625 39.2734375 C-250.89767298 38.60374275 -248.40060471 37.90200967 -245.83203125 36.9609375 C-235.15530797 33.32280748 -223.92192176 31.0850738 -212.94921875 28.53125 C-208.95150036 27.60067634 -204.95793678 26.65334431 -200.96484375 25.703125 C-180.16427468 20.77236937 -159.3392255 16.15464413 -138.18359375 13.01171875 C-134.95071339 12.52803888 -131.7435606 11.95277859 -128.53125 11.34765625 C-122.71830802 10.27687767 -116.88760202 9.53169573 -111.01953125 8.8359375 C-104.69624067 8.07730936 -98.38877791 7.27780073 -92.08984375 6.3359375 C-84.25571623 5.20394078 -76.40309514 4.50029819 -68.51953125 3.8359375 C-67.15687177 3.71778501 -65.79424147 3.59929549 -64.43164062 3.48046875 C-61.61467518 3.23590612 -58.79717117 2.99948536 -55.97909546 2.76809692 C-52.43581007 2.47493991 -48.89519555 2.15969631 -45.35476685 1.83395386 C-30.21397109 0.48109597 -15.19597485 0.009844 0 0 Z " fill="#007BFC" transform="translate(992.83203125,-0.33593749999999994)"/>
<path d="M0 0 C1.11433055 -0.00453111 2.22866109 -0.00906223 3.37675923 -0.01373065 C7.08269273 -0.02631489 10.78847814 -0.02475814 14.49443054 -0.02310181 C17.16296425 -0.02909073 19.83148667 -0.03584128 22.50001526 -0.04345703 C28.97962619 -0.06000479 35.45920071 -0.06556371 41.93883101 -0.06668179 C47.20971609 -0.06763507 52.48058926 -0.07175927 57.75147057 -0.07808304 C72.72271296 -0.09567716 87.69392678 -0.10492458 102.66517959 -0.10342209 C103.87350793 -0.10330222 103.87350793 -0.10330222 105.10624695 -0.10317993 C105.91279192 -0.10309817 106.71933689 -0.10301641 107.55032261 -0.10293217 C120.61876468 -0.10211942 133.68709145 -0.1212592 146.75550018 -0.14945666 C160.20081176 -0.17823662 173.6460672 -0.19199421 187.09141034 -0.19026911 C194.62925066 -0.18960706 202.16697005 -0.19501837 209.70478249 -0.21662521 C216.12232571 -0.23490432 222.53969314 -0.23912937 228.95725123 -0.22560637 C232.22595823 -0.21911082 235.49426146 -0.22104152 238.76294899 -0.23631287 C258.14992224 -0.32098877 276.63686719 0.54941582 291.74320984 14.47445679 C298.4427828 21.69301075 303.42971693 30.35703112 308.57914734 38.70492554 C311.76350617 43.86185572 315.0223608 48.97053855 318.28227234 54.07992554 C324.19201552 63.35183341 330.07392267 72.64086879 335.9394989 81.94076538 C337.92585711 85.08946693 339.91393948 88.23707797 341.90214539 91.38461304 C342.90633694 92.97437939 343.91040577 94.56422327 344.91435242 96.15414429 C347.3750935 100.05108295 349.83704632 103.94724439 352.30180359 107.84164429 C357.82380911 116.57012528 363.3156486 125.31664092 368.78227234 134.07992554 C374.18706236 142.74286862 379.64342131 151.37093805 385.13725281 159.97763062 C389.4335355 166.71643628 393.67941162 173.48551617 397.90727234 180.26742554 C403.90995347 189.89515786 409.97930351 199.47838051 416.07914734 209.04476929 C427.19796698 226.48284888 438.15899706 244.02030343 449.09086609 261.57601929 C454.37049466 270.04941833 459.71377105 278.48093635 465.07963562 286.8999939 C469.52418987 293.87434823 473.94718057 300.8620138 478.35990906 307.85653687 C480.86810526 311.83171949 483.38062138 315.80393211 485.90727234 319.76742554 C493.59380527 331.83306498 501.21056384 343.94194546 508.78227234 356.07992554 C513.61966539 363.83343817 518.49053839 371.56398584 523.40727234 379.26742554 C528.97047398 387.98373778 534.46679237 396.7401204 539.94023132 405.51303101 C547.38797647 417.44840826 554.90166578 429.34101901 562.46537781 441.20321655 C568.75282962 451.06487385 574.98639963 460.95832963 581.17021179 470.88534546 C584.67039014 476.50200082 588.19888057 482.09923633 591.75712585 487.67929077 C598.87018747 498.83561067 605.90044419 510.04417805 612.90727234 521.26742554 C621.03469989 534.28385607 629.21552678 547.26507034 637.46586609 560.20394897 C644.98738047 572.0013354 652.42736235 583.84812668 659.82084656 595.72616577 C660.83848689 597.35630093 661.86056374 598.98367975 662.88822937 600.60751343 C663.33150574 601.30868286 663.7747821 602.00985229 664.23149109 602.73226929 C664.80323059 603.63126953 664.80323059 603.63126953 665.38652039 604.5484314 C671.93678311 615.5793809 671.99833048 630.05509822 669.46977234 642.39242554 C665.04886825 657.23692917 654.42698065 670.72306581 646.13017273 683.59017944 C641.28342161 691.12163371 636.49910408 698.69307132 631.71977234 706.26742554 C631.21357361 707.06922241 630.70737488 707.87101929 630.18583679 708.69711304 C628.59279487 711.22043248 627.00000023 713.74390786 625.40727234 716.26742554 C623.30333484 719.6009036 621.19921063 722.9342636 619.09477234 726.26742554 C618.33571594 727.4697583 618.33571594 727.4697583 617.56132507 728.69638062 C614.97701407 732.78817081 612.38604494 736.87547853 609.78227234 740.95492554 C607.06959199 745.21023856 604.39106562 749.48608039 601.71977234 753.76742554 C596.49159093 762.14653773 591.21833517 770.4968211 585.9394989 778.84408569 C583.4271728 782.81753198 580.91733313 786.79254801 578.40727234 790.76742554 C577.40728459 792.35076661 576.40728458 793.93409994 575.40727234 795.51742554 C574.91227234 796.30117554 574.41727234 797.08492554 573.90727234 797.89242554 C569.40727234 805.01742554 569.40727234 805.01742554 567.90800476 807.39120483 C566.90548991 808.97856079 565.90304879 810.56596333 564.90068054 812.15341187 C562.43975271 816.05057949 559.97765522 819.94699654 557.51274109 823.84164429 C556.79283997 824.97980591 556.79283997 824.97980591 556.05839539 826.14096069 C555.08246061 827.68389812 554.1060606 829.22654137 553.12919617 830.76889038 C550.24872368 835.32468722 547.39563856 839.89623585 544.56352234 844.48226929 C543.9045697 845.54614868 543.24561707 846.61002808 542.56669617 847.70614624 C541.28878232 849.77102845 540.01492093 851.83842635 538.74589539 853.90878296 C528.68188685 870.14939714 518.7626227 880.78734179 500.40727234 887.26742554 C486.96347107 890.07198704 474.24548041 888.2462465 462.21977234 881.64242554 C450.56322726 874.00278971 444.09826533 863.5978932 437.03422546 851.92953491 C434.22518593 847.33323133 431.31040569 842.80464122 428.40727234 838.26742554 C427.21791563 836.40059127 426.02910955 834.53340609 424.84086609 832.66586304 C424.26320496 831.75804077 423.68554382 830.85021851 423.09037781 829.91488647 C415.24911168 817.58087285 407.47783894 805.20363138 399.7454071 792.80111694 C396.20890589 787.13251865 392.6450815 781.48252577 389.05302429 775.84896851 C381.94196851 764.69449531 374.91270602 753.48843943 367.90727234 742.26742554 C359.78056192 729.25214353 351.60042653 716.2720954 343.35087585 703.33432007 C337.18829343 693.66849845 331.08497347 683.96796093 325.02006531 674.24057007 C319.64277397 665.62434994 314.19586598 657.05373807 308.73539734 648.49008179 C300.41009715 635.43318798 292.18119589 622.31667384 283.98051453 609.1812439 C278.63539771 600.62316667 273.25502097 592.08786154 267.8589325 583.56185913 C265.37253703 579.63196599 262.89011416 575.69956439 260.40727234 571.76742554 C257.38510537 566.98146492 254.36233451 562.19589052 251.33695984 557.41195679 C246.26744283 549.39384315 241.21284311 541.36703716 236.19145203 533.31869507 C230.48229096 524.17451453 224.71178469 515.06887167 218.94682312 505.95980835 C212.94522436 496.4767539 206.97218007 486.97676377 201.03227234 477.45492554 C194.99288851 467.77616857 188.8889837 458.14028934 182.75492859 448.52133179 C175.96077811 437.86611051 169.21639383 427.17949968 162.53227234 416.45492554 C158.63408494 410.2004829 154.68347851 403.98052126 150.71977234 397.76742554 C145.73976545 389.96024848 140.80606184 382.12580776 135.90727234 374.26742554 C130.55020785 365.67401712 125.14083743 357.11623462 119.69218445 348.58065796 C114.62602064 340.63428222 109.62628388 332.64722375 104.64360046 324.64828491 C101.14814365 319.03929607 97.62413876 313.44991006 94.07060242 307.87753296 C91.60893875 304.01467574 89.16410156 300.14126591 86.71977234 296.26742554 C85.67420462 294.61117225 84.62863155 292.95492235 83.58305359 291.29867554 C83.05663269 290.4646521 82.53021179 289.63062866 81.98783875 288.77133179 C79.95771352 285.55524215 77.92681422 282.33964183 75.89579773 279.12411499 C74.90142077 277.54977995 73.90711768 275.97539824 72.91288757 274.40097046 C70.38874349 270.4038947 67.86368971 266.40739853 65.33695984 262.41195679 C60.26516228 254.39023616 55.20773484 246.36015822 50.18486023 238.30770874 C46.55085243 232.48625388 42.88386243 226.68592338 39.21318054 220.88754272 C36.40472711 216.44610273 33.61157537 211.99571887 30.83695984 207.53305054 C24.50568697 197.3528834 18.11301014 187.22608433 11.53227234 177.20492554 C7.10737903 170.4654553 2.77817726 163.69954316 -1.3195343 156.75643921 C-5.72679111 149.30203773 -10.40134416 142.01577774 -15.04438782 134.70687866 C-17.56757404 130.73152756 -20.07978852 126.74925897 -22.59272766 122.76742554 C-25.60004231 118.00290144 -28.60928 113.23965115 -31.62788391 108.48226929 C-34.13185911 104.53409597 -36.62691693 100.58043905 -39.11372375 96.62142944 C-40.10450232 95.04449201 -41.09703317 93.46865425 -42.09126282 91.89389038 C-45.34271031 86.73271037 -48.50342912 81.52709485 -51.59272766 76.26742554 C-52.25917297 75.16269897 -52.92561829 74.05797241 -53.61225891 72.91976929 C-59.34627693 62.29773591 -59.23143987 49.78910929 -56.40522766 38.20492554 C-55.84850196 36.5424451 -55.24522384 34.89470346 -54.59272766 33.26742554 C-54.26401672 32.43211304 -53.93530579 31.59680054 -53.59663391 30.73617554 C-47.95269647 18.08125699 -37.5289705 9.69374917 -25.57319641 3.34555054 C-17.29606907 0.35146515 -8.71832572 -0.02645643 0 0 Z " fill="#FEFEFE" transform="translate(569.5927276611328,635.7325744628906)"/>
<path d="M0 0 C1.12487235 -0.00382555 2.24974471 -0.00765109 3.4087041 -0.01159257 C7.16231345 -0.02187692 10.91576853 -0.01793901 14.66938782 -0.01396179 C17.36718245 -0.01831086 20.06496593 -0.02343059 22.76275635 -0.02944946 C29.32152068 -0.0421723 35.88024403 -0.04399307 42.43901863 -0.0416492 C47.77431022 -0.03986273 53.10958942 -0.04162274 58.44487953 -0.04587364 C59.58598679 -0.04676643 59.58598679 -0.04676643 60.75014672 -0.04767724 C62.29586468 -0.04888907 63.84158263 -0.0501032 65.38730059 -0.05131962 C79.87101243 -0.06218642 94.35470096 -0.06003708 108.83841411 -0.05393478 C122.06539312 -0.04876964 135.29229839 -0.06001193 148.51926281 -0.07903299 C162.12271158 -0.09844439 175.72612553 -0.10666141 189.32958823 -0.10290974 C196.95797738 -0.10100228 204.58630383 -0.10344045 212.21468163 -0.11762428 C218.71093822 -0.12958142 225.20709354 -0.13089491 231.70335164 -0.11883412 C235.01251701 -0.11297479 238.3213471 -0.11341321 241.63052368 -0.12383652 C261.86374242 -0.18294797 280.16335753 -0.129623 295.8441925 14.46748352 C301.87360861 20.86627868 306.35497043 28.97603936 311.03388977 36.38569641 C311.63137024 37.3280011 312.22885071 38.27030579 312.84443665 39.24116516 C317.90450235 47.23406811 322.91457699 55.25808592 327.9198761 63.28535461 C333.85033127 72.78868803 339.86802278 82.23535294 345.89033508 91.68061829 C349.94297116 98.04251045 353.97553722 104.41684628 357.98799133 110.80415344 C359.06799675 112.52035914 360.15091555 114.23473337 361.23603821 115.94770813 C362.98786133 118.71453815 364.7303595 121.48706532 366.47138977 124.26069641 C367.00320862 125.09673401 367.53502747 125.93277161 368.08296204 126.79414368 C377.49007136 141.85356778 381.35983205 156.1209012 377.40888977 173.76069641 C373.78503977 185.79055464 365.82536771 196.27484718 359.1217804 206.76997375 C356.61942546 210.69510061 354.14051983 214.6349484 351.65888977 218.57319641 C347.94387265 224.46083787 344.21256506 230.3378232 340.4691925 236.20747375 C334.18298138 246.06485692 327.9525012 255.95523059 321.77095032 265.87861633 C318.27528279 271.48803329 314.7510114 277.0778117 311.19721985 282.65058899 C308.73555635 286.51344595 306.2906722 290.38682677 303.84638977 294.26069641 C302.79693641 295.92347311 301.74745651 297.58623307 300.69795227 299.24897766 C300.17104797 300.08380676 299.64414368 300.91863586 299.10127258 301.77876282 C297.6087974 304.142081 296.1146563 306.50433529 294.61982727 308.86616516 C289.10410354 317.5840859 283.61907216 326.32037131 278.15888977 335.07319641 C272.12352219 344.74551691 266.02406041 354.37521861 259.89326477 363.98725891 C257.13292214 368.31605056 254.38490124 372.65244513 251.6452179 376.99433899 C250.62724753 378.60714166 249.60776065 380.2189883 248.58662415 381.82978821 C246.54128848 385.05866469 244.51558662 388.29121366 242.54951477 391.56929016 C233.73712586 406.14207091 221.04083328 415.18469909 204.53388977 419.26069641 C201.75670671 419.5506016 199.01216171 419.5946469 196.22138977 419.57319641 C195.47445862 419.56900696 194.72752747 419.5648175 193.95796204 419.5605011 C188.0835744 419.44078458 182.9700924 418.57907694 177.53388977 416.26069641 C176.51295227 415.84304016 176.51295227 415.84304016 175.47138977 415.41694641 C162.77811553 409.66530652 154.45139488 399.44547069 147.65888977 387.63569641 C146.6084722 385.84825812 145.55638189 384.06180181 144.50263977 382.27632141 C143.99474915 381.41329407 143.48685852 380.55026672 142.96357727 379.66108704 C140.05502557 374.77773999 136.93284871 370.03523045 133.83418274 365.27095032 C131.10623579 361.05354228 128.41665728 356.81153098 125.72138977 352.57319641 C125.1246344 351.63516174 124.52787903 350.69712708 123.91304016 349.73066711 C119.49648815 342.78423971 115.09443662 335.82873713 110.70454407 328.86543274 C108.19153431 324.88004481 105.66864552 320.9012612 103.13545227 316.92866516 C99.50484127 311.22723557 95.92235706 305.4965045 92.34638977 299.76069641 C86.25701499 290.0057849 80.13535461 280.27202952 73.98554993 270.55513 C71.49915444 266.62523683 69.01676202 262.69281609 66.53388977 258.76069641 C65.53390813 257.17735148 64.53390815 255.59401814 63.53388977 254.01069641 C61.53388977 250.84402974 59.53388977 247.67736308 57.53388977 244.51069641 C57.03913147 243.72734924 56.54437317 242.94400208 56.03462219 242.13691711 C55.03210734 240.54956116 54.02966623 238.96215862 53.02729797 237.37471008 C50.56637014 233.47754246 48.10427265 229.58112541 45.63935852 225.68647766 C40.117353 216.95799667 34.62551351 208.21148102 29.15888977 199.44819641 C23.75409975 190.78525333 18.2977408 182.1571839 12.8039093 173.55049133 C7.86587317 165.80508252 2.99868155 158.01658921 -1.86064148 150.22163391 C-6.59097272 142.64135155 -11.37757397 135.09851155 -16.18559265 127.56733704 C-21.24132308 119.63801078 -26.22683886 111.66577338 -31.19462585 103.68110657 C-34.19765329 98.86091527 -37.22583953 94.06497287 -40.35527039 89.32588196 C-51.20550039 72.81683969 -56.67700972 58.54309656 -53.34501648 38.76069641 C-50.72035732 28.30872038 -45.04887242 20.7233092 -37.46611023 13.26069641 C-36.87829773 12.67417297 -36.29048523 12.08764954 -35.68486023 11.48335266 C-25.45862752 2.00479263 -13.45782627 -0.04899306 0 0 Z " fill="#FEFEFE" transform="translate(1157.4661102294922,635.7393035888672)"/>
</svg>
