<svg xmlns="http://www.w3.org/2000/svg" version="1.1" xmlns:xlink="http://www.w3.org/1999/xlink" xmlns:svgjs="http://svgjs.dev/svgjs" viewBox="0 0 1422 800"><g shape-rendering="crispEdges" stroke-linejoin="round" fill="none" stroke-width="1" stroke="#86a7fc" opacity="0.1"><polygon points="1066.5,0 1422,0 1422,200"></polygon><polygon points="888.75,100 1066.5,100 888.75,0"></polygon><polygon points="888.75,100 711,100 888.75,0"></polygon><polygon points="888.75,200 888.75,100 711,200"></polygon><polygon points="888.75,100 888.75,200 1066.5,200"></polygon><polygon points="888.75,200 1066.5,300 888.75,300"></polygon><polygon points="888.75,200 711,300 888.75,300"></polygon><polygon points="888.75,400 711,300 888.75,300"></polygon><polygon points="1066.5,300 888.75,300 888.75,400"></polygon><polygon points="1066.5,200 1422,200 1422,400"></polygon><polygon points="355.5,200 711,0 711,200"></polygon><polygon points="0,200 355.5,0 0,0"></polygon><polygon points="355.5,200 355.5,400 0,400"></polygon><polygon points="711,200 711,400 355.5,400"></polygon><polygon points="711,400 711,600 355.5,400"></polygon><polygon points="0,400 355.5,600 0,600"></polygon><polygon points="355.5,600 355.5,800 0,600"></polygon><polygon points="355.5,800 711,600 355.5,600"></polygon><polygon points="1422,400 1422,600 1066.5,400"></polygon><polygon points="1066.5,600 1066.5,400 711,400"></polygon><polygon points="1066.5,800 1066.5,600 711,800"></polygon><polygon points="1422,600 1422,800 1066.5,800"></polygon></g><g fill="hsl(220, 62%, 45%)" stroke-width="3" stroke="hsl(220, 43%, 13%)"></g></svg>