<?xml version="1.0" standalone="no"?>
<!DOCTYPE svg PUBLIC "-//W3C//DTD SVG 20010904//EN"
 "http://www.w3.org/TR/2001/REC-SVG-20010904/DTD/svg10.dtd">
<svg version="1.0" xmlns="http://www.w3.org/2000/svg"
 width="500.000000pt" height="500.000000pt" viewBox="0 0 500.000000 500.000000"
 preserveAspectRatio="xMidYMid meet">
<metadata>
Created by potrace 1.14, written by Peter Selinger 2001-2017
</metadata>
<g transform="translate(0.000000,500.000000) scale(0.100000,-0.100000)"
fill="#000000" stroke="none">
<path d="M0 2500 l0 -2500 2500 0 2500 0 0 2500 0 2500 -2500 0 -2500 0 0
-2500z m2975 815 c527 -913 801 -1389 950 -1645 l101 -175 -572 -3 -572 -2
-183 -316 -182 -315 -48 83 c-27 46 -108 187 -181 313 l-133 230 -586 5 -585
5 653 1130 c359 622 701 1214 760 1317 59 102 108 186 109 185 1 -1 212 -366
469 -812z"/>
<path d="M2213 3143 l-181 -3 120 -208 c67 -114 121 -212 121 -218 0 -6 -54
-105 -121 -221 -67 -116 -122 -213 -122 -217 0 -3 225 -6 500 -6 275 0 500 3
500 8 0 9 -25 52 -192 342 -75 129 -174 300 -220 380 l-84 145 -69 0 c-39 1
-152 -1 -252 -2z"/>
<path d="M2030 2209 c0 -6 31 -63 69 -127 37 -64 148 -256 246 -425 98 -170
181 -305 185 -300 14 15 490 844 490 854 0 5 -192 9 -495 9 -343 0 -495 -3
-495 -11z"/>
</g>
</svg>
